<svg xmlns="http://www.w3.org/2000/svg" xmlns:xlink="http://www.w3.org/1999/xlink" width="1080" zoomAndPan="magnify" viewBox="0 0 810 809.999993" height="1080" preserveAspectRatio="xMidYMid meet" version="1.0"><defs><clipPath id="3f4464f2ea"><path d="M 575 419 L 747.804688 419 L 747.804688 659 L 575 659 Z M 575 419 " clip-rule="nonzero"/></clipPath><clipPath id="72bca06cce"><path d="M 62.304688 435 L 329 435 L 329 633 L 62.304688 633 Z M 62.304688 435 " clip-rule="nonzero"/></clipPath><clipPath id="ba3ef17d3c"><path d="M 301 135.828125 L 547 135.828125 L 547 325 L 301 325 Z M 301 135.828125 " clip-rule="nonzero"/></clipPath><clipPath id="cbe5742ec8"><path d="M 346 652 L 503 652 L 503 674.328125 L 346 674.328125 Z M 346 652 " clip-rule="nonzero"/></clipPath></defs><g clip-path="url(#3f4464f2ea)"><path fill="#000000" d="M 742.25 419.382812 L 580.449219 419.382812 C 577.449219 419.382812 575.011719 421.820312 575.011719 424.820312 L 575.011719 652.734375 C 575.011719 655.734375 577.449219 658.171875 580.449219 658.171875 L 742.25 658.171875 C 745.253906 658.171875 747.6875 655.734375 747.6875 652.734375 L 747.6875 424.820312 C 747.6875 421.820312 745.253906 419.382812 742.25 419.382812 Z M 736.8125 647.292969 L 585.890625 647.292969 L 585.890625 430.261719 L 736.8125 430.261719 Z M 736.8125 647.292969 " fill-opacity="1" fill-rule="nonzero"/></g><path fill="#000000" d="M 615.65625 512.054688 C 616.675781 513.082031 618.0625 513.648438 619.5 513.648438 C 619.71875 513.648438 619.941406 513.636719 620.15625 513.609375 C 621.820312 513.40625 623.296875 512.449219 624.15625 511.015625 L 640.90625 483.21875 C 642.457031 480.648438 641.628906 477.308594 639.058594 475.75 C 636.480469 474.199219 633.140625 475.027344 631.589844 477.601562 L 618.429688 499.441406 L 612.195312 493.207031 C 610.070312 491.078125 606.632812 491.078125 604.503906 493.207031 C 602.378906 495.332031 602.378906 498.777344 604.503906 500.898438 Z M 615.65625 512.054688 " fill-opacity="1" fill-rule="nonzero"/><path fill="#000000" d="M 653 502.496094 L 703.199219 502.496094 C 706.203125 502.496094 708.640625 500.058594 708.640625 497.058594 C 708.640625 494.054688 706.203125 491.617188 703.199219 491.617188 L 653 491.617188 C 650 491.617188 647.5625 494.054688 647.5625 497.058594 C 647.5625 500.058594 650 502.496094 653 502.496094 Z M 653 502.496094 " fill-opacity="1" fill-rule="nonzero"/><path fill="#000000" d="M 615.664062 556.503906 C 616.695312 557.527344 618.074219 558.085938 619.503906 558.085938 C 619.726562 558.085938 619.949219 558.078125 620.175781 558.050781 C 621.832031 557.84375 623.300781 556.890625 624.167969 555.453125 L 640.917969 527.660156 C 642.46875 525.085938 641.640625 521.746094 639.066406 520.191406 C 636.488281 518.640625 633.152344 519.46875 631.601562 522.039062 L 618.433594 543.894531 L 612.199219 537.691406 C 610.070312 535.574219 606.625 535.585938 604.503906 537.707031 C 602.382812 539.839844 602.394531 543.28125 604.523438 545.402344 Z M 615.664062 556.503906 " fill-opacity="1" fill-rule="nonzero"/><path fill="#000000" d="M 653 546.992188 L 703.199219 546.992188 C 706.203125 546.992188 708.640625 544.554688 708.640625 541.550781 C 708.640625 538.550781 706.203125 536.113281 703.199219 536.113281 L 653 536.113281 C 650 536.113281 647.5625 538.550781 647.5625 541.550781 C 647.5625 544.554688 650 546.992188 653 546.992188 Z M 653 546.992188 " fill-opacity="1" fill-rule="nonzero"/><path fill="#000000" d="M 639.058594 564.691406 C 636.480469 563.140625 633.140625 563.96875 631.589844 566.539062 L 618.429688 588.378906 L 612.195312 582.144531 C 610.070312 580.019531 606.632812 580.019531 604.503906 582.144531 C 602.378906 584.273438 602.378906 587.710938 604.503906 589.835938 L 615.65625 600.988281 C 616.675781 602.015625 618.0625 602.582031 619.5 602.582031 C 619.71875 602.582031 619.941406 602.570312 620.15625 602.542969 C 621.820312 602.34375 623.296875 601.386719 624.15625 599.949219 L 640.90625 572.152344 C 642.457031 569.582031 641.628906 566.242188 639.058594 564.691406 Z M 639.058594 564.691406 " fill-opacity="1" fill-rule="nonzero"/><path fill="#000000" d="M 653 591.429688 L 703.199219 591.429688 C 706.203125 591.429688 708.640625 588.992188 708.640625 585.992188 C 708.640625 582.988281 706.203125 580.550781 703.199219 580.550781 L 653 580.550781 C 650 580.550781 647.5625 582.988281 647.5625 585.992188 C 647.5625 588.992188 650 591.429688 653 591.429688 Z M 653 591.429688 " fill-opacity="1" fill-rule="nonzero"/><path fill="#000000" d="M 110.953125 488.316406 C 130.007812 480.375 151.753906 480.324219 171.003906 488.316406 C 171.683594 488.597656 172.390625 488.734375 173.089844 488.734375 C 175.21875 488.734375 177.25 487.472656 178.113281 485.378906 C 179.261719 482.605469 177.949219 479.421875 175.171875 478.269531 C 153.257812 469.175781 128.484375 469.230469 106.765625 478.269531 C 103.992188 479.421875 102.679688 482.609375 103.832031 485.382812 C 104.996094 488.160156 108.183594 489.480469 110.953125 488.316406 Z M 110.953125 488.316406 " fill-opacity="1" fill-rule="nonzero"/><path fill="#000000" d="M 110.980469 513.925781 C 119.417969 510.363281 128.761719 508.289062 138.003906 507.929688 C 152.230469 507.398438 163.78125 510.894531 170.988281 513.925781 C 171.679688 514.214844 172.390625 514.355469 173.09375 514.355469 C 175.21875 514.355469 177.238281 513.105469 178.109375 511.019531 C 179.273438 508.25 177.972656 505.058594 175.203125 503.894531 C 166.988281 500.441406 153.808594 496.4375 137.585938 497.058594 C 126.890625 497.472656 116.515625 499.773438 106.746094 503.894531 C 103.980469 505.0625 102.679688 508.25 103.847656 511.019531 C 105.019531 513.800781 108.199219 515.105469 110.980469 513.925781 Z M 110.980469 513.925781 " fill-opacity="1" fill-rule="nonzero"/><path fill="#000000" d="M 110.933594 536.300781 C 120.519531 532.347656 130.632812 530.347656 141.003906 530.347656 C 153.964844 530.347656 164.472656 533.582031 171.003906 536.296875 C 171.683594 536.578125 172.390625 536.714844 173.089844 536.714844 C 175.21875 536.714844 177.242188 535.453125 178.113281 533.359375 C 179.265625 530.585938 177.949219 527.402344 175.175781 526.25 C 164.496094 521.8125 152.675781 519.46875 141 519.46875 C 129.203125 519.46875 117.691406 521.746094 106.78125 526.246094 C 104.007812 527.386719 102.679688 530.570312 103.828125 533.347656 C 104.980469 536.125 108.15625 537.445312 110.933594 536.300781 Z M 110.933594 536.300781 " fill-opacity="1" fill-rule="nonzero"/><path fill="#000000" d="M 175.203125 551.875 C 166.992188 548.417969 153.75 544.417969 137.585938 545.039062 C 126.886719 545.453125 116.511719 547.757812 106.746094 551.882812 C 103.980469 553.050781 102.683594 556.238281 103.855469 559.007812 C 104.730469 561.085938 106.746094 562.332031 108.863281 562.332031 C 109.570312 562.332031 110.289062 562.1875 110.980469 561.894531 C 119.410156 558.332031 128.757812 556.257812 138 555.902344 C 152.203125 555.339844 163.777344 558.863281 170.984375 561.898438 C 173.746094 563.070312 176.945312 561.765625 178.109375 558.996094 C 179.273438 556.234375 177.972656 553.046875 175.203125 551.875 Z M 175.203125 551.875 " fill-opacity="1" fill-rule="nonzero"/><g clip-path="url(#72bca06cce)"><path fill="#000000" d="M 323.472656 452.238281 L 306.992188 452.238281 L 306.992188 448.101562 C 306.992188 445.878906 305.632812 443.875 303.574219 443.050781 C 290.9375 438.007812 270.738281 432.753906 246.171875 436.300781 C 223.570312 439.574219 206.644531 449.003906 195.605469 457.246094 C 184.488281 449 167.503906 439.5625 144.996094 436.300781 C 120.441406 432.753906 100.226562 438.011719 87.597656 443.050781 C 85.53125 443.875 84.171875 445.878906 84.171875 448.101562 L 84.171875 452.238281 L 67.855469 452.238281 C 64.855469 452.238281 62.417969 454.671875 62.417969 457.675781 L 62.417969 621.835938 C 62.417969 623.566406 63.242188 625.199219 64.640625 626.222656 C 66.035156 627.25 67.839844 627.554688 69.492188 627.019531 C 72.882812 625.953125 76.980469 624.144531 81.730469 622.050781 C 94.378906 616.46875 111.742188 608.824219 127.769531 610.015625 C 150.449219 611.703125 172.910156 619.148438 192.726562 631.558594 C 192.769531 631.585938 192.824219 631.59375 192.875 631.621094 C 193.164062 631.792969 193.472656 631.917969 193.789062 632.023438 C 193.929688 632.074219 194.070312 632.148438 194.210938 632.195312 C 194.636719 632.308594 195.078125 632.367188 195.519531 632.375 C 195.550781 632.375 195.578125 632.382812 195.609375 632.382812 C 195.609375 632.382812 195.617188 632.382812 195.617188 632.382812 C 195.617188 632.382812 195.621094 632.382812 195.621094 632.382812 C 195.652344 632.382812 195.6875 632.375 195.71875 632.375 C 196.160156 632.363281 196.59375 632.308594 197.019531 632.195312 C 197.175781 632.148438 197.316406 632.074219 197.46875 632.019531 C 197.773438 631.90625 198.074219 631.792969 198.363281 631.621094 C 198.410156 631.59375 198.464844 631.585938 198.515625 631.558594 C 218.222656 619.15625 240.679688 611.707031 263.457031 610.023438 C 279.511719 608.847656 296.910156 616.484375 309.621094 622.078125 C 314.367188 624.164062 318.46875 625.964844 321.847656 627.03125 C 323.5 627.566406 325.304688 627.261719 326.699219 626.230469 C 328.085938 625.199219 328.910156 623.566406 328.910156 621.835938 L 328.910156 457.675781 C 328.910156 454.671875 326.476562 452.238281 323.472656 452.238281 Z M 247.730469 447.070312 C 267.804688 444.179688 284.652344 447.78125 296.117188 451.867188 L 296.117188 578.125 C 284.332031 574.550781 268.226562 571.730469 249.535156 573.898438 C 228.953125 576.289062 212.71875 583.773438 201.046875 591.25 L 201.046875 466.777344 C 210.96875 459.160156 226.582031 450.136719 247.730469 447.070312 Z M 95.050781 451.867188 C 106.507812 447.789062 123.363281 444.175781 143.429688 447.070312 C 164.480469 450.121094 180.164062 459.15625 190.171875 466.789062 L 190.171875 591.25 C 178.496094 583.777344 162.25 576.289062 141.632812 573.898438 C 122.945312 571.722656 106.835938 574.546875 95.050781 578.121094 Z M 95.050781 451.867188 " fill-opacity="1" fill-rule="nonzero"/></g><path fill="#000000" d="M 220.136719 488.328125 C 239.648438 480.296875 261.226562 480.414062 280.207031 488.320312 C 280.886719 488.605469 281.601562 488.742188 282.296875 488.742188 C 284.429688 488.742188 286.453125 487.480469 287.324219 485.390625 C 288.476562 482.617188 287.164062 479.433594 284.390625 478.273438 C 262.75 469.265625 238.15625 469.148438 216 478.269531 C 213.21875 479.410156 211.898438 482.59375 213.039062 485.367188 C 214.183594 488.140625 217.359375 489.46875 220.136719 488.328125 Z M 220.136719 488.328125 " fill-opacity="1" fill-rule="nonzero"/><path fill="#000000" d="M 218.078125 514.355469 C 218.773438 514.355469 219.484375 514.21875 220.164062 513.929688 C 230.738281 509.523438 241.855469 507.5 253.15625 507.925781 C 262.402344 508.285156 271.746094 510.355469 280.1875 513.917969 C 282.949219 515.082031 286.140625 513.789062 287.3125 511.019531 C 288.480469 508.25 287.1875 505.0625 284.414062 503.894531 C 274.644531 499.773438 264.269531 497.464844 253.570312 497.050781 C 240.695312 496.574219 228.007812 498.863281 215.976562 503.882812 C 213.203125 505.035156 211.894531 508.222656 213.050781 511 C 213.921875 513.097656 215.945312 514.355469 218.078125 514.355469 Z M 218.078125 514.355469 " fill-opacity="1" fill-rule="nonzero"/><path fill="#000000" d="M 284.378906 526.246094 C 262.609375 517.265625 237.867188 517.230469 216.003906 526.246094 C 213.226562 527.386719 211.90625 530.570312 213.046875 533.347656 C 213.910156 535.449219 215.941406 536.722656 218.078125 536.722656 C 218.769531 536.722656 219.46875 536.589844 220.144531 536.308594 C 239.371094 528.382812 261.109375 528.414062 280.230469 536.308594 C 283.019531 537.464844 286.191406 536.128906 287.332031 533.355469 C 288.476562 530.570312 287.152344 527.386719 284.378906 526.246094 Z M 284.378906 526.246094 " fill-opacity="1" fill-rule="nonzero"/><path fill="#000000" d="M 284.417969 551.882812 C 274.65625 547.753906 264.273438 545.453125 253.570312 545.03125 C 240.820312 544.539062 227.828125 546.921875 215.972656 551.871094 C 213.199219 553.027344 211.894531 556.210938 213.046875 558.984375 C 214.199219 561.753906 217.382812 563.074219 220.160156 561.910156 C 230.570312 557.566406 241.957031 555.480469 253.152344 555.90625 C 262.402344 556.265625 271.746094 558.335938 280.179688 561.898438 C 280.871094 562.195312 281.589844 562.335938 282.296875 562.335938 C 284.417969 562.335938 286.429688 561.089844 287.304688 559.011719 C 288.480469 556.242188 287.1875 553.050781 284.417969 551.882812 Z M 284.417969 551.882812 " fill-opacity="1" fill-rule="nonzero"/><path fill="#000000" d="M 429.398438 177.667969 C 427.835938 176.113281 425.507812 175.65625 423.472656 176.496094 C 421.441406 177.335938 420.117188 179.320312 420.117188 181.519531 L 420.117188 214.863281 C 420.117188 217.058594 421.441406 219.039062 423.46875 219.882812 C 424.144531 220.164062 424.855469 220.300781 425.558594 220.300781 C 426.964844 220.300781 428.351562 219.75 429.390625 218.71875 L 446.140625 202.074219 C 447.171875 201.050781 447.746094 199.667969 447.746094 198.222656 C 447.746094 196.777344 447.175781 195.386719 446.148438 194.367188 Z M 430.996094 201.789062 L 430.996094 194.621094 L 434.601562 198.210938 Z M 430.996094 201.789062 " fill-opacity="1" fill-rule="nonzero"/><path fill="#000000" d="M 507.21875 266.714844 C 506.300781 264.871094 504.414062 263.707031 502.351562 263.707031 L 346.097656 263.707031 C 344.035156 263.707031 342.15625 264.871094 341.230469 266.714844 L 332.757812 283.636719 C 332.746094 283.660156 332.734375 283.675781 332.730469 283.695312 L 324.539062 300.058594 C 323.695312 301.746094 323.78125 303.746094 324.773438 305.355469 C 325.761719 306.960938 327.515625 307.941406 329.402344 307.941406 L 362.832031 307.941406 C 362.839844 307.941406 362.84375 307.941406 362.847656 307.941406 C 362.855469 307.941406 362.859375 307.941406 362.867188 307.941406 L 390.734375 307.941406 C 390.738281 307.941406 390.742188 307.941406 390.75 307.941406 C 390.753906 307.941406 390.761719 307.941406 390.765625 307.941406 L 457.683594 307.941406 C 457.6875 307.941406 457.695312 307.941406 457.699219 307.941406 C 457.703125 307.941406 457.710938 307.941406 457.714844 307.941406 L 485.582031 307.941406 C 485.589844 307.941406 485.59375 307.941406 485.601562 307.941406 C 485.605469 307.941406 485.609375 307.941406 485.617188 307.941406 L 519.046875 307.941406 C 520.933594 307.941406 522.6875 306.960938 523.675781 305.355469 C 524.664062 303.753906 524.753906 301.746094 523.910156 300.058594 Z M 501.878906 280.351562 L 483.933594 280.351562 L 482.003906 274.585938 L 498.988281 274.585938 Z M 461.617188 297.050781 L 459.667969 291.230469 L 476.097656 291.230469 L 478.046875 297.050781 Z M 370.402344 297.050781 L 372.351562 291.230469 L 388.78125 291.230469 L 386.832031 297.050781 Z M 394.34375 274.585938 L 392.417969 280.351562 L 375.988281 280.351562 L 377.914062 274.585938 Z M 400.25 291.230469 L 418.8125 291.230469 L 418.8125 297.050781 L 398.304688 297.050781 Z M 429.691406 291.230469 L 448.199219 291.230469 L 450.144531 297.050781 L 429.691406 297.050781 Z M 429.691406 274.585938 L 442.632812 274.585938 L 444.558594 280.351562 L 429.691406 280.351562 Z M 456.03125 280.351562 L 454.097656 274.585938 L 470.527344 274.585938 L 472.453125 280.351562 Z M 418.8125 280.351562 L 403.890625 280.351562 L 405.816406 274.585938 L 418.8125 274.585938 Z M 366.445312 274.585938 L 364.519531 280.351562 L 346.578125 280.351562 L 349.464844 274.585938 Z M 341.128906 291.230469 L 360.878906 291.230469 L 358.933594 297.050781 L 338.210938 297.050781 Z M 489.515625 297.050781 L 487.570312 291.230469 L 507.320312 291.230469 L 510.238281 297.050781 Z M 489.515625 297.050781 " fill-opacity="1" fill-rule="nonzero"/><g clip-path="url(#ba3ef17d3c)"><path fill="#000000" d="M 518.9375 250.882812 L 518.9375 141.265625 C 518.9375 138.265625 516.503906 135.828125 513.5 135.828125 L 334.949219 135.828125 C 331.945312 135.828125 329.511719 138.265625 329.511719 141.265625 L 329.511719 250.882812 L 302.441406 294.046875 C 301.898438 294.914062 301.609375 295.914062 301.609375 296.9375 L 301.609375 319.183594 C 301.609375 322.1875 304.046875 324.625 307.046875 324.625 L 541.402344 324.625 C 544.402344 324.625 546.839844 322.1875 546.839844 319.183594 L 546.839844 296.9375 C 546.839844 295.914062 546.550781 294.914062 546.007812 294.046875 Z M 362.6875 224.761719 L 362.6875 168.953125 L 485.761719 168.953125 L 485.761719 224.761719 Z M 535.960938 313.75 L 312.488281 313.75 L 312.488281 298.507812 L 337.957031 257.886719 L 510.492188 257.886719 L 535.960938 298.507812 Z M 535.960938 313.75 " fill-opacity="1" fill-rule="nonzero"/></g><path fill="#000000" d="M 187.523438 407.65625 C 188.160156 407.898438 188.816406 408.015625 189.457031 408.015625 C 191.644531 408.015625 193.710938 406.683594 194.539062 404.511719 C 207.867188 369.601562 229.542969 337.625 257.21875 312.03125 C 259.425781 309.992188 259.5625 306.546875 257.523438 304.34375 C 255.480469 302.136719 252.035156 302 249.839844 304.039062 C 220.9375 330.765625 198.300781 364.160156 184.378906 400.632812 C 183.3125 403.441406 184.714844 406.582031 187.523438 407.65625 Z M 187.523438 407.65625 " fill-opacity="1" fill-rule="nonzero"/><g clip-path="url(#cbe5742ec8)"><path fill="#000000" d="M 495.183594 653.070312 C 449.398438 666.851562 398.988281 666.832031 353.265625 653.070312 C 350.394531 652.210938 347.359375 653.835938 346.488281 656.710938 C 345.625 659.585938 347.257812 662.617188 350.128906 663.488281 C 374.027344 670.683594 398.960938 674.328125 424.25 674.328125 C 449.503906 674.328125 474.421875 670.683594 498.316406 663.488281 C 501.191406 662.621094 502.824219 659.585938 501.953125 656.710938 C 501.089844 653.832031 498.058594 652.210938 495.183594 653.070312 Z M 495.183594 653.070312 " fill-opacity="1" fill-rule="nonzero"/></g><path fill="#000000" d="M 653.476562 403.449219 C 654.308594 405.605469 656.367188 406.933594 658.550781 406.933594 C 659.203125 406.933594 659.867188 406.8125 660.511719 406.5625 C 663.3125 405.480469 664.707031 402.332031 663.625 399.527344 C 650.097656 364.566406 628.425781 332.296875 600.949219 306.222656 C 598.773438 304.160156 595.324219 304.242188 593.257812 306.421875 C 591.191406 308.605469 591.277344 312.046875 593.460938 314.113281 C 619.773438 339.085938 640.527344 369.976562 653.476562 403.449219 Z M 653.476562 403.449219 " fill-opacity="1" fill-rule="nonzero"/></svg>