<svg xmlns="http://www.w3.org/2000/svg" xmlns:xlink="http://www.w3.org/1999/xlink" width="1080" zoomAndPan="magnify" viewBox="0 0 810 1439.999935" height="1920" preserveAspectRatio="xMidYMid meet" version="1.0"><defs><clipPath id="c4c7013ab6"><path d="M 122 490.363281 L 688 490.363281 L 688 949.363281 L 122 949.363281 Z M 122 490.363281 " clip-rule="nonzero"/></clipPath></defs><g clip-path="url(#c4c7013ab6)"><path fill="#000000" d="M 679.828125 694.457031 C 674.855469 690.507812 668.753906 689.09375 662.652344 690.507812 L 554.417969 715.066406 L 554.417969 701.683594 C 554.417969 670.40625 528.996094 645.003906 497.703125 645.003906 L 179.261719 645.003906 C 147.96875 645.058594 122.546875 670.519531 122.546875 701.742188 L 122.546875 893.078125 C 122.546875 924.355469 147.96875 949.761719 179.261719 949.761719 L 497.644531 949.761719 C 528.941406 949.761719 554.363281 924.355469 554.363281 893.078125 L 554.363281 879.695312 L 662.597656 904.253906 C 664.179688 904.59375 665.761719 904.820312 667.285156 904.820312 C 671.804688 904.820312 676.15625 903.296875 679.828125 900.359375 C 684.742188 896.40625 687.453125 890.816406 687.453125 884.496094 L 687.453125 710.324219 C 687.453125 704.054688 684.742188 698.410156 679.828125 694.457031 Z M 497.644531 932.144531 L 179.261719 932.144531 C 157.738281 932.144531 140.226562 914.644531 140.226562 893.132812 L 140.226562 701.742188 C 140.226562 680.230469 157.738281 662.730469 179.261719 662.730469 L 497.644531 662.730469 C 519.167969 662.730469 536.679688 680.230469 536.679688 701.742188 L 536.679688 893.019531 C 536.734375 914.644531 519.167969 932.144531 497.644531 932.144531 Z M 669.773438 884.496094 C 669.773438 885.398438 669.488281 886.019531 668.753906 886.582031 C 668.019531 887.148438 667.398438 887.316406 666.496094 887.09375 L 554.363281 861.628906 L 554.363281 733.1875 L 666.550781 707.726562 C 667.457031 707.5 668.078125 707.667969 668.753906 708.234375 C 669.488281 708.800781 669.773438 709.421875 669.773438 710.324219 Z M 509.394531 701.742188 L 509.394531 745.890625 C 509.394531 750.746094 505.441406 754.699219 500.582031 754.699219 C 495.722656 754.699219 491.769531 750.746094 491.769531 745.890625 L 491.769531 707.613281 L 408.726562 707.160156 C 403.871094 707.160156 399.914062 703.152344 399.914062 698.296875 C 399.914062 693.441406 403.871094 689.492188 408.726562 689.492188 C 408.726562 689.492188 408.785156 689.492188 408.785156 689.492188 L 497.703125 690 C 504.140625 690 509.394531 695.304688 509.394531 701.742188 Z M 259.253906 636.082031 C 287.554688 636.082031 312.128906 619.878906 324.160156 596.222656 C 330.148438 619.089844 350.996094 636.082031 375.738281 636.082031 C 405.113281 636.082031 429.007812 612.199219 429.007812 582.84375 C 429.007812 553.484375 405.113281 529.601562 375.738281 529.601562 C 357.265625 529.601562 340.941406 539.03125 331.394531 553.371094 C 326.535156 517.914062 296.03125 490.535156 259.253906 490.535156 C 219.089844 490.535156 186.4375 523.222656 186.4375 563.363281 C 186.382812 603.449219 219.089844 636.082031 259.253906 636.082031 Z M 375.738281 547.273438 C 395.398438 547.273438 411.328125 563.25 411.328125 582.84375 C 411.328125 602.433594 395.339844 618.410156 375.738281 618.410156 C 356.136719 618.410156 340.148438 602.433594 340.148438 582.84375 C 340.148438 563.25 356.078125 547.273438 375.738281 547.273438 Z M 259.253906 508.148438 C 289.703125 508.148438 314.445312 532.878906 314.445312 563.308594 C 314.445312 593.683594 289.703125 618.410156 259.253906 618.410156 C 228.863281 618.410156 204.117188 593.683594 204.117188 563.308594 C 204.0625 532.933594 228.804688 508.148438 259.253906 508.148438 Z M 259.253906 508.148438 " fill-opacity="1" fill-rule="nonzero"/></g></svg>