<svg xmlns="http://www.w3.org/2000/svg" xmlns:xlink="http://www.w3.org/1999/xlink" width="1080" zoomAndPan="magnify" viewBox="0 0 810 809.999993" height="1080" preserveAspectRatio="xMidYMid meet" version="1.0"><defs><clipPath id="5ed771f640"><path d="M 34.691406 34.691406 L 774.941406 34.691406 L 774.941406 774.941406 L 34.691406 774.941406 Z M 34.691406 34.691406 " clip-rule="nonzero"/></clipPath></defs><path fill="#1a1a1a" d="M 517.640625 543.71875 C 517.640625 563.738281 501.347656 580.03125 481.324219 580.03125 L 328.34375 580.03125 C 308.324219 580.03125 292.035156 563.738281 292.035156 543.71875 L 292.035156 265.941406 C 292.035156 245.925781 308.324219 229.632812 328.34375 229.632812 L 481.324219 229.632812 C 501.347656 229.632812 517.640625 245.925781 517.640625 265.941406 Z M 404.839844 99.949219 C 236.453125 99.949219 99.953125 236.449219 99.953125 404.832031 C 99.953125 573.214844 236.453125 709.714844 404.839844 709.714844 C 573.222656 709.714844 709.722656 573.214844 709.722656 404.832031 C 709.722656 236.449219 573.222656 99.949219 404.839844 99.949219 " fill-opacity="1" fill-rule="nonzero"/><path fill="#1a1a1a" d="M 314.84375 502.75 L 494.832031 502.75 L 494.832031 275.324219 L 314.84375 275.324219 L 314.84375 502.75 " fill-opacity="1" fill-rule="nonzero"/><path fill="#1a1a1a" d="M 404.839844 517.5625 C 391.902344 517.5625 381.421875 528.050781 381.421875 540.988281 C 381.421875 553.914062 391.902344 564.402344 404.839844 564.402344 C 417.765625 564.402344 428.253906 553.914062 428.253906 540.988281 C 428.253906 528.050781 417.765625 517.5625 404.839844 517.5625 " fill-opacity="1" fill-rule="nonzero"/><g clip-path="url(#5ed771f640)"><path fill="#1a1a1a" d="M 404.839844 756.699219 C 210.820312 756.699219 52.972656 598.851562 52.972656 404.832031 C 52.972656 210.8125 210.820312 52.972656 404.839844 52.972656 C 598.855469 52.972656 756.699219 210.8125 756.699219 404.832031 C 756.699219 598.851562 598.855469 756.699219 404.839844 756.699219 Z M 666.566406 143.101562 C 632.578125 109.113281 592.992188 82.421875 548.917969 63.777344 C 503.273438 44.476562 454.800781 34.6875 404.839844 34.6875 C 354.875 34.6875 306.394531 44.476562 260.757812 63.777344 C 216.683594 82.421875 177.09375 109.113281 143.101562 143.101562 C 109.113281 177.09375 82.425781 216.675781 63.785156 260.753906 C 44.476562 306.394531 34.691406 354.867188 34.691406 404.832031 C 34.691406 454.796875 44.476562 503.269531 63.785156 548.910156 C 82.425781 592.992188 109.113281 632.570312 143.101562 666.566406 C 177.09375 700.558594 216.683594 727.242188 260.757812 745.886719 C 306.394531 765.1875 354.875 774.976562 404.839844 774.976562 C 454.800781 774.976562 503.273438 765.1875 548.917969 745.886719 C 592.992188 727.242188 632.578125 700.558594 666.566406 666.566406 C 700.558594 632.570312 727.242188 592.992188 745.890625 548.910156 C 765.191406 503.269531 774.976562 454.796875 774.976562 404.832031 C 774.976562 354.867188 765.191406 306.394531 745.890625 260.753906 C 727.242188 216.675781 700.558594 177.09375 666.566406 143.101562 " fill-opacity="1" fill-rule="nonzero"/></g></svg>