<svg xmlns="http://www.w3.org/2000/svg" xmlns:xlink="http://www.w3.org/1999/xlink" width="1080" zoomAndPan="magnify" viewBox="0 0 810 809.999993" height="1080" preserveAspectRatio="xMidYMid meet" version="1.0"><defs><clipPath id="151979d618"><path d="M 53.648438 156.417969 L 756.398438 156.417969 L 756.398438 653.667969 L 53.648438 653.667969 Z M 53.648438 156.417969 " clip-rule="nonzero"/></clipPath></defs><g clip-path="url(#151979d618)"><path stroke-linecap="round" transform="matrix(0.554775, 0, 0, 0.649033, -1739.164373, -2422.124162)" fill="none" stroke-linejoin="round" d="M 4475.4069 4199.589309 C 4475.4069 4087.078135 4368.719513 3995.878723 4237.106482 3995.878723 L 3492.921117 3995.878723 C 3361.308086 3995.878723 3254.620699 4087.078135 3254.620699 4199.589309 L 3254.620699 4512.362427 C 3254.620699 4624.861563 3361.308086 4716.066994 3492.921117 4716.066994 L 4237.106482 4716.066994 C 4368.719513 4716.066994 4475.4069 4624.861563 4475.4069 4512.362427 Z M 4475.4069 4199.589309 " stroke="#000000" stroke-width="45.950001" stroke-opacity="1" stroke-miterlimit="1.5"/></g><path stroke-linecap="round" transform="matrix(0, 0.462017, -0.515946, 0, 1089.108237, -168.85339)" fill-opacity="1" fill="#000000" fill-rule="evenodd" stroke-linejoin="round" d="M 1204.901167 1134.820883 L 1374.875791 1454.939569 L 1034.909634 1454.939569 Z M 1204.901167 1134.820883 " stroke="#000000" stroke-width="16.99" stroke-opacity="1" stroke-miterlimit="1.5"/><path stroke-linecap="round" transform="matrix(0.554775, 0, 0, 0.554843, -1729.467437, -2001.359399)" fill="none" stroke-linejoin="round" d="M 3485.532033 4600.523485 L 4209.537485 4600.523485 " stroke="#000000" stroke-width="10.38" stroke-opacity="1" stroke-miterlimit="1.5"/><path fill="#000000" d="M 327.046875 549.535156 C 327.046875 550.558594 326.945312 551.570312 326.746094 552.570312 C 326.550781 553.574219 326.253906 554.546875 325.863281 555.488281 C 325.472656 556.433594 324.996094 557.328125 324.429688 558.179688 C 323.863281 559.027344 323.21875 559.816406 322.5 560.539062 C 321.78125 561.261719 320.996094 561.90625 320.148438 562.472656 C 319.300781 563.039062 318.40625 563.519531 317.464844 563.910156 C 316.523438 564.300781 315.550781 564.597656 314.554688 564.796875 C 313.554688 564.996094 312.542969 565.09375 311.527344 565.09375 C 310.507812 565.09375 309.496094 564.996094 308.496094 564.796875 C 307.496094 564.597656 306.527344 564.300781 305.585938 563.910156 C 304.644531 563.519531 303.75 563.039062 302.902344 562.472656 C 302.054688 561.90625 301.269531 561.261719 300.550781 560.539062 C 299.832031 559.816406 299.1875 559.027344 298.621094 558.179688 C 298.054688 557.328125 297.578125 556.433594 297.1875 555.488281 C 296.796875 554.546875 296.5 553.574219 296.304688 552.570312 C 296.105469 551.570312 296.003906 550.558594 296.003906 549.535156 C 296.003906 548.511719 296.105469 547.5 296.304688 546.5 C 296.5 545.496094 296.796875 544.523438 297.1875 543.578125 C 297.578125 542.636719 298.054688 541.738281 298.621094 540.890625 C 299.1875 540.039062 299.832031 539.253906 300.550781 538.53125 C 301.269531 537.808594 302.054688 537.164062 302.902344 536.597656 C 303.75 536.03125 304.644531 535.550781 305.585938 535.160156 C 306.527344 534.769531 307.496094 534.472656 308.496094 534.273438 C 309.496094 534.074219 310.507812 533.976562 311.527344 533.976562 C 312.542969 533.976562 313.554688 534.074219 314.554688 534.273438 C 315.550781 534.472656 316.523438 534.769531 317.464844 535.160156 C 318.40625 535.550781 319.300781 536.03125 320.148438 536.597656 C 320.996094 537.164062 321.78125 537.808594 322.5 538.53125 C 323.21875 539.253906 323.863281 540.039062 324.429688 540.890625 C 324.996094 541.738281 325.472656 542.636719 325.863281 543.578125 C 326.253906 544.523438 326.550781 545.496094 326.746094 546.5 C 326.945312 547.5 327.046875 548.511719 327.046875 549.535156 Z M 327.046875 549.535156 " fill-opacity="1" fill-rule="nonzero"/></svg>