<svg xmlns="http://www.w3.org/2000/svg" xmlns:xlink="http://www.w3.org/1999/xlink" width="1080" zoomAndPan="magnify" viewBox="0 0 810 809.999993" height="1080" preserveAspectRatio="xMidYMid meet" version="1.0"><defs><clipPath id="14728fcd87"><path d="M 150 103.691406 L 660 103.691406 L 660 359 L 150 359 Z M 150 103.691406 " clip-rule="nonzero"/></clipPath><clipPath id="862f705a9d"><path d="M 684 394 L 720.582031 394 L 720.582031 491 L 684 491 Z M 684 394 " clip-rule="nonzero"/></clipPath><clipPath id="0037023f60"><path d="M 89.082031 394 L 125 394 L 125 491 L 89.082031 491 Z M 89.082031 394 " clip-rule="nonzero"/></clipPath></defs><path fill="#000000" d="M 278.199219 517.054688 L 265.828125 546.074219 L 298.929688 531.96875 C 321.242188 545.0625 348.351562 552.746094 377.585938 552.746094 C 453.792969 552.746094 515.570312 500.597656 515.570312 436.269531 C 515.570312 371.941406 453.792969 319.792969 377.585938 319.792969 C 301.382812 319.792969 239.605469 371.941406 239.605469 436.269531 C 239.605469 467.640625 254.304688 496.113281 278.199219 517.054688 Z M 428.078125 419.773438 C 437.191406 419.773438 444.578125 427.160156 444.578125 436.269531 C 444.578125 445.378906 437.191406 452.765625 428.078125 452.765625 C 418.96875 452.765625 411.582031 445.378906 411.582031 436.269531 C 411.582031 427.160156 418.96875 419.773438 428.078125 419.773438 Z M 377.585938 419.773438 C 386.699219 419.773438 394.085938 427.160156 394.085938 436.269531 C 394.085938 445.378906 386.699219 452.765625 377.585938 452.765625 C 368.476562 452.765625 361.089844 445.378906 361.089844 436.269531 C 361.089844 427.160156 368.476562 419.773438 377.585938 419.773438 Z M 327.09375 419.773438 C 336.203125 419.773438 343.589844 427.160156 343.589844 436.269531 C 343.589844 445.378906 336.203125 452.765625 327.09375 452.765625 C 317.980469 452.765625 310.59375 445.378906 310.59375 436.269531 C 310.59375 427.160156 317.980469 419.773438 327.09375 419.773438 Z M 327.09375 419.773438 " fill-opacity="1" fill-rule="evenodd"/><path fill="#000000" d="M 326.28125 313.503906 C 350.058594 278.4375 394.804688 254.808594 446.097656 254.808594 C 522.304688 254.808594 584.078125 306.953125 584.078125 371.28125 C 584.078125 402.65625 569.378906 431.128906 545.484375 452.070312 L 557.855469 481.089844 L 525.304688 467.230469 C 528.148438 457.167969 529.601562 446.777344 529.601562 436.269531 C 529.601562 422.507812 527.109375 408.941406 522.265625 396.0625 C 500.285156 337.589844 437.652344 305.761719 377.585938 305.761719 C 360.355469 305.761719 342.914062 308.386719 326.28125 313.503906 Z M 326.28125 313.503906 " fill-opacity="1" fill-rule="evenodd"/><g clip-path="url(#14728fcd87)"><path fill="#000000" d="M 612.230469 358.261719 L 659.445312 358.261719 C 659.445312 217.640625 545.453125 103.648438 404.820312 103.648438 C 264.1875 103.648438 150.195312 217.640625 150.195312 358.261719 L 197.410156 358.261719 C 197.410156 243.714844 290.265625 150.859375 404.820312 150.859375 C 519.375 150.859375 612.230469 243.714844 612.230469 358.261719 Z M 612.230469 358.261719 " fill-opacity="1" fill-rule="evenodd"/></g><path fill="#000000" d="M 612.652344 356.5 L 659.019531 356.5 C 665.515625 356.5 670.828125 361.8125 670.828125 368.304688 L 670.828125 516.816406 C 670.828125 523.308594 665.511719 528.621094 659.019531 528.621094 L 612.652344 528.621094 C 606.160156 528.621094 600.847656 523.308594 600.847656 516.816406 L 600.847656 368.304688 C 600.847656 361.8125 606.160156 356.5 612.652344 356.5 Z M 612.652344 356.5 " fill-opacity="1" fill-rule="evenodd"/><g clip-path="url(#862f705a9d)"><path fill="#000000" d="M 684.863281 394.503906 L 699.554688 394.503906 C 711.117188 394.503906 720.574219 403.964844 720.574219 415.523438 L 720.574219 469.597656 C 720.574219 481.15625 711.117188 490.613281 699.554688 490.613281 L 684.863281 490.613281 Z M 684.863281 394.503906 " fill-opacity="1" fill-rule="evenodd"/></g><path fill="#000000" d="M 380.820312 634.410156 L 471.933594 615.652344 C 481.699219 613.640625 490.453125 621.445312 490.453125 628.527344 L 490.453125 690.703125 C 490.453125 697.785156 481.699219 705.589844 471.933594 703.578125 L 380.820312 684.820312 Z M 380.820312 634.410156 " fill-opacity="1" fill-rule="evenodd"/><path fill="#000000" d="M 208.800781 516.816406 L 208.800781 368.304688 C 208.800781 361.949219 203.710938 356.726562 197.410156 356.507812 L 150.191406 356.507812 C 143.898438 356.738281 138.820312 361.957031 138.820312 368.304688 L 138.820312 516.816406 C 138.820312 523.308594 144.132812 528.621094 150.628906 528.621094 L 196.996094 528.621094 C 203.488281 528.621094 208.800781 523.308594 208.800781 516.816406 Z M 208.800781 516.816406 " fill-opacity="1" fill-rule="evenodd"/><g clip-path="url(#0037023f60)"><path fill="#000000" d="M 124.789062 394.503906 L 110.09375 394.503906 C 98.535156 394.503906 89.074219 403.964844 89.074219 415.523438 L 89.074219 469.597656 C 89.074219 481.15625 98.535156 490.613281 110.09375 490.613281 L 124.789062 490.613281 Z M 124.789062 394.503906 " fill-opacity="1" fill-rule="evenodd"/></g><path fill="#000000" d="M 179.238281 511.132812 C 181.28125 514.628906 183.355469 518.105469 185.433594 521.582031 C 210.492188 563.566406 241.359375 595.589844 276.816406 617.242188 C 312.40625 638.972656 352.746094 650.328125 396.59375 650.894531 L 396.304688 675.355469 C 347.945312 674.730469 303.402344 662.175781 264.058594 638.152344 C 225.21875 614.4375 191.5625 579.617188 164.425781 534.148438 C 162.304688 530.601562 160.121094 527.074219 158.039062 523.507812 Z M 179.238281 511.132812 " fill-opacity="1" fill-rule="nonzero"/></svg>