<svg xmlns="http://www.w3.org/2000/svg" xmlns:xlink="http://www.w3.org/1999/xlink" width="1080" zoomAndPan="magnify" viewBox="0 0 810 809.999993" height="1080" preserveAspectRatio="xMidYMid meet" version="1.0"><defs><clipPath id="e18b2ab749"><path d="M 111 68 L 699 68 L 699 742.617188 L 111 742.617188 Z M 111 68 " clip-rule="nonzero"/></clipPath></defs><g clip-path="url(#e18b2ab749)"><path fill="#000000" d="M 398.980469 69.8125 C 402.722656 67.703125 407.292969 67.703125 411.035156 69.8125 L 692.707031 229.070312 C 696.550781 231.242188 698.929688 235.320312 698.929688 239.734375 L 698.929688 570.496094 C 698.929688 574.914062 696.550781 578.988281 692.707031 581.164062 L 411.035156 740.417969 C 407.265625 742.550781 402.648438 742.53125 398.894531 740.367188 L 117.21875 578.050781 C 113.425781 575.863281 111.085938 571.816406 111.085938 567.433594 L 111.085938 239.734375 C 111.085938 235.320312 113.464844 231.242188 117.308594 229.070312 Z M 135.582031 260.929688 L 266.25 336.230469 C 256.675781 356.164062 251.308594 378.484375 251.308594 402.054688 C 251.308594 425.621094 256.636719 447.96875 266.164062 467.933594 L 135.582031 545.863281 Z M 147.546875 567.25 L 392.761719 708.558594 L 392.761719 554.75 C 345.363281 551.1875 303.996094 526.03125 278.449219 489.128906 Z M 417.253906 554.652344 L 417.253906 708.757812 L 662.519531 570.085938 L 530.257812 489.234375 C 504.929688 525.761719 464.089844 550.753906 417.253906 554.652344 Z M 542.566406 468.042969 L 674.433594 548.652344 L 674.433594 260.929688 L 542.976562 336.683594 C 552.28125 356.515625 557.476562 378.679688 557.476562 402.054688 C 557.476562 425.664062 552.125 448.050781 542.566406 468.042969 Z M 521.664062 348.964844 C 528.9375 365.144531 532.980469 383.117188 532.980469 402.054688 C 532.980469 425.507812 526.71875 447.460938 515.78125 466.371094 C 495.554688 501.335938 459.390625 525.863281 417.253906 530.046875 L 417.253906 409.136719 Z M 530.828125 315.410156 L 661.972656 239.835938 L 417.253906 101.476562 L 417.253906 249.40625 C 464.554688 253.152344 505.582031 278.425781 530.828125 315.410156 Z M 392.761719 249.40625 L 392.761719 101.476562 L 148.042969 239.835938 L 278.589844 315.066406 C 304.210938 278.246094 345.585938 253.140625 392.761719 249.40625 Z M 299.910156 327.351562 C 323.398438 294.71875 361.808594 273.425781 405.007812 273.425781 C 448.296875 273.425781 486.398438 294.835938 509.53125 327.683594 L 405.007812 387.914062 Z M 287.550781 348.507812 C 280.011719 364.816406 275.800781 382.953125 275.800781 402.054688 C 275.800781 425.507812 282.066406 447.460938 293.003906 466.371094 C 313.421875 501.675781 350.097656 526.339844 392.761719 530.164062 L 392.761719 409.136719 Z M 287.550781 348.507812 " fill-opacity="1" fill-rule="evenodd"/></g></svg>