<svg xmlns="http://www.w3.org/2000/svg" xmlns:xlink="http://www.w3.org/1999/xlink" width="1080" zoomAndPan="magnify" viewBox="0 0 810 809.999993" height="1080" preserveAspectRatio="xMidYMid meet" version="1.0"><defs><clipPath id="08dc10fcc7"><path d="M 62.683594 62.683594 L 747.433594 62.683594 L 747.433594 747.433594 L 62.683594 747.433594 Z M 62.683594 62.683594 " clip-rule="nonzero"/></clipPath></defs><g clip-path="url(#08dc10fcc7)"><path fill="#000000" d="M 404.957031 62.617188 C 594.011719 62.617188 747.296875 215.867188 747.296875 404.957031 C 747.296875 517.660156 692.839844 617.613281 608.8125 679.984375 L 512.683594 655.90625 L 514.660156 636.265625 C 514.796875 635.546875 514.863281 634.832031 514.898438 634.117188 L 523.050781 553.773438 L 565.949219 592.683594 C 572.460938 599.300781 583.066406 599.367188 589.683594 592.886719 C 614.472656 568.507812 634.457031 539.28125 648.097656 506.75 C 661.226562 475.410156 668.492188 441.003906 668.492188 404.957031 C 668.492188 332.183594 638.992188 266.269531 591.285156 218.59375 C 543.578125 170.886719 477.695312 141.390625 404.921875 141.390625 C 332.152344 141.390625 266.234375 170.886719 218.5625 218.59375 C 170.851562 266.300781 141.355469 332.183594 141.355469 404.957031 C 141.355469 477.730469 170.851562 543.644531 218.5625 591.320312 C 266.269531 639.027344 332.152344 668.523438 404.921875 668.523438 C 422.210938 668.523438 439.195312 666.820312 455.699219 663.613281 C 463.476562 662.078125 471.179688 660.203125 478.683594 658.019531 L 477.867188 666.035156 C 476.5 674.558594 481.855469 682.847656 490.378906 684.996094 L 569.9375 704.945312 C 521.003906 731.953125 464.738281 747.332031 404.890625 747.332031 C 215.832031 747.332031 62.546875 594.082031 62.546875 404.992188 C 62.546875 215.933594 215.796875 62.652344 404.890625 62.652344 Z M 388.109375 233.941406 C 388.109375 224.664062 395.648438 217.09375 404.957031 217.09375 C 414.265625 217.09375 421.804688 224.628906 421.804688 233.941406 L 421.804688 404.957031 C 421.804688 413.074219 416.039062 419.859375 408.402344 421.429688 L 294.027344 452.050781 C 285.058594 454.4375 275.851562 449.117188 273.429688 440.148438 C 271.042969 431.179688 276.363281 421.972656 285.332031 419.550781 L 388.078125 392.03125 L 388.078125 233.90625 Z M 577.03125 557.457031 C 593.636719 538.734375 607.246094 517.253906 617.066406 493.824219 C 628.523438 466.507812 634.832031 436.5 634.832031 404.921875 C 634.832031 341.425781 609.085938 283.964844 567.515625 242.363281 C 525.914062 200.761719 468.417969 175.046875 404.957031 175.046875 C 341.460938 175.046875 284 200.792969 242.398438 242.363281 C 200.792969 283.964844 175.082031 341.460938 175.082031 404.921875 C 175.082031 468.417969 200.828125 525.878906 242.398438 567.484375 C 284 609.085938 341.496094 634.796875 404.957031 634.796875 C 420.167969 634.796875 435 633.332031 449.289062 630.570312 C 460.644531 628.351562 471.726562 625.285156 482.433594 621.464844 L 492.972656 517.355469 C 493.894531 508.148438 502.109375 501.394531 511.320312 502.28125 C 515.375 502.691406 518.921875 504.5 521.582031 507.15625 Z M 577.03125 557.457031 " fill-opacity="1" fill-rule="evenodd"/></g></svg>