 <svg xmlns="http://www.w3.org/2000/svg" xmlns:xlink="http://www.w3.org/1999/xlink" width="1080" zoomAndPan="magnify" viewBox="0 0 810 809.999993" height="1080" preserveAspectRatio="xMidYMid meet" version="1.0"><defs><clipPath id="8c1e29a9f1"><path d="M 286 244.417969 L 528 244.417969 L 528 485 L 286 485 Z M 286 244.417969 " clip-rule="nonzero"/></clipPath><clipPath id="3cfc18be04"><path d="M 434 415 L 567 415 L 567 565.179688 L 434 565.179688 Z M 434 415 " clip-rule="nonzero"/></clipPath></defs><g clip-path="url(#8c1e29a9f1)"><path fill="#ffde59" d="M 406.992188 244.570312 C 440.183594 244.570312 470.230469 258.011719 491.980469 279.75 C 513.730469 301.488281 527.179688 331.523438 527.179688 364.699219 C 527.179688 397.859375 513.730469 427.894531 491.980469 449.632812 C 470.230469 471.371094 440.183594 484.824219 406.992188 484.824219 C 373.800781 484.824219 343.761719 471.371094 322.011719 449.632812 C 300.253906 427.894531 286.804688 397.859375 286.804688 364.699219 C 286.804688 331.523438 300.253906 301.488281 322.011719 279.75 C 343.761719 258.011719 373.800781 244.570312 406.992188 244.570312 Z M 482.910156 288.820312 C 463.476562 269.40625 436.640625 257.386719 406.992188 257.386719 C 377.34375 257.386719 350.507812 269.40625 331.074219 288.820312 C 311.652344 308.230469 299.636719 335.066406 299.636719 364.699219 C 299.636719 394.332031 311.652344 421.152344 331.074219 440.566406 C 350.507812 459.988281 377.34375 472 406.992188 472 C 436.640625 472 463.476562 459.988281 482.910156 440.566406 C 502.332031 421.152344 514.347656 394.332031 514.347656 364.699219 C 514.347656 335.066406 502.332031 308.242188 482.910156 288.820312 " fill-opacity="1" fill-rule="nonzero"/></g><path fill="#ffde59" d="M 372.710938 474.921875 L 325.472656 556.699219 L 325.484375 556.707031 C 323.710938 559.777344 319.789062 560.824219 316.71875 559.054688 C 315.339844 558.253906 314.371094 557.027344 313.878906 555.628906 L 296.503906 512.871094 L 250.566406 519.292969 L 250.566406 519.316406 C 247.0625 519.800781 243.820312 517.359375 243.324219 513.851562 C 243.097656 512.222656 243.5 510.648438 244.355469 509.382812 L 300.015625 413.03125 L 299.996094 413.03125 C 301.765625 409.964844 305.691406 408.914062 308.757812 410.6875 C 309.953125 411.363281 310.839844 412.375 311.375 413.535156 C 317.460938 425.425781 325.699219 436.027344 335.585938 444.828125 C 345.480469 453.648438 357.003906 460.65625 369.621094 465.339844 L 369.628906 465.320312 C 372.945312 466.542969 374.644531 470.238281 373.410156 473.554688 C 373.222656 474.046875 372.988281 474.5 372.710938 474.921875 Z M 320.929688 538.964844 L 358.1875 474.46875 C 346.75 469.386719 336.253906 462.582031 327.058594 454.390625 C 318.769531 447 311.507812 438.488281 305.523438 429.078125 L 261.78125 504.8125 L 299.222656 499.574219 C 302.210938 498.9375 305.308594 500.511719 306.503906 503.433594 L 300.5625 505.84375 L 306.492188 503.445312 L 320.929688 538.964844 " fill-opacity="1" fill-rule="nonzero"/><g clip-path="url(#3cfc18be04)"><path fill="#ffde59" d="M 450.511719 476.683594 L 489.53125 544.246094 L 503.976562 508.703125 L 509.921875 511.113281 L 503.976562 508.703125 C 505.164062 505.769531 508.261719 504.207031 511.25 504.84375 L 548.691406 510.074219 L 504.925781 434.296875 C 498.40625 443.449219 490.640625 451.652344 481.878906 458.628906 C 472.476562 466.132812 461.921875 472.246094 450.511719 476.683594 Z M 490.550781 558.765625 L 485.007812 561.949219 L 435.898438 476.917969 C 435.515625 476.382812 435.207031 475.789062 435.003906 475.117188 C 433.941406 471.742188 435.816406 468.140625 439.203125 467.078125 L 441.121094 473.203125 L 439.214844 467.089844 C 451.964844 463.085938 463.691406 456.765625 473.90625 448.613281 C 484.113281 440.484375 492.785156 430.539062 499.445312 419.289062 C 499.992188 418.160156 500.867188 417.179688 502.03125 416.5 C 505.101562 414.730469 509.023438 415.78125 510.796875 418.847656 L 510.785156 418.859375 L 566.117188 514.652344 C 566.972656 515.917969 567.371094 517.484375 567.144531 519.121094 C 566.664062 522.621094 563.417969 525.070312 559.90625 524.574219 L 559.90625 524.566406 L 513.976562 518.140625 L 496.59375 560.898438 C 496.109375 562.289062 495.132812 563.523438 493.753906 564.316406 C 490.683594 566.085938 486.761719 565.035156 484.988281 561.96875 L 490.550781 558.765625 " fill-opacity="1" fill-rule="nonzero"/></g><path fill="#ffde59" d="M 412.5625 294.738281 L 435.671875 332.328125 L 478.75 342.710938 L 478.75 342.691406 C 482.199219 343.527344 484.308594 346.996094 483.484375 350.433594 C 483.195312 351.617188 482.597656 352.632812 481.804688 353.4375 L 453.375 386.796875 L 456.804688 430.984375 C 457.082031 434.511719 454.445312 437.589844 450.914062 437.867188 C 449.675781 437.960938 448.503906 437.703125 447.484375 437.179688 L 406.992188 420.472656 L 366.015625 437.386719 L 366.027344 437.40625 C 362.75 438.753906 358.992188 437.199219 357.644531 433.925781 C 357.199219 432.855469 357.066406 431.734375 357.210938 430.664062 L 360.609375 386.796875 L 331.878906 353.085938 L 336.738281 348.929688 L 331.855469 353.085938 C 329.5625 350.390625 329.878906 346.347656 332.578125 344.050781 C 333.515625 343.246094 334.617188 342.765625 335.75 342.589844 L 378.3125 332.328125 L 401.523438 294.554688 C 403.378906 291.535156 407.332031 290.601562 410.347656 292.441406 C 411.304688 293.039062 412.046875 293.832031 412.5625 294.738281 Z M 426.113281 341.273438 L 406.992188 310.15625 L 387.960938 341.117188 C 387.117188 342.589844 385.683594 343.722656 383.902344 344.152344 L 383.902344 344.132812 L 348.355469 352.695312 L 371.773438 380.167969 C 373.027344 381.445312 373.75 383.234375 373.605469 385.160156 L 373.59375 385.160156 L 370.761719 421.597656 L 404.078125 407.84375 C 405.683594 407.023438 407.640625 406.886719 409.441406 407.628906 L 409.433594 407.648438 L 443.21875 421.597656 L 440.410156 385.457031 C 440.203125 383.738281 440.675781 381.929688 441.890625 380.507812 L 446.78125 384.664062 L 441.914062 380.507812 L 465.628906 352.695312 L 430.585938 344.246094 C 428.792969 343.96875 427.132812 342.9375 426.113281 341.273438 " fill-opacity="1" fill-rule="nonzero"/></svg>