<svg xmlns="http://www.w3.org/2000/svg" xmlns:xlink="http://www.w3.org/1999/xlink" width="1080" zoomAndPan="magnify" viewBox="0 0 810 809.999993" height="1080" preserveAspectRatio="xMidYMid meet" version="1.0"><path fill="#f4b822" d="M 567 404.964844 C 567 447.902344 549.9375 489.164062 519.585938 519.515625 C 489.234375 549.867188 447.972656 566.929688 405.035156 566.929688 C 315.519531 567 243 494.480469 243 404.964844 C 243 315.449219 315.519531 243 404.964844 243 C 447.972656 243 489.164062 260.0625 519.515625 290.414062 C 549.9375 320.835938 567 362.027344 567 404.964844 Z M 567 404.964844 " fill-opacity="1" fill-rule="nonzero"/><path fill="#934f04" d="M 559.726562 404.964844 C 559.726562 446.015625 543.433594 485.316406 514.410156 514.339844 C 485.386719 543.363281 446.015625 559.65625 405.035156 559.65625 C 319.578125 559.65625 250.34375 490.421875 250.34375 404.964844 C 250.34375 319.507812 319.578125 250.273438 405.035156 250.273438 C 446.085938 250.273438 485.386719 266.566406 514.410156 295.589844 C 543.433594 324.613281 559.726562 363.984375 559.726562 404.964844 Z M 559.726562 404.964844 " fill-opacity="1" fill-rule="nonzero"/><path fill="#a65905" d="M 459.371094 260.34375 L 260.273438 459.441406 C 263.699219 468.464844 267.964844 477.136719 273 485.316406 L 485.316406 273 C 477.136719 267.964844 468.394531 263.769531 459.371094 260.34375 Z M 503.429688 285.730469 L 285.800781 503.359375 C 300.695312 521.332031 319.4375 535.738281 340.625 545.460938 L 545.460938 340.625 C 535.808594 319.367188 521.402344 300.625 503.429688 285.730469 C 504.128906 285.730469 504.757812 286.289062 504.757812 287.058594 C 504.757812 287.40625 504.621094 287.757812 504.410156 287.96875 C 504.128906 288.246094 503.851562 288.316406 503.5 288.316406 C 503.152344 288.316406 502.800781 288.175781 502.589844 287.96875 C 502.3125 287.6875 502.242188 287.40625 502.242188 287.058594 C 502.101562 286.289062 502.730469 285.730469 503.429688 285.730469 Z M 529.867188 336.429688 C 530.566406 336.429688 531.125 336.988281 531.125 337.6875 C 531.125 338.039062 530.984375 338.390625 530.773438 338.597656 C 530.566406 338.808594 530.214844 338.949219 529.867188 338.949219 C 529.515625 338.949219 529.167969 338.808594 528.957031 338.597656 C 528.746094 338.390625 528.605469 338.039062 528.605469 337.6875 C 528.605469 336.988281 529.167969 336.429688 529.867188 336.429688 Z M 529.867188 336.429688 " fill-opacity="1" fill-rule="nonzero"/><path fill="#a65c03" d="M 539.726562 404.964844 C 539.726562 440.699219 525.53125 474.96875 500.285156 500.214844 C 475.039062 525.460938 440.769531 539.65625 405.035156 539.65625 C 369.300781 539.65625 335.03125 525.460938 309.785156 500.214844 C 284.46875 474.96875 270.273438 440.699219 270.273438 404.964844 C 270.273438 330.625 330.625 270.273438 404.964844 270.273438 C 479.304688 270.273438 539.726562 330.625 539.726562 404.964844 Z M 539.726562 404.964844 " fill-opacity="1" fill-rule="nonzero"/><path fill="#b66503" d="M 443.707031 276.007812 L 276.078125 443.636719 C 278.945312 453.078125 282.792969 462.171875 287.617188 470.703125 L 470.84375 287.476562 C 462.238281 282.722656 453.148438 278.875 443.707031 276.007812 Z M 489.164062 299.996094 L 299.925781 489.234375 C 314.679688 507.558594 333.914062 521.683594 355.871094 530.285156 L 530.425781 355.800781 C 521.753906 333.914062 507.558594 314.679688 489.164062 299.996094 C 489.304688 299.996094 489.515625 300.136719 489.515625 300.34375 C 489.515625 300.484375 489.375 300.695312 489.164062 300.695312 C 489.09375 300.695312 489.023438 300.695312 488.953125 300.625 C 488.882812 300.554688 488.882812 300.484375 488.882812 300.414062 C 488.882812 300.34375 488.882812 300.273438 488.953125 300.207031 C 489.023438 299.996094 489.09375 299.996094 489.164062 299.996094 Z M 489.164062 299.996094 " fill-opacity="1" fill-rule="nonzero"/><path fill="#f4b822" d="M 534.621094 404.964844 C 534.621094 476.578125 476.578125 534.621094 404.964844 534.621094 C 370.558594 534.621094 337.621094 520.984375 313.28125 496.648438 C 289.015625 472.378906 275.378906 439.371094 275.378906 404.964844 C 275.378906 370.558594 289.015625 337.621094 313.351562 313.28125 C 337.6875 288.945312 370.628906 275.308594 405.035156 275.308594 C 476.578125 275.378906 534.621094 333.421875 534.621094 404.964844 Z M 534.621094 404.964844 " fill-opacity="1" fill-rule="nonzero"/><path fill="#f5c13d" d="M 439.582031 280.203125 L 280.132812 439.652344 C 282.792969 449.164062 286.566406 458.324219 291.394531 466.996094 L 467.136719 291.253906 C 458.394531 286.5 449.164062 282.792969 439.582031 280.203125 Z M 485.527344 303.632812 L 303.492188 485.667969 C 318.179688 504.058594 337.6875 518.1875 359.789062 526.367188 L 526.367188 359.789062 C 518.117188 337.621094 503.992188 318.246094 485.527344 303.632812 Z M 485.527344 303.632812 " fill-opacity="1" fill-rule="nonzero"/><path fill="#8e4f05" d="M 425.734375 357.898438 C 427.625 362.445312 428.8125 366.152344 429.300781 371.1875 L 457.835938 371.1875 L 447.273438 391.957031 L 429.929688 391.957031 C 427.414062 415.453125 416.292969 428.953125 386.433594 428.953125 L 385.941406 428.953125 L 440.910156 490.351562 L 404.753906 490.351562 L 349.507812 428.953125 L 349.507812 406.152344 L 381.605469 406.152344 C 388.878906 406.152344 394.054688 405.035156 397.132812 402.867188 C 400.347656 400.558594 402.378906 396.921875 403.214844 391.957031 L 349.507812 391.957031 L 358.878906 371.257812 L 403.214844 371.257812 C 402.515625 366.222656 400.558594 363.632812 397.34375 361.464844 C 394.265625 359.160156 389.019531 357.96875 381.539062 357.96875 L 349.4375 357.96875 L 358.808594 337.128906 L 460.492188 337.128906 L 447.203125 357.96875 L 425.734375 357.96875 Z M 425.734375 357.898438 " fill-opacity="1" fill-rule="nonzero"/></svg>