<svg xmlns="http://www.w3.org/2000/svg" xmlns:xlink="http://www.w3.org/1999/xlink" width="1080" zoomAndPan="magnify" viewBox="0 0 810 809.999993" height="1080" preserveAspectRatio="xMidYMid meet" version="1.0"><defs><clipPath id="c9d2e55b1e"><path d="M 423 356 L 656 356 L 656 677.953125 L 423 677.953125 Z M 423 356 " clip-rule="nonzero"/></clipPath><clipPath id="9ba599f1fc"><path d="M 109 131.953125 L 701 131.953125 L 701 558 L 109 558 Z M 109 131.953125 " clip-rule="nonzero"/></clipPath></defs><g clip-path="url(#c9d2e55b1e)"><path fill="#000000" d="M 425.660156 646.515625 C 427.972656 648.828125 431.671875 650.214844 434.90625 649.289062 L 476.964844 638.65625 L 502.847656 673.792969 C 504.695312 676.105469 507.46875 677.492188 510.242188 677.492188 C 510.703125 677.492188 511.164062 677.492188 511.628906 677.492188 C 514.863281 677.03125 517.636719 674.71875 519.023438 671.480469 L 529.191406 641.894531 L 519.484375 613.691406 L 507.46875 648.828125 L 488.519531 622.476562 C 486.667969 620.164062 483.898438 618.777344 481.125 618.777344 C 480.199219 618.777344 479.738281 618.777344 478.8125 619.238281 L 447.847656 627.097656 L 475.578125 547.578125 C 476.5 548.042969 477.886719 548.503906 478.351562 549.429688 C 480.660156 551.277344 482.972656 554.050781 485.746094 557.289062 C 490.367188 563.300781 495.914062 570.234375 504.695312 573.007812 C 511.628906 575.320312 518.558594 573.933594 525.03125 572.546875 L 559.695312 671.945312 C 560.617188 675.179688 563.855469 677.492188 567.089844 677.953125 C 567.550781 677.953125 568.011719 677.953125 568.476562 677.953125 C 571.25 677.953125 574.023438 676.566406 575.871094 674.253906 L 601.753906 639.121094 L 643.8125 649.753906 C 647.046875 650.675781 650.742188 649.753906 653.054688 646.980469 C 655.363281 644.203125 656.289062 640.96875 654.902344 637.734375 L 627.171875 557.75 L 626.710938 556.828125 L 621.164062 540.183594 C 624.859375 538.332031 628.558594 535.558594 631.792969 531.398438 C 636.878906 524.464844 637.339844 515.679688 637.800781 508.28125 C 637.800781 504.121094 638.265625 499.960938 639.1875 497.1875 C 640.113281 494.414062 641.960938 491.175781 644.273438 487.941406 C 648.433594 481.46875 653.515625 474.070312 653.515625 465.289062 C 653.515625 456.503906 648.894531 448.644531 644.273438 442.632812 C 641.960938 439.398438 640.113281 436.160156 639.1875 433.386719 C 638.265625 430.613281 638.265625 426.453125 637.800781 422.292969 C 637.339844 414.894531 636.878906 406.109375 631.792969 399.175781 C 626.710938 391.777344 618.390625 389.003906 611.457031 386.230469 C 607.761719 384.84375 604.0625 383.457031 601.289062 381.605469 C 598.980469 379.757812 596.667969 376.984375 593.894531 373.746094 C 589.273438 367.738281 583.726562 360.804688 574.945312 358.027344 C 566.625 355.253906 558.308594 357.566406 551.375 359.414062 C 547.214844 360.339844 543.519531 361.726562 540.28125 361.726562 C 537.046875 361.726562 533.351562 360.804688 529.191406 359.414062 C 521.796875 357.566406 513.476562 355.253906 505.617188 358.027344 C 496.835938 360.804688 491.753906 367.738281 486.667969 373.746094 C 483.898438 376.984375 481.585938 380.21875 479.273438 381.605469 C 476.964844 383.457031 473.265625 384.84375 469.105469 386.230469 C 462.175781 389.003906 453.855469 391.777344 448.769531 399.175781 C 443.6875 406.109375 443.226562 414.894531 442.761719 422.292969 C 442.761719 426.453125 442.300781 430.613281 441.375 433.386719 C 440.453125 436.160156 438.601562 439.398438 436.292969 442.632812 C 432.132812 449.105469 427.046875 456.503906 427.046875 465.289062 C 427.046875 474.070312 431.671875 481.929688 436.292969 487.941406 C 438.601562 491.175781 440.453125 494.414062 441.375 497.1875 C 442.300781 499.960938 442.300781 504.121094 442.761719 508.28125 C 443.226562 515.679688 443.6875 524.464844 448.769531 531.398438 C 451.542969 535.097656 455.242188 537.871094 459.402344 540.183594 L 453.855469 556.363281 L 451.542969 557.289062 L 423.8125 637.269531 C 422.890625 640.507812 423.351562 643.742188 425.660156 646.515625 Z M 630.871094 627.097656 L 599.902344 619.238281 C 596.207031 618.316406 592.507812 619.703125 590.199219 622.9375 L 571.25 649.289062 L 543.519531 570.234375 C 545.828125 570.695312 548.140625 571.160156 550.449219 572.082031 C 555.535156 573.46875 560.617188 574.855469 566.164062 574.855469 C 568.9375 574.855469 571.710938 574.394531 574.484375 573.46875 C 583.265625 570.695312 588.347656 563.761719 593.433594 557.75 C 596.207031 554.515625 598.515625 551.277344 600.828125 549.890625 C 601.753906 549.429688 602.675781 548.503906 603.601562 548.042969 Z M 457.550781 491.175781 C 455.703125 486.089844 452.929688 481.46875 450.15625 477.308594 C 446.921875 472.683594 444.148438 468.0625 444.148438 464.824219 C 444.148438 461.589844 446.921875 456.964844 450.15625 452.34375 C 452.929688 448.179688 455.703125 443.558594 457.550781 438.472656 C 459.402344 433.386719 459.402344 427.839844 459.863281 422.753906 C 460.324219 417.207031 460.324219 412.121094 462.175781 409.347656 C 464.023438 406.574219 469.105469 404.722656 474.191406 402.875 C 479.273438 401.023438 483.898438 399.175781 488.519531 395.9375 C 493.140625 392.703125 496.375 388.542969 499.609375 384.382812 C 502.847656 380.21875 506.542969 376.058594 509.777344 374.671875 C 513.015625 373.746094 518.097656 375.132812 523.183594 376.523438 C 528.265625 377.910156 533.8125 379.296875 539.359375 379.296875 C 544.902344 379.296875 550.449219 377.910156 555.535156 376.523438 C 560.617188 375.132812 565.703125 373.746094 568.9375 374.671875 C 572.171875 375.597656 575.40625 379.757812 579.105469 384.382812 C 582.339844 388.542969 585.574219 392.703125 590.199219 395.9375 C 594.820312 399.175781 599.902344 401.023438 604.523438 402.875 C 609.609375 404.722656 614.691406 406.574219 616.542969 409.347656 C 618.390625 412.121094 618.851562 417.207031 618.851562 422.753906 C 619.316406 427.839844 619.316406 433.386719 621.164062 438.933594 C 623.011719 444.019531 625.785156 448.644531 628.558594 452.804688 C 631.792969 457.425781 634.566406 462.050781 634.566406 465.289062 C 634.566406 468.523438 631.792969 473.148438 628.558594 477.769531 C 625.785156 481.929688 623.011719 486.554688 621.164062 491.640625 C 619.316406 496.726562 619.316406 502.273438 618.851562 507.359375 C 618.390625 512.90625 618.390625 517.992188 616.542969 520.765625 C 614.691406 523.539062 609.609375 525.390625 604.523438 527.238281 C 599.441406 529.085938 594.820312 530.9375 590.199219 534.171875 C 585.574219 537.410156 582.339844 541.570312 579.105469 545.730469 C 575.871094 549.890625 572.171875 554.050781 568.9375 555.441406 C 565.703125 556.363281 560.617188 554.976562 555.535156 553.589844 C 550.449219 552.203125 544.902344 550.816406 539.359375 550.816406 C 533.8125 550.816406 528.265625 552.203125 523.183594 553.589844 C 518.097656 554.976562 513.015625 556.363281 509.777344 555.441406 C 506.542969 554.515625 503.308594 550.355469 499.609375 545.730469 C 496.375 541.570312 493.140625 537.410156 488.519531 534.171875 C 483.898438 530.9375 478.8125 529.085938 474.191406 527.238281 C 469.105469 525.390625 464.023438 523.539062 462.175781 520.765625 C 460.324219 517.992188 459.863281 512.90625 459.863281 507.359375 C 459.402344 501.808594 459.402344 496.726562 457.550781 491.175781 Z M 457.550781 491.175781 " fill-opacity="1" fill-rule="nonzero"/></g><path fill="#000000" d="M 538.894531 529.550781 C 574.484375 529.550781 603.601562 500.421875 603.601562 464.824219 C 603.601562 429.226562 574.484375 400.101562 538.894531 400.101562 C 503.308594 400.101562 474.191406 429.226562 474.191406 464.824219 C 474.191406 500.421875 503.308594 529.550781 538.894531 529.550781 Z M 538.894531 418.59375 C 564.316406 418.59375 585.113281 439.398438 585.113281 464.824219 C 585.113281 490.253906 564.316406 511.058594 538.894531 511.058594 C 513.476562 511.058594 492.679688 490.253906 492.679688 464.824219 C 492.679688 439.398438 513.476562 418.59375 538.894531 418.59375 Z M 538.894531 418.59375 " fill-opacity="1" fill-rule="nonzero"/><path fill="#000000" d="M 284.699219 242.910156 C 279.613281 242.910156 275.453125 247.070312 275.453125 252.15625 C 275.453125 257.242188 279.613281 261.402344 284.699219 261.402344 L 525.03125 261.402344 C 530.113281 261.402344 534.273438 257.242188 534.273438 252.15625 C 534.273438 247.070312 530.113281 242.910156 525.03125 242.910156 Z M 284.699219 242.910156 " fill-opacity="1" fill-rule="nonzero"/><path fill="#000000" d="M 522.71875 298.390625 C 522.71875 293.304688 518.558594 289.144531 513.476562 289.144531 L 296.25 289.144531 C 291.167969 289.144531 287.007812 293.304688 287.007812 298.390625 C 287.007812 303.476562 291.167969 307.636719 296.25 307.636719 L 513.476562 307.636719 C 518.558594 307.636719 522.71875 303.476562 522.71875 298.390625 Z M 522.71875 298.390625 " fill-opacity="1" fill-rule="nonzero"/><path fill="#000000" d="M 173.773438 229.042969 C 191.800781 229.042969 206.125 214.710938 206.125 196.679688 C 206.125 178.648438 191.800781 164.316406 173.773438 164.316406 C 155.75 164.316406 141.421875 178.648438 141.421875 196.679688 C 141.421875 214.710938 155.75 229.042969 173.773438 229.042969 Z M 173.773438 182.808594 C 181.632812 182.808594 187.640625 188.820312 187.640625 196.679688 C 187.640625 204.539062 181.632812 210.546875 173.773438 210.546875 C 165.917969 210.546875 159.910156 204.539062 159.910156 196.679688 C 159.910156 188.820312 165.917969 182.808594 173.773438 182.808594 Z M 173.773438 182.808594 " fill-opacity="1" fill-rule="nonzero"/><path fill="#000000" d="M 173.773438 520.304688 C 191.800781 520.304688 206.125 505.972656 206.125 487.941406 C 206.125 469.910156 191.800781 455.578125 173.773438 455.578125 C 155.75 455.578125 141.421875 469.910156 141.421875 487.941406 C 141.421875 505.972656 155.75 520.304688 173.773438 520.304688 Z M 173.773438 474.070312 C 181.632812 474.070312 187.640625 480.082031 187.640625 487.941406 C 187.640625 495.800781 181.632812 501.808594 173.773438 501.808594 C 165.917969 501.808594 159.910156 495.800781 159.910156 487.941406 C 159.910156 480.082031 165.917969 474.070312 173.773438 474.070312 Z M 173.773438 474.070312 " fill-opacity="1" fill-rule="nonzero"/><path fill="#000000" d="M 668.304688 196.679688 C 668.304688 178.648438 653.980469 164.316406 635.953125 164.316406 C 617.929688 164.316406 603.601562 178.648438 603.601562 196.679688 C 603.601562 214.710938 617.929688 229.042969 635.953125 229.042969 C 653.980469 229.042969 668.304688 214.710938 668.304688 196.679688 Z M 622.089844 196.679688 C 622.089844 188.820312 628.097656 182.808594 635.953125 182.808594 C 643.8125 182.808594 649.820312 188.820312 649.820312 196.679688 C 649.820312 204.539062 643.8125 210.546875 635.953125 210.546875 C 628.097656 210.546875 622.089844 204.539062 622.089844 196.679688 Z M 622.089844 196.679688 " fill-opacity="1" fill-rule="nonzero"/><g clip-path="url(#9ba599f1fc)"><path fill="#000000" d="M 672.929688 131.953125 L 136.800781 131.953125 C 121.546875 131.953125 109.070312 144.4375 109.070312 159.695312 L 109.070312 529.550781 C 109.070312 544.804688 121.546875 557.289062 136.800781 557.289062 L 432.132812 557.289062 L 435.828125 546.191406 C 434.445312 544.804688 433.058594 543.417969 432.132812 542.03125 C 431.207031 541.109375 430.746094 539.71875 430.285156 538.796875 L 136.800781 538.796875 C 131.714844 538.796875 127.554688 534.636719 127.554688 529.550781 L 127.554688 159.695312 C 127.554688 154.609375 131.714844 150.445312 136.800781 150.445312 L 672.929688 150.445312 C 678.011719 150.445312 682.171875 154.609375 682.171875 159.695312 L 682.171875 529.550781 C 682.171875 534.636719 678.011719 538.796875 672.929688 538.796875 L 647.507812 538.796875 C 647.046875 540.183594 646.121094 541.109375 645.195312 542.496094 C 644.273438 543.882812 642.886719 545.269531 641.5 546.65625 L 645.195312 557.75 L 672.464844 557.75 C 687.71875 557.75 700.195312 545.269531 700.195312 530.011719 L 700.195312 159.695312 C 700.660156 144.4375 688.179688 131.953125 672.929688 131.953125 Z M 672.929688 131.953125 " fill-opacity="1" fill-rule="nonzero"/></g><path fill="#000000" d="M 224.613281 485.167969 C 224.613281 485.167969 224.613281 485.628906 224.613281 485.628906 C 224.613281 485.628906 224.613281 486.089844 224.613281 486.089844 C 224.613281 486.554688 224.613281 486.554688 224.613281 487.015625 C 224.613281 487.476562 224.613281 487.476562 224.613281 487.941406 C 224.613281 488.402344 224.613281 488.402344 225.078125 488.867188 C 225.078125 489.328125 225.078125 489.328125 225.539062 489.789062 C 225.539062 490.253906 226 490.253906 226 490.714844 C 226 491.175781 226.460938 491.175781 226.460938 491.640625 C 226.460938 492.101562 226.925781 492.101562 226.925781 492.5625 C 226.925781 492.5625 227.386719 493.027344 227.386719 493.027344 C 227.386719 493.027344 227.847656 493.488281 228.3125 493.488281 C 228.3125 493.488281 228.773438 493.949219 229.234375 493.949219 C 229.699219 493.949219 229.699219 494.414062 230.160156 494.414062 C 230.621094 494.414062 230.621094 494.875 231.085938 494.875 C 231.546875 494.875 231.546875 494.875 232.007812 495.335938 C 232.472656 495.335938 232.472656 495.335938 232.933594 495.335938 C 232.933594 495.335938 233.394531 495.335938 233.394531 495.335938 C 233.859375 495.335938 234.320312 495.335938 234.320312 495.335938 L 419.191406 495.335938 C 418.265625 493.949219 417.804688 492.5625 416.878906 491.175781 C 414.109375 486.554688 411.335938 481.929688 409.484375 476.84375 L 242.640625 476.84375 C 239.402344 447.257812 216.757812 424.140625 187.640625 419.980469 L 187.640625 265.101562 C 216.757812 260.941406 239.402344 237.363281 242.640625 208.238281 L 567.089844 208.238281 C 570.324219 237.824219 592.972656 260.941406 622.089844 265.101562 L 622.089844 371.4375 C 622.550781 371.4375 622.550781 371.898438 623.011719 371.898438 C 629.019531 374.671875 635.492188 377.445312 640.574219 382.070312 L 640.574219 256.78125 C 640.574219 251.695312 636.414062 247.535156 631.332031 247.535156 C 605.910156 247.535156 585.113281 226.730469 585.113281 201.300781 C 585.113281 200.839844 585.113281 200.378906 585.113281 199.914062 C 585.113281 199.914062 585.113281 199.453125 585.113281 199.453125 C 585.113281 199.453125 585.113281 198.992188 585.113281 198.992188 C 585.113281 198.992188 585.113281 198.527344 585.113281 198.527344 C 585.113281 198.066406 585.113281 198.066406 585.113281 197.605469 C 585.113281 197.140625 585.113281 197.140625 585.113281 196.679688 C 585.113281 196.21875 585.113281 196.21875 584.652344 195.753906 C 584.652344 195.292969 584.652344 195.292969 584.191406 194.828125 C 584.191406 194.367188 583.726562 194.367188 583.726562 193.90625 C 583.726562 193.441406 583.265625 193.441406 583.265625 192.980469 C 583.265625 192.519531 582.804688 192.519531 582.804688 192.054688 C 582.804688 192.054688 582.339844 191.59375 582.339844 191.59375 C 582.339844 191.59375 581.878906 191.132812 581.417969 191.132812 C 581.417969 191.132812 580.953125 190.667969 580.492188 190.667969 C 580.03125 190.667969 580.03125 190.207031 579.566406 190.207031 C 579.105469 190.207031 579.105469 189.746094 578.644531 189.746094 C 578.179688 189.746094 578.179688 189.746094 577.71875 189.28125 C 577.257812 189.28125 577.257812 189.28125 576.792969 189.28125 C 576.792969 189.28125 576.332031 189.28125 576.332031 189.28125 C 576.332031 189.28125 575.871094 189.28125 575.871094 189.28125 C 575.871094 189.28125 575.410156 189.28125 575.410156 189.28125 L 233.859375 189.28125 C 233.859375 189.28125 233.394531 189.28125 233.394531 189.28125 C 233.394531 189.28125 232.933594 189.28125 232.933594 189.28125 C 232.933594 189.28125 232.472656 189.28125 232.472656 189.28125 C 232.007812 189.28125 232.007812 189.28125 231.546875 189.28125 C 231.085938 189.28125 231.085938 189.28125 230.621094 189.746094 C 230.160156 189.746094 230.160156 190.207031 229.699219 190.207031 C 229.234375 190.207031 229.234375 190.667969 228.773438 190.667969 C 228.3125 190.667969 228.3125 191.132812 227.847656 191.132812 C 227.386719 191.132812 227.386719 191.59375 226.925781 191.59375 C 226.925781 191.59375 226.460938 192.054688 226.460938 192.054688 C 226.460938 192.054688 226 192.519531 226 192.980469 C 226 193.441406 225.539062 193.441406 225.539062 193.90625 C 225.539062 194.367188 225.078125 194.367188 225.078125 194.828125 C 225.078125 195.292969 225.078125 195.292969 224.613281 195.753906 C 224.613281 196.21875 224.613281 196.21875 224.152344 196.679688 C 224.152344 197.140625 224.152344 197.140625 224.152344 197.605469 C 224.152344 198.066406 224.152344 198.066406 224.152344 198.527344 C 224.152344 198.527344 224.152344 198.992188 224.152344 198.992188 C 224.152344 198.992188 224.152344 199.453125 224.152344 199.453125 C 224.152344 199.453125 224.152344 199.914062 224.152344 199.914062 C 224.152344 200.378906 224.152344 200.839844 224.152344 201.300781 C 224.152344 226.730469 203.355469 247.535156 177.933594 247.535156 C 172.851562 247.535156 168.691406 251.695312 168.691406 256.78125 L 168.691406 427.839844 C 168.691406 432.925781 172.851562 437.085938 177.933594 437.085938 C 203.355469 437.085938 224.152344 457.890625 224.152344 483.316406 C 224.152344 483.78125 224.152344 484.242188 224.152344 484.703125 C 224.613281 484.703125 224.613281 484.703125 224.613281 485.167969 Z M 224.613281 485.167969 " fill-opacity="1" fill-rule="nonzero"/></svg>