<svg xmlns="http://www.w3.org/2000/svg" xmlns:xlink="http://www.w3.org/1999/xlink" width="1080" zoomAndPan="magnify" viewBox="0 0 810 809.999993" height="1080" preserveAspectRatio="xMidYMid meet" version="1.0"><path fill="#ffde59" d="M 565.902344 400.761719 L 523.175781 373.574219 L 546.578125 328.644531 C 546.917969 327.984375 547.132812 327.242188 547.164062 326.449219 C 547.285156 323.554688 545.042969 321.109375 542.148438 320.984375 L 491.550781 318.808594 L 489.378906 268.570312 C 489.402344 267.703125 489.214844 266.832031 488.792969 266.007812 C 487.453125 263.429688 484.28125 262.425781 481.703125 263.765625 L 436.773438 287.183594 L 409.644531 244.53125 C 409.246094 243.878906 408.691406 243.296875 407.996094 242.859375 C 405.558594 241.300781 402.320312 242.015625 400.761719 244.457031 L 373.574219 287.183594 L 328.644531 263.78125 C 327.984375 263.4375 327.242188 263.226562 326.449219 263.191406 C 323.554688 263.070312 321.109375 265.3125 320.984375 268.210938 L 318.800781 318.808594 L 268.558594 320.976562 C 267.695312 320.953125 266.824219 321.140625 266 321.566406 C 263.421875 322.902344 262.417969 326.074219 263.757812 328.652344 L 287.175781 373.582031 L 244.53125 400.722656 C 243.878906 401.121094 243.296875 401.675781 242.859375 402.367188 C 241.300781 404.808594 242.015625 408.046875 244.457031 409.605469 L 287.183594 436.792969 L 263.78125 481.71875 C 263.4375 482.382812 263.226562 483.125 263.191406 483.914062 C 263.070312 486.808594 265.3125 489.257812 268.210938 489.378906 L 318.808594 491.558594 L 320.976562 541.796875 C 320.953125 542.660156 321.140625 543.535156 321.566406 544.359375 C 322.902344 546.9375 326.074219 547.9375 328.652344 546.601562 L 373.582031 523.183594 L 400.722656 565.835938 C 401.121094 566.488281 401.675781 567.066406 402.367188 567.507812 C 404.808594 569.066406 408.046875 568.347656 409.605469 565.910156 L 436.792969 523.183594 L 481.71875 546.585938 C 482.382812 546.929688 483.125 547.140625 483.914062 547.171875 C 486.808594 547.296875 489.257812 545.050781 489.378906 542.15625 L 491.566406 491.558594 L 541.804688 489.386719 C 542.667969 489.414062 543.542969 489.226562 544.367188 488.800781 C 546.945312 487.464844 547.949219 484.289062 546.609375 481.710938 L 523.191406 436.785156 L 565.84375 409.644531 C 566.496094 409.246094 567.074219 408.691406 567.515625 407.996094 C 569.058594 405.558594 568.339844 402.320312 565.902344 400.761719 Z M 513.476562 430.535156 C 511.167969 432.003906 510.402344 434.988281 511.640625 437.371094 L 511.625 437.378906 L 533.445312 479.25 L 486.289062 481.28125 C 483.546875 481.394531 481.386719 483.605469 481.273438 486.296875 L 479.242188 533.453125 L 437.371094 511.632812 C 434.800781 510.292969 431.628906 511.289062 430.289062 513.859375 L 405.183594 553.332031 L 379.832031 513.484375 C 378.363281 511.175781 375.378906 510.410156 372.996094 511.648438 L 372.988281 511.632812 L 331.117188 533.453125 L 329.085938 486.296875 C 328.972656 483.554688 326.761719 481.394531 324.070312 481.28125 L 276.914062 479.25 L 298.734375 437.378906 C 300.070312 434.808594 299.074219 431.644531 296.507812 430.296875 L 257.042969 405.183594 L 296.890625 379.832031 C 299.199219 378.363281 299.964844 375.378906 298.726562 372.996094 L 298.742188 372.988281 L 276.914062 331.117188 L 324.070312 329.085938 C 326.808594 328.972656 328.972656 326.761719 329.085938 324.070312 L 331.117188 276.914062 L 372.988281 298.734375 C 375.554688 300.070312 378.730469 299.074219 380.066406 296.507812 L 405.183594 257.042969 L 430.535156 296.890625 C 432.003906 299.199219 434.988281 299.964844 437.371094 298.726562 L 437.378906 298.742188 L 479.25 276.921875 L 481.28125 324.078125 C 481.394531 326.816406 483.605469 328.980469 486.296875 329.09375 L 533.453125 331.125 L 511.632812 372.996094 C 510.292969 375.566406 511.289062 378.730469 513.859375 380.074219 L 553.324219 405.183594 Z M 459.199219 358.613281 L 358.605469 459.191406 C 356.550781 461.246094 353.222656 461.246094 351.167969 459.191406 C 349.109375 457.136719 349.109375 453.808594 351.167969 451.75 L 451.757812 351.175781 C 453.816406 349.121094 457.144531 349.121094 459.199219 351.175781 C 461.246094 353.222656 461.246094 356.558594 459.199219 358.613281 Z M 385.90625 379.488281 C 390.558594 374.839844 393.4375 368.417969 393.4375 361.332031 C 393.4375 354.242188 390.558594 347.8125 385.90625 343.171875 C 381.257812 338.523438 374.839844 335.652344 367.742188 335.652344 C 360.652344 335.652344 354.226562 338.53125 349.578125 343.171875 C 344.925781 347.824219 342.046875 354.242188 342.046875 361.332031 C 342.046875 368.417969 344.925781 374.847656 349.578125 379.488281 C 354.226562 384.136719 360.644531 387.007812 367.742188 387.007812 C 374.832031 387.015625 381.257812 384.136719 385.90625 379.488281 Z M 352.578125 361.332031 C 352.578125 357.144531 354.273438 353.351562 357.015625 350.613281 C 359.757812 347.871094 363.550781 346.175781 367.742188 346.175781 C 371.925781 346.175781 375.726562 347.871094 378.46875 350.613281 C 381.210938 353.351562 382.90625 357.144531 382.90625 361.332031 C 382.90625 365.515625 381.210938 369.308594 378.46875 372.050781 C 375.726562 374.789062 371.933594 376.488281 367.742188 376.488281 C 363.558594 376.488281 359.757812 374.789062 357.015625 372.050781 C 354.273438 369.308594 352.578125 365.515625 352.578125 361.332031 Z M 442.625 423.347656 C 435.535156 423.347656 429.105469 426.226562 424.457031 430.871094 C 419.808594 435.519531 416.929688 441.9375 416.929688 449.027344 C 416.929688 456.117188 419.808594 462.542969 424.457031 467.183594 C 429.105469 471.835938 435.527344 474.707031 442.625 474.707031 C 449.710938 474.707031 456.140625 471.824219 460.789062 467.183594 C 465.4375 462.535156 468.316406 456.117188 468.316406 449.027344 C 468.316406 441.9375 465.4375 435.511719 460.789062 430.871094 C 456.140625 426.226562 449.710938 423.347656 442.625 423.347656 Z M 453.351562 459.761719 C 450.609375 462.503906 446.816406 464.199219 442.625 464.199219 C 438.4375 464.199219 434.636719 462.503906 431.898438 459.761719 C 429.15625 457.019531 427.460938 453.226562 427.460938 449.042969 C 427.460938 444.859375 429.15625 441.066406 431.898438 438.324219 C 434.636719 435.585938 438.429688 433.886719 442.625 433.886719 C 446.808594 433.886719 450.609375 435.585938 453.351562 438.324219 C 456.089844 441.066406 457.789062 444.859375 457.789062 449.042969 C 457.789062 453.21875 456.089844 457.011719 453.351562 459.761719 Z M 453.351562 459.761719 " fill-opacity="1" fill-rule="nonzero"/></svg>