<svg xmlns="http://www.w3.org/2000/svg" xmlns:xlink="http://www.w3.org/1999/xlink" width="1080" zoomAndPan="magnify" viewBox="0 0 810 809.999993" height="1080" preserveAspectRatio="xMidYMid meet" version="1.0"><defs><clipPath id="ce8cf3188e"><path d="M 243 389 L 410 389 L 410 515.488281 L 243 515.488281 Z M 243 389 " clip-rule="nonzero"/></clipPath><clipPath id="11c7e8ff6e"><path d="M 407.398438 334.667969 L 505.648438 334.667969 L 505.648438 397.667969 L 407.398438 397.667969 Z M 407.398438 334.667969 " clip-rule="nonzero"/></clipPath><clipPath id="55e697a073"><path d="M 181.082031 173.925781 L 628.832031 173.925781 L 628.832031 621.675781 L 181.082031 621.675781 Z M 181.082031 173.925781 " clip-rule="nonzero"/></clipPath><clipPath id="2bad5cabdc"><path d="M 473.167969 445.550781 L 560.382812 445.550781 L 560.382812 627.410156 L 473.167969 627.410156 Z M 473.167969 445.550781 " clip-rule="nonzero"/></clipPath><clipPath id="1148216252"><path d="M 516.390625 453.472656 L 628.878906 453.472656 L 628.878906 636.050781 L 516.390625 636.050781 Z M 516.390625 453.472656 " clip-rule="nonzero"/></clipPath></defs><path fill="#040606" d="M 301.105469 333.046875 C 294.863281 333.046875 288.851562 335.519531 284.449219 339.945312 C 280.019531 344.371094 277.546875 350.347656 277.546875 356.613281 C 277.546875 362.851562 280.019531 368.828125 284.449219 373.253906 C 288.878906 377.679688 294.863281 380.152344 301.105469 380.152344 C 307.375 380.152344 313.355469 377.679688 317.785156 373.253906 C 322.214844 368.828125 324.691406 362.851562 324.691406 356.613281 C 324.691406 350.347656 322.214844 344.371094 317.785156 339.945312 C 313.355469 335.519531 307.375 333.046875 301.105469 333.046875 Z M 301.105469 391.933594 C 291.726562 391.933594 282.753906 388.199219 276.109375 381.589844 C 269.464844 374.949219 265.753906 365.984375 265.753906 356.613281 C 265.753906 347.214844 269.464844 338.25 276.109375 331.609375 C 282.753906 325 291.726562 321.261719 301.105469 321.261719 C 310.480469 321.261719 319.484375 325 326.128906 331.609375 C 332.746094 338.25 336.484375 347.214844 336.484375 356.613281 C 336.484375 365.984375 332.746094 374.949219 326.128906 381.589844 C 319.484375 388.199219 310.480469 391.933594 301.105469 391.933594 " fill-opacity="1" fill-rule="nonzero"/><g clip-path="url(#ce8cf3188e)"><path fill="#040606" d="M 271.648438 503.820312 L 330.585938 503.820312 L 330.585938 436.738281 C 330.585938 434.441406 331.9375 432.34375 334.039062 431.394531 C 336.167969 430.445312 338.640625 430.820312 340.367188 432.34375 L 354.804688 444.929688 L 396.542969 406.648438 C 397.117188 406.160156 397.464844 405.414062 397.492188 404.636719 C 397.578125 403.863281 397.292969 403.085938 396.714844 402.539062 C 396.167969 401.964844 395.449219 401.648438 394.644531 401.648438 C 393.867188 401.648438 393.121094 401.964844 392.601562 402.539062 L 364.355469 428.375 C 363.207031 429.441406 361.679688 429.984375 360.128906 429.929688 C 358.546875 429.84375 357.050781 429.152344 355.984375 427.972656 L 333.894531 403.71875 L 270.238281 403.71875 L 255.972656 453.410156 L 267.765625 458.726562 L 268.515625 459.070312 L 296.269531 471.488281 C 297.480469 472.03125 298.890625 471.832031 299.925781 471.027344 C 300.960938 470.191406 301.449219 468.84375 301.160156 467.550781 C 300.988281 466.601562 300.441406 465.796875 299.636719 465.25 L 275.246094 449.933594 C 273.921875 449.125 272.972656 447.804688 272.597656 446.28125 C 272.253906 444.730469 272.511719 443.148438 273.347656 441.828125 C 275.070312 439.039062 278.726562 438.207031 281.488281 439.929688 L 305.878906 455.304688 C 310.28125 458.09375 312.953125 462.921875 312.984375 468.125 C 313.011719 473.296875 310.394531 478.183594 306.050781 481.027344 C 301.707031 483.875 296.214844 484.332031 291.4375 482.207031 L 271.648438 473.382812 Z M 336.484375 515.601562 L 265.753906 515.601562 C 262.503906 515.601562 259.855469 512.957031 259.855469 509.710938 L 259.855469 468.066406 L 246.480469 462.203125 C 243.804688 460.996094 242.425781 458.007812 243.230469 455.191406 L 260.144531 396.304688 C 260.890625 393.6875 263.335938 391.933594 266.039062 392.050781 L 336.769531 392.050781 C 338.441406 392.050781 340.023438 392.769531 341.144531 394.003906 L 360.703125 415.5 L 384.289062 393.574219 C 387.167969 390.957031 390.992188 389.578125 394.902344 389.75 C 398.785156 389.894531 402.46875 391.617188 405.144531 394.464844 C 407.875 397.335938 409.34375 401.160156 409.226562 405.097656 C 409.113281 409.035156 407.472656 412.769531 404.625 415.5 L 359.007812 457.289062 C 356.761719 459.328125 353.339844 459.328125 351.097656 457.289062 L 342.378906 449.644531 L 342.378906 509.710938 C 342.378906 511.292969 341.746094 512.785156 340.65625 513.878906 C 339.53125 515 338.035156 515.601562 336.484375 515.601562 " fill-opacity="1" fill-rule="nonzero"/></g><path fill="#040606" d="M 354.804688 303.589844 L 555.207031 303.589844 L 555.207031 291.804688 L 354.804688 291.804688 Z M 561.101562 315.371094 L 348.910156 315.371094 C 345.660156 315.371094 343.011719 312.726562 343.011719 309.480469 L 343.011719 285.941406 C 343.011719 282.664062 345.660156 280.050781 348.910156 280.050781 L 561.101562 280.050781 C 562.65625 280.050781 564.152344 280.652344 565.273438 281.773438 C 566.367188 282.867188 567 284.359375 567 285.941406 L 567 309.480469 C 567 311.058594 566.367188 312.554688 565.273438 313.648438 C 564.152344 314.769531 562.65625 315.371094 561.101562 315.371094 " fill-opacity="1" fill-rule="nonzero"/><path fill="#040606" d="M 549.308594 439.039062 L 411.472656 439.039062 C 408.191406 439.039062 405.574219 436.394531 405.574219 433.148438 C 405.574219 429.898438 408.191406 427.257812 411.472656 427.257812 L 543.414062 427.257812 L 543.414062 315.371094 L 366.601562 315.371094 L 366.601562 389.40625 C 366.601562 392.652344 363.953125 395.296875 360.703125 395.296875 C 357.453125 395.296875 354.804688 392.652344 354.804688 389.40625 L 354.804688 309.480469 C 354.804688 306.230469 357.453125 303.589844 360.703125 303.589844 L 549.308594 303.589844 C 550.863281 303.589844 552.386719 304.21875 553.480469 305.3125 C 554.601562 306.433594 555.207031 307.929688 555.207031 309.480469 L 555.207031 433.148438 C 555.207031 434.726562 554.601562 436.222656 553.480469 437.316406 C 552.386719 438.4375 550.863281 439.039062 549.308594 439.039062 " fill-opacity="1" fill-rule="nonzero"/><path fill="#040606" d="M 454.992188 468.496094 C 451.742188 468.496094 449.125 465.855469 449.125 462.605469 L 449.125 433.148438 C 449.125 429.898438 451.742188 427.257812 454.992188 427.257812 C 458.269531 427.257812 460.917969 429.898438 460.917969 433.148438 L 460.917969 462.605469 C 460.917969 464.15625 460.285156 465.652344 459.164062 466.773438 C 458.070312 467.867188 456.574219 468.496094 454.992188 468.496094 " fill-opacity="1" fill-rule="nonzero"/><path fill="#040606" d="M 454.992188 468.496094 C 452.632812 468.496094 450.476562 469.933594 449.554688 472.117188 C 448.636719 474.332031 449.152344 476.859375 450.851562 478.554688 C 452.546875 480.222656 455.050781 480.742188 457.265625 479.820312 C 459.480469 478.902344 460.917969 476.773438 460.917969 474.390625 C 460.917969 472.808594 460.285156 471.3125 459.164062 470.222656 C 458.070312 469.101562 456.574219 468.496094 454.992188 468.496094 Z M 454.992188 492.035156 C 450.332031 492.035156 445.816406 490.195312 442.507812 486.863281 C 439.199219 483.558594 437.332031 479.074219 437.332031 474.390625 C 437.332031 469.703125 439.199219 465.191406 442.507812 461.886719 C 445.816406 458.582031 450.332031 456.714844 454.992188 456.714844 C 459.679688 456.714844 464.195312 458.582031 467.503906 461.886719 C 470.839844 465.191406 472.710938 469.703125 472.710938 474.390625 C 472.710938 479.074219 470.839844 483.558594 467.503906 486.863281 C 464.195312 490.195312 459.679688 492.035156 454.992188 492.035156 " fill-opacity="1" fill-rule="nonzero"/><g clip-path="url(#11c7e8ff6e)"><path fill="#000000" d="M 495.332031 334.710938 L 417.714844 334.710938 C 417.035156 334.710938 416.363281 334.773438 415.699219 334.90625 C 415.035156 335.039062 414.390625 335.234375 413.765625 335.492188 C 413.140625 335.75 412.542969 336.066406 411.980469 336.441406 C 411.417969 336.816406 410.898438 337.242188 410.417969 337.71875 C 409.9375 338.195312 409.511719 338.714844 409.136719 339.277344 C 408.757812 339.835938 408.441406 340.429688 408.183594 341.054688 C 407.921875 341.675781 407.726562 342.320312 407.59375 342.980469 C 407.460938 343.644531 407.398438 344.3125 407.398438 344.984375 L 407.398438 387.351562 C 407.398438 388.023438 407.460938 388.695312 407.59375 389.355469 C 407.726562 390.015625 407.921875 390.660156 408.183594 391.28125 C 408.441406 391.90625 408.757812 392.5 409.136719 393.058594 C 409.511719 393.621094 409.9375 394.140625 410.417969 394.617188 C 410.898438 395.09375 411.417969 395.519531 411.980469 395.894531 C 412.542969 396.269531 413.140625 396.585938 413.765625 396.84375 C 414.390625 397.101562 415.035156 397.296875 415.699219 397.429688 C 416.363281 397.5625 417.035156 397.625 417.714844 397.625 L 495.332031 397.625 C 496.007812 397.625 496.679688 397.5625 497.34375 397.429688 C 498.007812 397.296875 498.652344 397.101562 499.277344 396.84375 C 499.902344 396.585938 500.5 396.269531 501.0625 395.894531 C 501.625 395.519531 502.144531 395.09375 502.625 394.617188 C 503.105469 394.140625 503.53125 393.621094 503.90625 393.058594 C 504.285156 392.5 504.601562 391.90625 504.863281 391.28125 C 505.121094 390.660156 505.316406 390.015625 505.449219 389.355469 C 505.582031 388.695312 505.648438 388.023438 505.648438 387.351562 L 505.648438 344.984375 C 505.648438 344.3125 505.582031 343.644531 505.449219 342.980469 C 505.316406 342.320312 505.121094 341.675781 504.863281 341.054688 C 504.601562 340.429688 504.285156 339.835938 503.90625 339.277344 C 503.53125 338.714844 503.105469 338.195312 502.625 337.71875 C 502.144531 337.242188 501.625 336.816406 501.0625 336.441406 C 500.5 336.066406 499.902344 335.75 499.277344 335.492188 C 498.652344 335.234375 498.007812 335.039062 497.34375 334.90625 C 496.679688 334.773438 496.007812 334.710938 495.332031 334.710938 Z M 431.785156 381.269531 L 421.886719 381.269531 C 421.421875 381.269531 420.976562 381.179688 420.546875 381.003906 C 420.117188 380.824219 419.738281 380.574219 419.40625 380.246094 C 419.078125 379.917969 418.824219 379.539062 418.648438 379.109375 C 418.46875 378.683594 418.378906 378.238281 418.378906 377.773438 L 418.378906 354.773438 C 418.378906 354.308594 418.46875 353.863281 418.648438 353.433594 C 418.824219 353.007812 419.078125 352.628906 419.40625 352.300781 C 419.738281 351.972656 420.117188 351.722656 420.546875 351.542969 C 420.976562 351.367188 421.421875 351.277344 421.886719 351.277344 C 422.355469 351.277344 422.800781 351.367188 423.230469 351.542969 C 423.660156 351.722656 424.039062 351.972656 424.371094 352.300781 C 424.699219 352.628906 424.953125 353.007812 425.128906 353.433594 C 425.308594 353.863281 425.398438 354.308594 425.398438 354.773438 L 425.398438 374.277344 L 431.785156 374.277344 C 432.25 374.277344 432.695312 374.367188 433.125 374.542969 C 433.554688 374.722656 433.9375 374.972656 434.265625 375.300781 C 434.59375 375.628906 434.847656 376.007812 435.027344 376.433594 C 435.203125 376.863281 435.292969 377.308594 435.292969 377.773438 C 435.292969 378.238281 435.203125 378.683594 435.027344 379.109375 C 434.847656 379.539062 434.59375 379.917969 434.265625 380.246094 C 433.9375 380.574219 433.554688 380.824219 433.125 381.003906 C 432.695312 381.179688 432.25 381.269531 431.785156 381.269531 Z M 445.1875 377.773438 C 445.1875 378.238281 445.097656 378.683594 444.921875 379.109375 C 444.742188 379.539062 444.488281 379.917969 444.160156 380.246094 C 443.832031 380.574219 443.453125 380.824219 443.023438 381.003906 C 442.589844 381.179688 442.144531 381.269531 441.679688 381.269531 C 441.214844 381.269531 440.765625 381.179688 440.335938 381.003906 C 439.90625 380.824219 439.527344 380.574219 439.199219 380.246094 C 438.867188 379.917969 438.613281 379.539062 438.4375 379.109375 C 438.257812 378.683594 438.171875 378.238281 438.171875 377.773438 L 438.171875 354.773438 C 438.171875 354.308594 438.257812 353.863281 438.4375 353.433594 C 438.613281 353.007812 438.867188 352.628906 439.199219 352.300781 C 439.527344 351.972656 439.90625 351.722656 440.335938 351.542969 C 440.765625 351.367188 441.214844 351.277344 441.679688 351.277344 C 442.144531 351.277344 442.589844 351.367188 443.023438 351.542969 C 443.453125 351.722656 443.832031 351.972656 444.160156 352.300781 C 444.488281 352.628906 444.742188 353.007812 444.921875 353.433594 C 445.097656 353.863281 445.1875 354.308594 445.1875 354.773438 Z M 474.417969 355.890625 L 464.976562 378.890625 C 464.847656 379.210938 464.667969 379.507812 464.449219 379.773438 C 464.230469 380.042969 463.976562 380.273438 463.6875 380.46875 C 463.398438 380.660156 463.085938 380.808594 462.753906 380.90625 C 462.421875 381.007812 462.082031 381.058594 461.730469 381.058594 C 461.382812 381.058594 461.042969 381.007812 460.710938 380.90625 C 460.378906 380.808594 460.066406 380.660156 459.777344 380.46875 C 459.488281 380.273438 459.234375 380.042969 459.015625 379.773438 C 458.796875 379.507812 458.617188 379.210938 458.488281 378.890625 L 449.046875 355.890625 C 448.871094 355.464844 448.78125 355.015625 448.785156 354.554688 C 448.785156 354.089844 448.875 353.644531 449.054688 353.214844 C 449.234375 352.789062 449.488281 352.410156 449.820312 352.085938 C 450.148438 351.757812 450.53125 351.507812 450.960938 351.332031 C 451.390625 351.152344 451.839844 351.066406 452.304688 351.066406 C 452.769531 351.070312 453.214844 351.160156 453.644531 351.339844 C 454.074219 351.515625 454.453125 351.769531 454.78125 352.097656 C 455.109375 352.425781 455.363281 352.804688 455.539062 353.234375 L 461.714844 368.300781 L 467.890625 353.234375 C 468.066406 352.804688 468.320312 352.425781 468.648438 352.097656 C 468.976562 351.769531 469.355469 351.515625 469.785156 351.335938 C 470.214844 351.15625 470.660156 351.066406 471.125 351.066406 C 471.59375 351.0625 472.039062 351.152344 472.472656 351.328125 C 472.902344 351.503906 473.28125 351.753906 473.613281 352.082031 C 473.941406 352.410156 474.195312 352.785156 474.375 353.214844 C 474.554688 353.644531 474.644531 354.089844 474.648438 354.550781 C 474.648438 355.015625 474.558594 355.460938 474.382812 355.890625 Z M 491.191406 362.882812 C 491.65625 362.882812 492.101562 362.972656 492.53125 363.148438 C 492.960938 363.324219 493.34375 363.578125 493.671875 363.90625 C 494 364.234375 494.253906 364.613281 494.433594 365.039062 C 494.609375 365.46875 494.699219 365.914062 494.699219 366.378906 C 494.699219 366.839844 494.609375 367.289062 494.433594 367.714844 C 494.253906 368.144531 494 368.523438 493.671875 368.847656 C 493.34375 369.175781 492.960938 369.429688 492.53125 369.605469 C 492.101562 369.785156 491.65625 369.875 491.191406 369.875 L 484.769531 369.875 L 484.769531 374.382812 L 491.15625 374.382812 C 491.621094 374.382812 492.066406 374.472656 492.496094 374.648438 C 492.925781 374.824219 493.308594 375.078125 493.636719 375.40625 C 493.964844 375.734375 494.21875 376.113281 494.398438 376.539062 C 494.574219 376.96875 494.664062 377.414062 494.664062 377.878906 C 494.664062 378.339844 494.574219 378.789062 494.398438 379.214844 C 494.21875 379.644531 493.964844 380.023438 493.636719 380.347656 C 493.308594 380.675781 492.925781 380.929688 492.496094 381.105469 C 492.066406 381.285156 491.621094 381.375 491.15625 381.375 L 481.257812 381.375 C 480.792969 381.375 480.347656 381.285156 479.917969 381.105469 C 479.488281 380.929688 479.105469 380.675781 478.777344 380.347656 C 478.449219 380.023438 478.195312 379.644531 478.019531 379.214844 C 477.839844 378.789062 477.75 378.339844 477.75 377.878906 L 477.75 354.773438 C 477.75 354.308594 477.839844 353.863281 478.019531 353.433594 C 478.195312 353.007812 478.449219 352.628906 478.777344 352.300781 C 479.109375 351.972656 479.488281 351.722656 479.917969 351.542969 C 480.347656 351.367188 480.792969 351.277344 481.257812 351.277344 L 491.15625 351.277344 C 491.621094 351.277344 492.066406 351.367188 492.496094 351.542969 C 492.925781 351.722656 493.308594 351.972656 493.636719 352.300781 C 493.964844 352.628906 494.21875 353.007812 494.398438 353.433594 C 494.574219 353.863281 494.664062 354.308594 494.664062 354.773438 C 494.664062 355.238281 494.574219 355.683594 494.398438 356.109375 C 494.21875 356.539062 493.964844 356.917969 493.636719 357.246094 C 493.308594 357.574219 492.925781 357.824219 492.496094 358.003906 C 492.066406 358.179688 491.621094 358.269531 491.15625 358.269531 L 484.769531 358.269531 L 484.769531 362.671875 Z M 491.191406 362.882812 " fill-opacity="1" fill-rule="nonzero"/></g><g clip-path="url(#55e697a073)"><path fill="#000000" d="M 404.957031 621.675781 C 281.273438 621.675781 181.082031 520.796875 181.082031 397.800781 C 181.082031 274.808594 281.273438 173.925781 404.957031 173.925781 C 528.640625 173.925781 628.832031 274.117188 628.832031 397.800781 C 628.832031 521.488281 527.949219 621.675781 404.957031 621.675781 Z M 404.957031 187.746094 C 288.875 187.746094 194.902344 281.71875 194.902344 397.800781 C 194.902344 513.886719 288.875 607.859375 404.957031 607.859375 C 521.039062 607.859375 615.011719 513.886719 615.011719 397.800781 C 615.011719 281.71875 520.351562 187.746094 404.957031 187.746094 Z M 404.957031 187.746094 " fill-opacity="1" fill-rule="nonzero"/></g><g clip-path="url(#2bad5cabdc)"><path fill="#000000" d="M 547.445312 527.578125 C 547.023438 529.578125 545.15625 531.109375 544.34375 530.570312 C 543.535156 530.03125 541.878906 523.183594 541.878906 523.183594 C 541.878906 523.183594 541.128906 507.8125 541.1875 506.21875 C 541.246094 504.628906 541.15625 503.785156 541.066406 502.617188 C 540.976562 501.445312 540.585938 499.554688 540.585938 499.554688 L 537.335938 497.871094 C 537.335938 497.871094 538.089844 499.945312 537.097656 501.085938 C 536.105469 502.226562 535.5625 501.957031 535.5625 501.957031 L 535.113281 501.984375 C 535.113281 501.984375 533.214844 504.359375 532.613281 505.019531 C 532.011719 505.679688 530.207031 507.300781 530.207031 507.300781 L 530.390625 515.707031 C 530.390625 515.707031 530.902344 518.832031 530.902344 519.941406 C 530.902344 521.050781 531.832031 527.179688 532.164062 528.289062 C 532.496094 529.398438 533.097656 531.800781 533.097656 531.800781 L 532.613281 531.800781 L 541.96875 565.011719 L 535.441406 566.0625 L 526.628906 531.382812 L 527.710938 561.4375 L 528.222656 561.707031 C 528.222656 561.707031 528.285156 562.578125 528.253906 562.847656 C 528.222656 563.117188 528.105469 563.238281 528.105469 563.238281 C 528.105469 563.238281 528.011719 563.480469 528.042969 563.75 C 528.074219 564.019531 528.132812 564.679688 528.132812 564.679688 L 527.773438 564.980469 L 527.921875 567.804688 L 524.3125 569.09375 L 524.3125 565.339844 C 524.3125 565.339844 524.253906 565.191406 523.984375 565.101562 C 523.710938 565.011719 523.710938 564.679688 523.710938 564.679688 L 523.710938 563.78125 C 523.710938 563.78125 523.351562 563.539062 523.382812 563.117188 C 523.410156 562.699219 523.105469 562.398438 523.378906 562.15625 C 523.652344 561.917969 523.863281 561.769531 523.863281 561.769531 L 522.6875 525.976562 C 522.6875 525.976562 522.148438 526.1875 521.488281 525.617188 C 520.824219 525.046875 520.28125 524.476562 520.28125 524.476562 C 520.28125 524.476562 519.832031 524.535156 519.800781 524.683594 C 519.773438 524.835938 519.441406 524.957031 519.800781 525.136719 C 520.164062 525.316406 520.3125 525.316406 520.3125 525.464844 C 520.3125 525.617188 518.449219 531.203125 518.449219 531.203125 C 518.449219 531.203125 518.148438 531.53125 517.90625 531.621094 C 517.667969 531.710938 517.667969 531.710938 517.667969 531.710938 L 494.628906 584.707031 C 494.628906 584.707031 494.867188 585.097656 494.777344 585.246094 C 494.6875 585.398438 493.242188 588.941406 492.941406 589.453125 C 492.640625 589.960938 492.492188 590.261719 492.101562 590.324219 C 491.710938 590.382812 491.589844 590.324219 491.589844 590.324219 L 480.492188 617.015625 C 480.492188 617.015625 480.882812 617.285156 480.492188 617.855469 C 480.101562 618.425781 479.710938 619.238281 479.617188 619.417969 C 479.527344 619.597656 478.957031 620.917969 478.503906 621.550781 C 478.054688 622.179688 478.085938 622.238281 477.875 622.390625 C 477.664062 622.539062 477.542969 622.628906 477.632812 622.71875 C 477.722656 622.808594 477.601562 623.082031 477.601562 623.351562 C 477.601562 623.621094 476.28125 626.804688 476.128906 627.015625 C 475.980469 627.222656 475.589844 627.613281 474.867188 627.164062 C 474.144531 626.714844 472.910156 625.691406 472.941406 625.242188 C 472.972656 624.792969 473.542969 623.261719 473.691406 622.929688 C 473.84375 622.601562 474.113281 621.878906 474.292969 621.640625 C 474.476562 621.398438 474.535156 621.578125 474.65625 621.277344 C 474.777344 620.980469 474.835938 620.5 474.867188 620.378906 C 474.894531 620.257812 473.542969 620.136719 473.453125 619.539062 C 473.363281 618.9375 473.542969 617.886719 474.265625 617.136719 C 474.988281 616.386719 475.527344 616.59375 475.648438 616.867188 C 475.769531 617.136719 475.769531 617.136719 475.769531 617.136719 C 475.769531 617.136719 476.429688 615.875 476.519531 615.8125 C 476.609375 615.753906 476.851562 615.394531 476.972656 615.425781 C 477.089844 615.453125 488.550781 589.242188 488.550781 589.242188 C 488.550781 589.242188 488.28125 588.972656 488.21875 588.699219 C 488.160156 588.429688 488.160156 588.160156 487.980469 588.101562 C 487.800781 588.039062 486.808594 587.890625 486.808594 587.320312 C 486.808594 586.75 487.347656 585.578125 487.648438 585.1875 C 487.949219 584.796875 488.160156 584.289062 488.519531 584.675781 C 488.882812 585.066406 488.914062 585.277344 489.03125 585.15625 C 489.152344 585.039062 489.242188 584.917969 489.484375 584.4375 C 489.722656 583.957031 490.027344 583.175781 490.234375 583.085938 C 490.445312 582.996094 490.6875 583.054688 490.6875 583.054688 L 512.492188 531.441406 C 512.492188 531.441406 512.132812 531.140625 512.28125 530.601562 C 512.433594 530.058594 514.386719 524.386719 514.386719 524.386719 L 514.75 524.175781 C 514.75 524.175781 515.5625 520.542969 515.890625 520.753906 C 516.222656 520.960938 516.425781 521.472656 516.398438 521.5625 C 516.375 521.652344 516.613281 522.222656 516.660156 521.863281 C 516.703125 521.503906 517.484375 520.152344 518.117188 519.851562 C 518.75 519.550781 519.5625 519.640625 519.773438 519.671875 C 519.984375 519.703125 520.976562 519.820312 520.976562 519.820312 C 520.976562 519.820312 521.09375 519.460938 521.214844 519.429688 C 521.335938 519.402344 521.578125 519.222656 521.578125 519.222656 L 521.425781 518.589844 L 522.058594 518.53125 C 522.058594 518.53125 521.605469 518.171875 521.605469 517.929688 C 521.605469 517.691406 521.757812 517.8125 521.578125 517.570312 C 521.394531 517.328125 520.613281 515.46875 520.523438 514.867188 C 520.433594 514.265625 519.652344 513.214844 519.652344 513.214844 C 519.652344 513.214844 517.484375 512.765625 517.457031 512.375 C 517.425781 511.984375 517.394531 511.714844 517.546875 511.59375 C 517.695312 511.472656 517.878906 511.625 517.847656 511.203125 C 517.816406 510.785156 517.816406 509.523438 517.816406 509.523438 C 517.816406 509.523438 518.011719 505.613281 517.976562 504.972656 C 517.9375 504.328125 517.667969 504.269531 517.425781 503.9375 C 517.183594 503.605469 515.980469 502.257812 516.132812 500.515625 C 516.28125 498.773438 516.671875 497.542969 516.660156 497.152344 C 516.644531 496.761719 516.34375 495.949219 515.410156 495.378906 C 514.476562 494.808594 514.238281 494.570312 514.027344 494.089844 C 513.816406 493.609375 513.304688 492.316406 513.304688 492.316406 C 513.304688 492.316406 513.125 491.144531 513.214844 491.085938 C 513.304688 491.027344 517.335938 491.207031 517.335938 491.207031 C 517.335938 491.207031 517.578125 490.214844 517.183594 490.15625 C 516.792969 490.09375 509.605469 489.855469 509.605469 489.855469 C 509.605469 489.855469 507.050781 488.746094 509.183594 488.59375 C 511.320312 488.445312 513.273438 488.324219 513.996094 488.382812 C 514.71875 488.445312 514.988281 488.445312 514.988281 488.445312 L 514.898438 486.34375 L 514.660156 485.800781 L 513.546875 486.101562 L 508.972656 485.800781 L 508.3125 485.53125 L 503.410156 485.351562 L 502.929688 485.5625 L 499.769531 485.410156 L 499.378906 485.109375 L 496.703125 485.199219 L 495.136719 485.441406 L 494.265625 485.832031 C 494.265625 485.832031 491.980469 486.460938 489.242188 486.402344 C 486.507812 486.34375 480.25 486.3125 480.011719 486.253906 C 479.769531 486.191406 478.414062 484.8125 479.257812 483.96875 C 480.101562 483.128906 482.386719 482.199219 482.597656 482.109375 C 482.808594 482.019531 484.007812 481.449219 484.007812 481.449219 C 484.007812 481.449219 483.980469 480.699219 483.4375 480.367188 C 482.898438 480.039062 481.363281 478.867188 481.453125 476.464844 C 481.542969 474.0625 482.71875 473.640625 483.589844 473.070312 C 483.589844 473.070312 484.007812 472.859375 483.078125 472.378906 C 482.144531 471.898438 481.933594 471.269531 481.8125 470.96875 C 481.695312 470.667969 481.511719 470.339844 481.152344 470.21875 C 480.792969 470.097656 479.890625 469.589844 480.730469 469.46875 C 481.574219 469.347656 484.609375 469.289062 487.378906 469.769531 C 490.144531 470.25 492.25 470.519531 492.25 470.519531 L 492.460938 470.757812 C 492.460938 470.757812 494.988281 470.9375 495.167969 471.179688 C 495.347656 471.417969 495.679688 471.628906 495.769531 472.019531 L 499.4375 472.46875 C 499.4375 472.46875 499.589844 472.230469 499.890625 472.230469 C 500.191406 472.230469 503.679688 472.53125 503.679688 472.53125 L 504.070312 472.769531 L 505.875 472.859375 L 505.90625 473.039062 L 508.671875 473.128906 L 509.09375 472.921875 L 514.871094 473.222656 L 515.019531 473.492188 L 516.191406 473.582031 L 516.660156 473.25 L 519.140625 473.402344 C 519.140625 473.402344 520.011719 473.792969 520.101562 474.0625 C 520.191406 474.332031 520.253906 474.394531 520.734375 474.394531 C 521.214844 474.394531 522.207031 474.332031 522.207031 474.332031 C 522.207031 474.332031 523.109375 473.492188 523.199219 473.222656 C 523.289062 472.949219 523.621094 472.261719 523.863281 472.140625 C 524.101562 472.019531 524.375 471.691406 524.285156 471.628906 C 524.195312 471.570312 523.171875 471.328125 523.171875 471.328125 C 523.171875 471.328125 521.605469 471.121094 520.976562 470.730469 C 520.34375 470.339844 519.472656 469.796875 519.289062 469.679688 C 519.109375 469.558594 518.71875 469.199219 518.71875 468.988281 C 518.71875 468.777344 518.808594 467.996094 518.808594 467.996094 C 518.808594 467.996094 515.140625 465.984375 513.996094 464.242188 C 512.855469 462.503906 511.320312 461.390625 511.171875 461.210938 C 511.019531 461.03125 510.027344 460.007812 510.027344 460.007812 C 510.027344 460.007812 509.035156 459.800781 508.824219 459.410156 C 508.613281 459.019531 508.582031 455.957031 508.582031 455.566406 C 508.582031 455.175781 508.492188 453.585938 508.492188 453.511719 C 508.492188 453.433594 508.613281 452.683594 508.222656 452.53125 C 507.832031 452.382812 507.621094 452.234375 507.53125 452.351562 C 507.441406 452.472656 505.90625 453.433594 503.921875 453.375 C 501.9375 453.3125 491.078125 453.164062 490.085938 453.195312 C 489.09375 453.222656 487.226562 453.132812 486.835938 452.5625 C 486.445312 451.992188 485.964844 448.628906 486.386719 447.789062 C 486.808594 446.949219 489.003906 446.949219 489.003906 446.949219 C 489.003906 446.949219 501.425781 446.078125 503.078125 446.078125 C 504.734375 446.078125 506.777344 446.199219 507.257812 446.4375 C 507.742188 446.679688 507.953125 446.796875 508.070312 446.859375 C 508.191406 446.917969 509.875 446.648438 509.875 446.648438 C 509.875 446.648438 510.296875 445.925781 510.867188 445.808594 C 511.441406 445.6875 511.53125 445.296875 511.773438 445.808594 C 512.011719 446.316406 512.402344 446.496094 512.613281 446.558594 C 512.824219 446.617188 518.871094 446.558594 521.816406 446.648438 C 524.765625 446.738281 527.503906 447.308594 527.621094 447.367188 C 527.742188 447.429688 528.222656 448.148438 528.285156 448.601562 C 528.34375 449.050781 528.222656 449.109375 528.042969 449.199219 C 527.863281 449.289062 527.710938 449.5 527.800781 449.589844 C 527.894531 449.679688 527.953125 449.679688 527.953125 449.953125 C 527.953125 450.222656 527.921875 450.492188 527.921875 450.492188 C 527.921875 450.492188 528.976562 451.933594 529.636719 452.050781 C 530.300781 452.171875 542.269531 452.117188 547.683594 453.511719 C 547.683594 453.511719 547.863281 452.921875 548.828125 453.011719 C 549.789062 453.101562 550.121094 453.222656 550.121094 453.132812 C 550.121094 453.042969 550.121094 451.992188 550.121094 451.992188 L 549.847656 451.542969 L 550.148438 450.160156 L 550.78125 450.160156 L 550.992188 449.890625 L 552.164062 450.011719 L 552.164062 450.492188 L 552.585938 450.792969 C 552.585938 450.792969 552.617188 451.210938 552.554688 451.332031 C 552.496094 451.453125 552.40625 451.484375 552.40625 451.753906 C 552.40625 452.023438 552.464844 452.773438 552.464844 452.773438 C 552.464844 452.773438 552.4375 453.011719 552.285156 453.132812 C 552.136719 453.253906 552.253906 453.511719 552.253906 453.511719 C 552.253906 453.511719 552.375 453.492188 552.375 453.765625 C 552.375 454.035156 552.464844 456.046875 552.464844 456.046875 C 552.464844 456.046875 553.097656 456.648438 553.25 456.675781 C 553.398438 456.707031 554.058594 457.277344 553.519531 458.269531 C 552.976562 459.257812 552.738281 458.476562 552.617188 458.988281 C 552.496094 459.5 552.855469 459.5 552.4375 459.738281 C 552.015625 459.980469 551.683594 460.097656 551.234375 460.1875 C 550.78125 460.28125 549.007812 460.519531 548.796875 460.671875 C 548.585938 460.820312 548.253906 461 547.535156 460.910156 C 546.8125 460.820312 545.847656 461.121094 545.457031 460.640625 C 545.066406 460.160156 544.496094 459.527344 543.441406 459.648438 C 542.390625 459.769531 541.636719 460.128906 540.796875 459.679688 C 539.953125 459.230469 540.164062 459.4375 539.53125 459.738281 C 538.902344 460.039062 537.96875 459.980469 537.519531 459.710938 C 537.066406 459.4375 536.765625 459.230469 536.34375 459.410156 C 535.921875 459.589844 535.113281 459.769531 534.359375 459.410156 C 533.609375 459.046875 533.425781 458.808594 532.796875 459.046875 C 532.164062 459.289062 531.503906 459.917969 530.660156 459.917969 C 529.816406 459.917969 529.066406 459.648438 529.066406 459.648438 C 529.066406 459.648438 528.945312 461.839844 528.976562 462.351562 C 529.003906 462.863281 529.214844 463.433594 529.308594 463.460938 C 529.398438 463.492188 530.480469 463.882812 531.503906 463.851562 C 532.523438 463.824219 536.585938 464.097656 536.585938 464.097656 C 536.585938 464.097656 537.097656 464.632812 537.066406 464.722656 C 537.035156 464.8125 537.007812 465.234375 536.945312 465.445312 C 536.886719 465.652344 537.035156 465.746094 536.34375 465.746094 C 535.652344 465.746094 534.179688 465.714844 534.179688 465.714844 L 535.019531 466.316406 L 535.714844 466.675781 C 535.714844 466.675781 537.847656 468.808594 538.328125 469.289062 C 538.8125 469.769531 541.308594 472.078125 541.308594 472.078125 C 541.308594 472.078125 541.035156 472.859375 541.308594 473.070312 C 541.578125 473.28125 541.96875 474.210938 542.058594 474.453125 C 542.148438 474.691406 542.179688 476.074219 542.210938 476.3125 C 542.238281 476.554688 541.910156 477.183594 542.058594 477.273438 C 542.210938 477.363281 542.660156 478.175781 542.660156 478.175781 C 542.660156 478.175781 542.933594 478.957031 542.871094 479.136719 C 542.8125 479.316406 543.472656 480.277344 543.472656 480.277344 C 543.472656 480.277344 546.109375 484.269531 546.671875 484.929688 C 547.234375 485.589844 547.984375 486.703125 547.835938 487.183594 C 547.683594 487.664062 547.351562 487.964844 547.351562 487.84375 C 547.351562 487.722656 546 485.800781 545.15625 484.78125 C 544.316406 483.761719 543.414062 482.738281 543.351562 482.648438 C 543.292969 482.558594 542.75 481.359375 542.628906 481.597656 C 542.511719 481.839844 542.300781 481.75 542.390625 482.46875 C 542.480469 483.191406 542.269531 484.300781 542.269531 484.300781 C 542.269531 484.300781 541.730469 485.230469 541.910156 485.742188 C 542.089844 486.253906 542.269531 486.972656 542.300781 487.425781 C 542.332031 487.875 542.480469 488.472656 542.390625 489.015625 C 542.300781 489.554688 542.238281 490.003906 542.269531 490.304688 C 542.300781 490.605469 542.480469 490.90625 542.480469 490.90625 C 542.480469 490.90625 543.140625 490.90625 543.230469 491.175781 C 543.324219 491.445312 543.441406 491.476562 543.503906 492.226562 C 543.5625 492.980469 543.863281 493.820312 543.894531 494.808594 C 543.925781 495.800781 544.316406 496.3125 544.226562 496.519531 C 544.136719 496.730469 544.015625 496.519531 543.984375 496.882812 C 543.953125 497.242188 544.195312 498.234375 544.195312 498.234375 L 555.59375 503.425781 C 555.59375 503.425781 556.105469 502.5625 556.84375 502.84375 C 557.578125 503.125 560.375 504.476562 560.375 504.476562 L 558 508.773438 L 554.359375 506.820312 C 554.359375 506.820312 554.179688 506.699219 554.121094 506.308594 C 554.058594 505.921875 554.058594 505.710938 554.058594 505.710938 L 544.585938 501.207031 C 544.585938 501.207031 545.820312 510.363281 546.179688 512.796875 C 546.539062 515.226562 547.023438 518.621094 547.023438 519.519531 C 547.023438 520.421875 547.871094 525.582031 547.445312 527.578125 Z M 512.464844 461.480469 L 511.890625 460.039062 L 510.988281 460.039062 Z M 513.847656 460.039062 L 512.703125 460.039062 L 513.574219 461.871094 Z M 524.074219 449.289062 L 524.222656 449.621094 L 526.929688 449.621094 L 526.929688 449.289062 Z M 523.410156 452.261719 C 523.410156 452.261719 523.921875 452.683594 524.074219 452.714844 C 524.222656 452.742188 524.613281 452.863281 524.613281 452.863281 C 524.613281 452.863281 525.09375 453.164062 525.277344 453.164062 C 525.457031 453.164062 525.066406 452.261719 524.976562 452.261719 C 524.886719 452.261719 523.410156 452.261719 523.410156 452.261719 Z M 519.5625 466.195312 C 517.996094 466.105469 515.742188 464.992188 515.742188 464.992188 C 516.644531 465.984375 518.808594 466.707031 519.410156 466.734375 C 520.011719 466.765625 519.5625 466.195312 519.5625 466.195312 Z M 522.539062 461.480469 C 522.269531 459.648438 521.996094 458.777344 521.816406 458.628906 C 521.636719 458.476562 521.636719 458.386719 521.003906 458.328125 C 520.375 458.269531 519.773438 458.148438 519.710938 458 C 519.652344 457.847656 519.710938 457.519531 519.621094 457.457031 C 519.53125 457.398438 519.199219 457.039062 519.199219 457.039062 C 519.199219 457.039062 518.78125 456.828125 518.6875 456.707031 C 518.597656 456.585938 518.148438 455.777344 518.148438 455.777344 C 518.148438 455.777344 517.605469 455.6875 517.667969 456.585938 C 517.726562 457.488281 517.785156 459.46875 517.335938 459.710938 C 516.882812 459.949219 515.679688 460.039062 515.679688 460.039062 L 514.417969 460.039062 C 514.417969 460.039062 513.996094 461.632812 514.417969 462.441406 C 514.839844 463.253906 516.34375 464.125 517.183594 464.421875 C 518.027344 464.722656 520.042969 464.992188 520.34375 464.992188 C 520.644531 464.992188 521.695312 464.664062 521.695312 464.664062 C 521.695312 464.664062 522.808594 463.3125 522.539062 461.480469 Z M 525.324219 464.785156 C 525.308594 464.304688 524.824219 463.554688 524.824219 463.554688 L 524.074219 464.664062 L 524.449219 464.992188 C 524.449219 464.992188 525.035156 465.414062 525.15625 465.414062 C 525.277344 465.414062 525.335938 465.265625 525.324219 464.785156 Z M 525.5 460.382812 C 525.636719 460.007812 525.457031 459.859375 525.324219 459.648438 C 525.191406 459.4375 525.09375 458.988281 524.914062 458.417969 C 524.734375 457.847656 524.613281 457.9375 524.613281 457.9375 C 524.613281 457.9375 524.164062 457.90625 524.074219 457.804688 C 523.984375 457.699219 523.621094 457.636719 523.410156 457.667969 C 523.199219 457.699219 522.582031 457.9375 522.582031 457.9375 C 523.074219 458.539062 523.109375 459.4375 523.410156 460.382812 C 523.710938 461.328125 523.199219 463.703125 523.199219 463.703125 C 523.199219 463.703125 523.59375 464.304688 523.621094 464.394531 C 523.652344 464.484375 524.011719 463.972656 524.367188 463.492188 C 524.722656 463.011719 524.585938 463.101562 524.585938 462.710938 C 524.585938 462.324219 524.914062 461.839844 525.324219 461.480469 C 525.730469 461.121094 525.367188 460.761719 525.5 460.382812 Z M 528.464844 461.480469 C 528.464844 461.449219 528.433594 460.398438 528.3125 460.382812 C 528.195312 460.371094 526.628906 460.382812 526.628906 460.382812 C 526.628906 460.382812 526.417969 461.332031 526.929688 461.480469 C 527.441406 461.632812 528.464844 461.511719 528.464844 461.480469 Z M 540.195312 492.527344 C 540.195312 492.527344 539.230469 492.617188 538.8125 492.527344 C 538.390625 492.4375 538.601562 492.679688 537.847656 492.917969 C 537.097656 493.160156 536.855469 493.128906 536.855469 493.128906 L 535.984375 493.367188 C 535.984375 493.367188 536.316406 493.820312 536.554688 493.789062 C 536.796875 493.757812 537.609375 493.910156 538.089844 494.058594 C 538.570312 494.210938 537.699219 495.140625 537.699219 495.140625 C 537.699219 495.140625 538.628906 495.710938 538.992188 495.890625 C 539.351562 496.070312 539.832031 496.339844 539.832031 496.339844 C 539.832031 496.339844 540.164062 495.289062 540.195312 494.839844 C 540.226562 494.390625 540.316406 494.179688 540.375 493.667969 C 540.433594 493.160156 540.195312 492.527344 540.195312 492.527344 Z M 541.910156 488.65625 C 541.878906 488.144531 541.609375 486.945312 541.609375 486.945312 C 541.609375 486.945312 541.398438 487.632812 541.246094 487.933594 C 541.097656 488.234375 541.066406 488.5625 541.066406 488.953125 C 541.066406 489.34375 541.21875 490.90625 541.21875 490.90625 C 541.21875 490.90625 541.667969 491.355469 541.757812 491.175781 C 541.847656 490.996094 541.820312 490.457031 541.878906 490.15625 C 541.9375 489.855469 541.9375 489.164062 541.910156 488.65625 " fill-opacity="1" fill-rule="nonzero"/></g><g clip-path="url(#1148216252)"><path fill="#000000" d="M 628.519531 594.644531 C 627.695312 598.070312 628.109375 599.570312 628.472656 602.753906 C 628.832031 605.9375 627.089844 611.101562 625.222656 614.882812 C 623.359375 618.667969 617.132812 618.546875 613.785156 617.464844 C 610.441406 616.386719 610.546875 612.691406 610.96875 611.761719 C 611.386719 610.828125 612.773438 609.898438 613.554688 609.269531 C 614.335938 608.636719 613.101562 607.078125 610.605469 605.636719 C 608.109375 604.195312 605.582031 604.195312 603.328125 603.835938 C 601.070312 603.472656 599.117188 604.132812 598.484375 604.253906 C 597.851562 604.375 597.882812 605.335938 597.882812 605.816406 C 597.882812 606.296875 598.574219 607.40625 598.816406 607.648438 C 599.054688 607.886719 601.222656 610.050781 602.035156 610.621094 C 602.847656 611.191406 603.957031 611.550781 605.644531 614.523438 C 607.328125 617.496094 603.777344 620.949219 602.484375 621.878906 C 601.191406 622.808594 596.410156 626.113281 593.582031 627.195312 C 590.753906 628.273438 590.90625 629.476562 589.191406 631.847656 C 587.476562 634.21875 581.25 636.023438 576.589844 636.050781 C 571.925781 636.082031 565.910156 635.75 563.867188 634.101562 C 561.820312 632.449219 561.761719 630.136719 562.152344 628.246094 C 562.542969 626.355469 564.679688 625.875 566.390625 625.84375 C 568.105469 625.8125 571.175781 625.992188 574 622.929688 C 576.828125 619.867188 576.40625 617.105469 575.988281 615.84375 C 575.566406 614.582031 576.167969 614.824219 573.582031 614.582031 C 570.992188 614.34375 566.542969 615.996094 565.277344 616.355469 C 564.015625 616.714844 561.339844 617.40625 554.753906 618.546875 C 548.164062 619.6875 543.953125 617.015625 542.511719 616.113281 C 541.066406 615.214844 539.414062 611.730469 539.832031 607.949219 C 540.253906 604.164062 543.414062 599.511719 543.414062 599.511719 C 543.414062 599.511719 543.113281 599.148438 539.804688 597.136719 C 536.496094 595.125 531.171875 592.875 527.441406 591.34375 C 523.710938 589.8125 521.90625 587.53125 520.191406 585.15625 C 518.480469 582.785156 517.90625 580.683594 518.117188 579.875 C 518.328125 579.0625 518.269531 576.71875 518.507812 574.859375 C 518.75 572.996094 520.285156 570.746094 524.945312 568.101562 C 529.605469 565.460938 539.714844 564.320312 547.050781 562.910156 C 554.390625 561.496094 561.878906 561.976562 563.082031 561.828125 C 564.285156 561.675781 564.078125 561.195312 564.078125 561.195312 C 564.078125 561.195312 564.167969 560.296875 564.167969 559.605469 C 564.167969 558.914062 564.558594 558.195312 564.796875 557.472656 C 565.039062 556.753906 564.46875 555.460938 563.984375 554.292969 C 563.503906 553.121094 564.226562 552.910156 564.46875 552.1875 C 564.707031 551.46875 564.40625 551.5 564.257812 550.566406 C 564.105469 549.636719 564.828125 549.457031 565.1875 548.828125 C 565.550781 548.195312 565.25 547.835938 564.648438 546.726562 C 564.046875 545.613281 564.738281 544.953125 564.617188 544.234375 C 564.496094 543.511719 564.496094 543.273438 564.167969 543.902344 C 563.835938 544.53125 563.203125 546.0625 561.761719 547.867188 C 560.316406 549.667969 558.300781 551.46875 556.410156 551.707031 C 554.519531 551.949219 553.066406 550.597656 552.617188 549.878906 C 552.164062 549.15625 551.445312 548.585938 549.96875 547.113281 C 548.496094 545.644531 545.128906 543 542.539062 540.691406 C 539.953125 538.378906 534.269531 528.5 533.398438 526.847656 C 532.523438 525.195312 531.140625 522.671875 530 521.742188 C 528.855469 520.8125 527.742188 520.902344 526.78125 520.332031 C 525.816406 519.761719 524.042969 518.078125 523.050781 517.300781 C 522.058594 516.519531 520.34375 516.636719 519.53125 516.578125 C 518.71875 516.519531 517.816406 516.339844 517.214844 516.066406 C 516.613281 515.796875 516.074219 514.808594 516.636719 514.234375 C 517.203125 513.667969 517.90625 514.027344 518.480469 514.265625 C 519.050781 514.507812 520.792969 514.054688 521.636719 513.785156 C 522.480469 513.515625 521.695312 512.855469 521.546875 512.792969 C 521.394531 512.734375 520.191406 512.164062 519.320312 511.683594 C 518.449219 511.203125 517.484375 510.003906 517.15625 509.640625 C 516.824219 509.28125 516.492188 508.652344 516.703125 507.8125 C 516.914062 506.972656 517.816406 507.0625 518.027344 507.0625 C 518.238281 507.0625 518.058594 506.820312 517.785156 506.28125 C 517.515625 505.738281 518.058594 504.867188 518.179688 504.476562 C 518.296875 504.089844 518.839844 504.117188 518.839844 504.117188 C 518.839844 504.117188 518.597656 503.789062 518.296875 503.546875 C 517.996094 503.308594 517.667969 502.527344 518.449219 501.746094 C 519.230469 500.964844 520.34375 501.835938 521.15625 502.046875 C 521.96875 502.257812 524.222656 503.519531 525.9375 504.089844 C 527.652344 504.660156 529.96875 505.980469 531.230469 506.910156 C 532.496094 507.839844 533.335938 508.140625 533.9375 508.140625 C 534.539062 508.140625 534.449219 507.421875 534.480469 507.152344 C 534.511719 506.878906 534.628906 505.917969 535.019531 504.75 C 535.414062 503.578125 536.824219 503.21875 537.097656 503.457031 C 537.367188 503.699219 537.578125 504.148438 537.488281 505.050781 C 537.398438 505.949219 537.9375 507.542969 538.179688 508.503906 C 538.421875 509.464844 538.148438 509.824219 537.847656 511.355469 C 537.546875 512.886719 536.855469 514.207031 536.734375 514.566406 C 536.617188 514.925781 536.464844 514.808594 536.976562 515.648438 C 537.488281 516.488281 539.683594 519.609375 542.238281 522.554688 C 544.796875 525.496094 548.285156 528.4375 549.367188 528.917969 C 550.449219 529.398438 552.527344 530.78125 552.707031 530.78125 C 552.886719 530.78125 552.796875 530.511719 552.707031 530.121094 C 552.617188 529.730469 552.828125 528.738281 552.886719 525.707031 C 552.949219 522.671875 553.851562 519.550781 553.910156 519.402344 C 553.96875 519.25 553.820312 519.039062 553.789062 518.832031 C 553.757812 518.621094 554.269531 517.808594 554.542969 517.148438 C 554.8125 516.488281 555.023438 516.039062 555.234375 514.925781 C 555.445312 513.816406 555.414062 512.613281 555.203125 510.003906 C 554.992188 507.390625 555.746094 505.589844 555.984375 504.898438 C 556.226562 504.207031 556.707031 503.878906 556.855469 502.738281 C 557.007812 501.597656 557.941406 500.84375 558.480469 499.433594 C 559.023438 498.023438 560.648438 495.410156 560.886719 495.050781 C 561.128906 494.691406 560.226562 494.359375 559.804688 493.789062 C 559.382812 493.21875 559.113281 492.828125 558.269531 492.136719 C 557.429688 491.445312 554.152344 491.71875 553.066406 491.746094 C 551.984375 491.777344 548.917969 491.808594 547.59375 490.457031 C 546.269531 489.105469 546.480469 487.84375 546.902344 487.003906 C 547.324219 486.164062 546.902344 485.53125 546.300781 484.960938 C 545.699219 484.390625 546.089844 483.398438 546.300781 483.039062 C 546.511719 482.679688 545.820312 482.257812 545.457031 481.898438 C 545.097656 481.539062 545.1875 480.277344 545.457031 479.738281 C 545.730469 479.195312 545.847656 478.984375 545.398438 478.65625 C 544.945312 478.324219 544.40625 478.59375 543.714844 478.085938 C 543.023438 477.574219 544.042969 476.042969 544.316406 475.5625 C 544.585938 475.082031 547.023438 471.902344 547.625 470.96875 C 548.226562 470.039062 548.585938 468.628906 548.375 468.050781 C 548.164062 467.472656 548.285156 465.925781 548.375 464.484375 C 548.464844 463.042969 549.820312 460.910156 550.023438 460.550781 C 550.226562 460.191406 550.121094 459.949219 550.03125 459.621094 C 549.941406 459.289062 550.722656 457.546875 552.195312 456.558594 C 553.667969 455.566406 558.421875 453.792969 561.097656 453.644531 C 563.773438 453.492188 568.859375 453.074219 573.429688 455.265625 C 578 457.457031 579.296875 461.390625 579.296875 461.390625 C 581.101562 465.023438 581.402344 468.746094 581.402344 471.992188 C 581.402344 475.234375 579.414062 478.324219 579.296875 478.867188 C 579.175781 479.40625 579.023438 480.488281 578.632812 481.296875 C 578.242188 482.109375 578.394531 482.589844 578.394531 482.589844 C 578.785156 482.710938 578.695312 483.007812 578.964844 483.398438 C 579.234375 483.789062 580.078125 484.152344 580.5 484.449219 C 580.917969 484.75 581.730469 485.292969 582.332031 485.710938 C 582.933594 486.132812 583.925781 487.695312 588.621094 490.574219 C 593.3125 493.457031 597.222656 498.535156 599.777344 502.167969 C 602.335938 505.800781 603.449219 512.222656 603.597656 513.753906 C 603.75 515.289062 604.078125 519.128906 604.589844 521.53125 C 605.101562 523.933594 604.5 525.648438 605.824219 532.402344 C 607.148438 539.15625 606.246094 539.878906 606.304688 541.230469 C 606.363281 542.582031 606.574219 543.300781 607.027344 544.78125 C 607.476562 546.261719 607.359375 547.777344 606.605469 550.71875 C 605.855469 553.660156 607.566406 555.253906 607.597656 557.503906 C 607.628906 559.757812 608.980469 564.109375 610.636719 567.710938 C 612.289062 571.316406 611.027344 575.757812 611.027344 575.757812 C 611.027344 575.757812 611.058594 576.8125 611.117188 576.960938 C 611.175781 577.109375 611.898438 577.832031 611.988281 579.574219 C 612.078125 581.316406 610.246094 584.167969 610.246094 584.167969 L 611.898438 584.347656 L 613.523438 585.007812 C 613.523438 585.007812 615.417969 585.519531 616.800781 585.609375 C 618.183594 585.699219 618.9375 585.820312 620.5 585.878906 C 622.066406 585.9375 623.359375 585.429688 626.097656 585.878906 C 628.832031 586.328125 629.34375 591.222656 628.519531 594.644531 Z M 589.492188 604.285156 C 589.492188 604.285156 588.378906 603.59375 587.625 603.113281 C 586.875 602.632812 586.332031 602.03125 585.550781 601.761719 C 584.769531 601.492188 584.378906 601.191406 584.347656 601.28125 C 584.316406 601.371094 584.316406 602.394531 583.988281 602.722656 C 583.65625 603.054688 583.144531 603.503906 583.234375 603.5625 C 583.324219 603.625 583.867188 603.953125 584.078125 603.953125 C 584.289062 603.953125 589.492188 604.285156 589.492188 604.285156 " fill-opacity="1" fill-rule="nonzero"/></g><path fill="#000000" d="M 560.40625 629.265625 C 560.316406 628.695312 559.535156 628.785156 559.535156 628.785156 L 553.519531 608.066406 C 553.519531 608.066406 553.847656 607.738281 554.089844 607.617188 C 554.332031 607.496094 554.421875 607.285156 554.542969 606.835938 C 554.660156 606.386719 554.089844 605.664062 554.089844 605.664062 L 548.132812 602.242188 L 548.253906 603.292969 C 548.253906 603.292969 547.503906 603.652344 547.140625 603.742188 C 546.78125 603.832031 546.722656 603.953125 546.539062 604.164062 C 546.359375 604.375 546.8125 605.546875 546.8125 605.84375 C 546.8125 606.144531 547.441406 606.234375 547.683594 606.234375 C 547.925781 606.234375 547.984375 606.175781 548.316406 606.265625 C 548.644531 606.355469 547.984375 606.65625 547.773438 606.714844 C 547.5625 606.777344 547.472656 606.898438 547.261719 607.136719 C 547.050781 607.378906 547.625 608.9375 547.804688 609.417969 C 547.984375 609.898438 548.4375 609.6875 549.007812 609.660156 C 549.578125 609.628906 550.632812 609.328125 550.632812 609.328125 L 556.410156 629.597656 L 555.957031 629.957031 C 555.957031 629.957031 556.015625 630.496094 556.226562 631.488281 C 556.4375 632.480469 557.039062 634.160156 557.941406 634.582031 C 558.84375 635 560.886719 634.25 561.339844 633.710938 C 561.789062 633.167969 560.496094 629.835938 560.40625 629.265625 " fill-opacity="1" fill-rule="nonzero"/><path fill="#000000" d="M 535.351562 466.554688 C 535.351562 466.554688 535.410156 466.652344 535.503906 466.816406 C 535.800781 467.335938 536.453125 468.503906 536.707031 469.167969 C 537.035156 470.039062 538 471.539062 538 471.539062 C 538 471.539062 539.472656 471.988281 539.652344 472.050781 C 539.832031 472.109375 541.21875 472.46875 541.609375 472.410156 C 542 472.351562 542.8125 472.214844 542.960938 472.417969 C 543.113281 472.621094 543.261719 472.859375 543.59375 472.859375 C 543.925781 472.859375 544.554688 472.980469 544.738281 472.859375 C 544.917969 472.742188 544.765625 472.261719 545.21875 472.742188 C 545.667969 473.222656 548.136719 475.625 549.910156 475.894531 C 551.683594 476.164062 556.136719 474.8125 557.277344 473.160156 C 558.421875 471.507812 558.332031 468.328125 555.925781 466.976562 C 553.519531 465.625 550.542969 464.421875 549.789062 464.183594 C 549.039062 463.941406 548.585938 464.214844 547.863281 464.933594 C 547.140625 465.65625 546.480469 465.566406 546.210938 465.566406 C 545.941406 465.566406 545.488281 465.804688 545.398438 465.953125 C 545.308594 466.105469 545.730469 466.285156 544.828125 466.253906 C 543.925781 466.226562 541.21875 466.074219 540.644531 466.105469 C 540.074219 466.136719 539.441406 466.226562 539.441406 466.226562 C 539.441406 466.226562 537.96875 466.164062 537.878906 466.226562 C 537.789062 466.285156 537.546875 466.644531 537.335938 466.617188 C 537.125 466.585938 536.496094 466.433594 536.40625 466.433594 C 536.316406 466.433594 535.351562 466.554688 535.351562 466.554688 " fill-opacity="1" fill-rule="nonzero"/></svg>