<svg xmlns="http://www.w3.org/2000/svg" xmlns:xlink="http://www.w3.org/1999/xlink" width="1080" zoomAndPan="magnify" viewBox="0 0 810 1439.999935" height="1920" preserveAspectRatio="xMidYMid meet" version="1.0"><defs><clipPath id="0940c8fa24"><path d="M 75.753906 393.375 L 729 393.375 L 729 1046.625 L 75.753906 1046.625 Z M 75.753906 393.375 " clip-rule="nonzero"/></clipPath></defs><g clip-path="url(#0940c8fa24)"><path fill="#000000" d="M 402.242188 1046.371094 C 582.578125 1046.371094 728.746094 900.199219 728.746094 719.867188 C 728.746094 539.546875 582.578125 393.375 402.242188 393.375 C 221.925781 393.375 75.753906 539.546875 75.753906 719.867188 C 75.753906 900.199219 221.925781 1046.371094 402.242188 1046.371094 Z M 250.964844 474.773438 L 272.300781 511.738281 L 286.988281 503.261719 L 265.617188 466.265625 C 303.9375 445.570312 347.496094 433.386719 393.78125 432.042969 L 393.78125 511.761719 L 410.734375 511.761719 L 410.734375 432.042969 C 457.019531 433.386719 500.570312 445.570312 538.890625 466.257812 L 517.53125 503.277344 L 532.199219 511.753906 L 553.5625 474.773438 C 591.632812 498.328125 623.796875 530.5 647.351562 568.578125 L 610.386719 589.925781 L 618.863281 604.609375 L 655.871094 583.242188 C 676.554688 621.5625 688.738281 665.121094 690.082031 711.390625 L 610.371094 711.390625 L 610.355469 728.351562 L 690.082031 728.34375 C 688.738281 774.628906 676.554688 818.183594 655.867188 856.507812 L 618.863281 835.152344 L 610.386719 849.824219 L 647.351562 871.167969 C 623.796875 909.25 591.625 941.414062 553.554688 964.96875 L 532.199219 928.007812 L 517.53125 936.484375 L 538.890625 973.488281 C 500.570312 994.179688 457.019531 1006.355469 410.734375 1007.703125 L 410.734375 927.988281 L 393.78125 927.988281 L 393.78125 1007.695312 C 347.496094 1006.355469 303.9375 994.171875 265.617188 973.472656 L 286.972656 936.480469 L 272.300781 928.003906 L 250.972656 964.960938 C 212.890625 941.40625 180.726562 909.234375 157.164062 871.152344 L 194.113281 849.808594 L 185.636719 835.136719 L 148.652344 856.492188 C 127.960938 818.183594 115.777344 774.628906 114.4375 728.34375 L 194.144531 728.351562 L 194.128906 711.390625 L 114.4375 711.398438 C 115.777344 665.121094 127.960938 621.5625 148.652344 583.242188 L 185.636719 604.59375 L 194.113281 589.917969 L 157.15625 568.59375 C 180.71875 530.507812 212.882812 498.332031 250.964844 474.773438 Z M 250.964844 474.773438 " fill-opacity="1" fill-rule="nonzero"/></g><path fill="#000000" d="M 352.128906 738.304688 L 361.503906 754.636719 L 398.191406 733.59375 L 431.183594 759.183594 L 447.015625 738.753906 L 422.4375 719.691406 L 589.785156 623.710938 L 580.414062 607.359375 L 406.335938 707.207031 L 276.851562 606.800781 L 261.015625 627.226562 L 382.09375 721.117188 Z M 352.128906 738.304688 " fill-opacity="1" fill-rule="nonzero"/></svg>