<svg xmlns="http://www.w3.org/2000/svg" xmlns:xlink="http://www.w3.org/1999/xlink" width="1080" zoomAndPan="magnify" viewBox="0 0 810 1439.999935" height="1920" preserveAspectRatio="xMidYMid meet" version="1.0"><defs><clipPath id="ff12628c62"><path d="M 338 471.410156 L 472 471.410156 L 472 605 L 338 605 Z M 338 471.410156 " clip-rule="nonzero"/></clipPath><clipPath id="655016551c"><path d="M 236 784 L 574 784 L 574 968.660156 L 236 968.660156 Z M 236 784 " clip-rule="nonzero"/></clipPath></defs><path fill="#000000" d="M 446.140625 761.472656 C 446.140625 734.050781 427.546875 711.746094 404.691406 711.746094 C 381.835938 711.746094 363.242188 734.050781 363.242188 761.472656 C 363.242188 788.894531 381.835938 811.195312 404.691406 811.195312 C 427.546875 811.195312 446.140625 788.894531 446.140625 761.472656 Z M 404.691406 794.621094 C 390.980469 794.621094 379.824219 779.753906 379.824219 761.472656 C 379.824219 743.191406 390.980469 728.320312 404.691406 728.320312 C 418.402344 728.320312 429.5625 743.191406 429.5625 761.472656 C 429.5625 779.753906 418.402344 794.621094 404.691406 794.621094 Z M 404.691406 794.621094 " fill-opacity="1" fill-rule="nonzero"/><path fill="#000000" d="M 404.691406 562.570312 C 405.507812 562.570312 406.320312 562.53125 407.128906 562.453125 C 407.941406 562.371094 408.746094 562.253906 409.542969 562.09375 C 410.34375 561.9375 411.132812 561.738281 411.910156 561.5 C 412.691406 561.265625 413.457031 560.992188 414.210938 560.679688 C 414.960938 560.367188 415.699219 560.019531 416.414062 559.636719 C 417.132812 559.253906 417.832031 558.835938 418.507812 558.382812 C 419.1875 557.929688 419.839844 557.445312 420.46875 556.929688 C 421.097656 556.414062 421.703125 555.867188 422.277344 555.289062 C 422.855469 554.714844 423.398438 554.113281 423.917969 553.480469 C 424.433594 552.851562 424.917969 552.199219 425.371094 551.523438 C 425.824219 550.84375 426.242188 550.148438 426.625 549.429688 C 427.007812 548.710938 427.359375 547.976562 427.667969 547.222656 C 427.980469 546.472656 428.253906 545.707031 428.492188 544.925781 C 428.726562 544.148438 428.925781 543.359375 429.085938 542.558594 C 429.242188 541.761719 429.363281 540.957031 429.441406 540.148438 C 429.523438 539.335938 429.5625 538.523438 429.5625 537.710938 C 429.5625 536.894531 429.523438 536.082031 429.441406 535.273438 C 429.363281 534.460938 429.242188 533.65625 429.085938 532.859375 C 428.925781 532.0625 428.726562 531.273438 428.492188 530.492188 C 428.253906 529.714844 427.980469 528.949219 427.667969 528.195312 C 427.359375 527.441406 427.007812 526.707031 426.625 525.988281 C 426.242188 525.273438 425.824219 524.574219 425.371094 523.898438 C 424.917969 523.21875 424.433594 522.566406 423.917969 521.9375 C 423.398438 521.308594 422.855469 520.703125 422.277344 520.128906 C 421.703125 519.554688 421.097656 519.007812 420.46875 518.492188 C 419.839844 517.972656 419.1875 517.488281 418.507812 517.039062 C 417.832031 516.585938 417.132812 516.167969 416.414062 515.78125 C 415.699219 515.398438 414.960938 515.050781 414.210938 514.738281 C 413.457031 514.429688 412.691406 514.152344 411.910156 513.917969 C 411.132812 513.679688 410.34375 513.484375 409.542969 513.324219 C 408.746094 513.167969 407.941406 513.046875 407.128906 512.96875 C 406.320312 512.886719 405.507812 512.847656 404.691406 512.847656 C 403.878906 512.847656 403.066406 512.886719 402.253906 512.96875 C 401.445312 513.046875 400.640625 513.167969 399.839844 513.324219 C 399.042969 513.484375 398.253906 513.679688 397.472656 513.917969 C 396.695312 514.152344 395.925781 514.429688 395.175781 514.738281 C 394.421875 515.050781 393.6875 515.398438 392.96875 515.78125 C 392.25 516.167969 391.550781 516.585938 390.875 517.039062 C 390.199219 517.488281 389.542969 517.972656 388.914062 518.492188 C 388.285156 519.007812 387.683594 519.554688 387.105469 520.128906 C 386.53125 520.703125 385.984375 521.308594 385.46875 521.9375 C 384.949219 522.566406 384.464844 523.21875 384.015625 523.898438 C 383.5625 524.574219 383.144531 525.273438 382.757812 525.988281 C 382.375 526.707031 382.027344 527.441406 381.714844 528.195312 C 381.402344 528.949219 381.128906 529.714844 380.894531 530.492188 C 380.65625 531.273438 380.460938 532.0625 380.300781 532.859375 C 380.140625 533.65625 380.023438 534.460938 379.941406 535.273438 C 379.863281 536.082031 379.824219 536.894531 379.824219 537.710938 C 379.824219 538.523438 379.863281 539.335938 379.941406 540.148438 C 380.023438 540.957031 380.140625 541.761719 380.300781 542.558594 C 380.460938 543.359375 380.65625 544.148438 380.894531 544.925781 C 381.128906 545.707031 381.402344 546.472656 381.714844 547.222656 C 382.027344 547.976562 382.375 548.710938 382.757812 549.429688 C 383.144531 550.148438 383.5625 550.84375 384.015625 551.523438 C 384.464844 552.199219 384.949219 552.851562 385.46875 553.480469 C 385.984375 554.113281 386.53125 554.714844 387.105469 555.289062 C 387.683594 555.867188 388.285156 556.414062 388.914062 556.929688 C 389.542969 557.445312 390.199219 557.929688 390.875 558.382812 C 391.550781 558.835938 392.25 559.253906 392.96875 559.636719 C 393.6875 560.019531 394.421875 560.367188 395.175781 560.679688 C 395.925781 560.992188 396.695312 561.265625 397.472656 561.5 C 398.253906 561.738281 399.042969 561.9375 399.839844 562.09375 C 400.640625 562.253906 401.445312 562.371094 402.253906 562.453125 C 403.066406 562.53125 403.878906 562.570312 404.691406 562.570312 Z M 404.691406 529.421875 C 405.238281 529.421875 405.777344 529.476562 406.308594 529.582031 C 406.84375 529.6875 407.363281 529.84375 407.863281 530.054688 C 408.367188 530.261719 408.84375 530.515625 409.296875 530.820312 C 409.75 531.121094 410.167969 531.464844 410.554688 531.847656 C 410.9375 532.234375 411.28125 532.652344 411.585938 533.105469 C 411.886719 533.558594 412.144531 534.035156 412.351562 534.539062 C 412.558594 535.039062 412.71875 535.558594 412.824219 536.09375 C 412.929688 536.625 412.980469 537.164062 412.980469 537.710938 C 412.980469 538.253906 412.929688 538.792969 412.824219 539.328125 C 412.71875 539.859375 412.558594 540.378906 412.351562 540.882812 C 412.144531 541.382812 411.886719 541.863281 411.585938 542.3125 C 411.28125 542.765625 410.9375 543.183594 410.554688 543.570312 C 410.167969 543.953125 409.75 544.296875 409.296875 544.601562 C 408.84375 544.902344 408.367188 545.15625 407.863281 545.367188 C 407.363281 545.574219 406.84375 545.730469 406.308594 545.839844 C 405.777344 545.945312 405.238281 545.996094 404.691406 545.996094 C 404.148438 545.996094 403.609375 545.945312 403.074219 545.839844 C 402.542969 545.730469 402.023438 545.574219 401.519531 545.367188 C 401.015625 545.15625 400.539062 544.902344 400.085938 544.601562 C 399.632812 544.296875 399.214844 543.953125 398.832031 543.570312 C 398.445312 543.183594 398.101562 542.765625 397.800781 542.3125 C 397.496094 541.863281 397.242188 541.382812 397.035156 540.882812 C 396.824219 540.378906 396.667969 539.859375 396.5625 539.328125 C 396.457031 538.792969 396.402344 538.253906 396.402344 537.710938 C 396.402344 537.164062 396.457031 536.625 396.5625 536.09375 C 396.667969 535.558594 396.824219 535.039062 397.035156 534.539062 C 397.242188 534.035156 397.496094 533.558594 397.800781 533.105469 C 398.101562 532.652344 398.445312 532.234375 398.832031 531.847656 C 399.214844 531.464844 399.632812 531.121094 400.085938 530.820312 C 400.539062 530.515625 401.015625 530.261719 401.519531 530.054688 C 402.023438 529.84375 402.542969 529.6875 403.074219 529.582031 C 403.609375 529.476562 404.148438 529.421875 404.691406 529.421875 Z M 404.691406 529.421875 " fill-opacity="1" fill-rule="nonzero"/><g clip-path="url(#ff12628c62)"><path fill="#000000" d="M 342.957031 553.457031 L 353.734375 558.84375 L 349.980469 570.246094 C 349.734375 570.976562 349.59375 571.726562 349.558594 572.496094 C 349.523438 573.265625 349.59375 574.023438 349.769531 574.773438 C 349.949219 575.523438 350.222656 576.234375 350.597656 576.90625 C 350.972656 577.578125 351.433594 578.1875 351.976562 578.734375 L 363.707031 590.453125 C 364.25 590.996094 364.859375 591.453125 365.53125 591.828125 C 366.203125 592.203125 366.914062 592.476562 367.664062 592.652344 C 368.414062 592.828125 369.171875 592.902344 369.941406 592.867188 C 370.707031 592.832031 371.457031 592.691406 372.1875 592.449219 L 383.636719 588.644531 L 389.023438 599.417969 C 389.367188 600.105469 389.796875 600.730469 390.3125 601.300781 C 390.828125 601.867188 391.410156 602.351562 392.0625 602.757812 C 392.714844 603.164062 393.410156 603.472656 394.144531 603.683594 C 394.882812 603.898438 395.636719 604.003906 396.402344 604.007812 L 412.980469 604.007812 C 413.757812 604.015625 414.515625 603.910156 415.261719 603.703125 C 416.007812 603.496094 416.707031 603.1875 417.367188 602.785156 C 418.027344 602.378906 418.617188 601.890625 419.140625 601.320312 C 419.664062 600.75 420.097656 600.117188 420.441406 599.425781 L 425.832031 588.652344 L 437.28125 592.457031 C 438.011719 592.699219 438.757812 592.839844 439.527344 592.875 C 440.296875 592.910156 441.054688 592.839844 441.804688 592.660156 C 442.554688 592.484375 443.265625 592.210938 443.9375 591.835938 C 444.609375 591.460938 445.214844 591.003906 445.761719 590.460938 L 457.492188 578.742188 C 458.035156 578.195312 458.496094 577.585938 458.871094 576.914062 C 459.246094 576.242188 459.519531 575.53125 459.695312 574.78125 C 459.875 574.03125 459.945312 573.273438 459.910156 572.503906 C 459.875 571.734375 459.734375 570.984375 459.488281 570.253906 L 455.683594 558.816406 L 466.460938 553.421875 C 467.148438 553.074219 467.773438 552.640625 468.339844 552.121094 C 468.90625 551.601562 469.390625 551.011719 469.789062 550.355469 C 470.191406 549.699219 470.496094 549.003906 470.703125 548.261719 C 470.914062 547.519531 471.015625 546.765625 471.011719 545.996094 L 471.011719 529.421875 C 471.011719 528.652344 470.90625 527.898438 470.699219 527.15625 C 470.488281 526.414062 470.179688 525.71875 469.773438 525.0625 C 469.371094 524.40625 468.882812 523.820312 468.3125 523.300781 C 467.746094 522.78125 467.117188 522.347656 466.429688 522.003906 L 455.652344 516.617188 L 459.40625 505.171875 C 459.652344 504.441406 459.789062 503.691406 459.824219 502.925781 C 459.859375 502.15625 459.789062 501.394531 459.613281 500.644531 C 459.4375 499.894531 459.160156 499.183594 458.785156 498.511719 C 458.414062 497.839844 457.953125 497.230469 457.410156 496.6875 L 445.71875 484.96875 C 445.171875 484.429688 444.5625 483.972656 443.890625 483.601562 C 443.214844 483.230469 442.503906 482.960938 441.757812 482.789062 C 441.007812 482.617188 440.25 482.546875 439.480469 482.585938 C 438.714844 482.625 437.96875 482.765625 437.238281 483.011719 L 425.789062 486.816406 L 420.402344 476.042969 C 420.0625 475.347656 419.632812 474.714844 419.113281 474.140625 C 418.59375 473.570312 418.007812 473.078125 417.351562 472.667969 C 416.699219 472.257812 416 471.945312 415.253906 471.734375 C 414.511719 471.519531 413.753906 471.410156 412.980469 471.410156 L 396.402344 471.410156 C 395.632812 471.410156 394.875 471.515625 394.136719 471.722656 C 393.394531 471.933594 392.695312 472.242188 392.042969 472.648438 C 391.386719 473.050781 390.796875 473.539062 390.277344 474.105469 C 389.757812 474.675781 389.328125 475.304688 388.984375 475.992188 L 383.59375 486.765625 L 372.144531 483.011719 C 371.417969 482.769531 370.667969 482.628906 369.898438 482.59375 C 369.128906 482.558594 368.371094 482.632812 367.621094 482.808594 C 366.875 482.984375 366.164062 483.257812 365.492188 483.632812 C 364.816406 484.007812 364.210938 484.464844 363.664062 485.007812 L 351.933594 496.6875 C 351.394531 497.234375 350.9375 497.84375 350.566406 498.515625 C 350.195312 499.191406 349.925781 499.902344 349.75 500.652344 C 349.578125 501.402344 349.511719 502.160156 349.550781 502.929688 C 349.589844 503.695312 349.730469 504.445312 349.980469 505.171875 L 353.785156 516.617188 L 343.007812 522.003906 C 342.3125 522.34375 341.679688 522.773438 341.105469 523.292969 C 340.53125 523.8125 340.039062 524.398438 339.632812 525.054688 C 339.222656 525.707031 338.910156 526.40625 338.695312 527.148438 C 338.484375 527.890625 338.375 528.648438 338.371094 529.421875 L 338.371094 545.996094 C 338.367188 546.769531 338.46875 547.53125 338.679688 548.273438 C 338.886719 549.019531 339.195312 549.722656 339.597656 550.382812 C 340.003906 551.039062 340.492188 551.632812 341.0625 552.152344 C 341.632812 552.675781 342.265625 553.109375 342.957031 553.457031 Z M 354.953125 534.542969 L 365.730469 529.15625 C 366.664062 528.691406 367.476562 528.066406 368.175781 527.292969 C 368.875 526.519531 369.40625 525.640625 369.773438 524.664062 C 370.082031 523.835938 370.414062 523.007812 370.769531 522.238281 C 371.199219 521.289062 371.441406 520.292969 371.496094 519.253906 C 371.546875 518.214844 371.410156 517.199219 371.078125 516.210938 L 367.269531 504.785156 L 371.75 500.308594 L 383.179688 504.121094 C 384.175781 504.453125 385.199219 504.59375 386.25 504.535156 C 387.296875 504.480469 388.300781 504.234375 389.257812 503.796875 C 390.019531 503.441406 390.808594 503.125 391.609375 502.828125 C 392.59375 502.460938 393.476562 501.925781 394.253906 501.226562 C 395.035156 500.523438 395.660156 499.703125 396.128906 498.765625 L 401.515625 487.992188 L 407.851562 487.992188 L 413.238281 498.765625 C 413.707031 499.703125 414.332031 500.523438 415.113281 501.226562 C 415.894531 501.925781 416.773438 502.460938 417.757812 502.828125 C 418.585938 503.125 419.347656 503.441406 420.113281 503.796875 C 421.070312 504.230469 422.070312 504.472656 423.121094 504.527344 C 424.167969 504.582031 425.191406 504.449219 426.1875 504.121094 L 437.621094 500.308594 L 442.097656 504.785156 L 438.292969 516.210938 C 437.960938 517.207031 437.820312 518.226562 437.878906 519.277344 C 437.933594 520.324219 438.179688 521.324219 438.613281 522.277344 C 438.972656 523.105469 439.285156 523.859375 439.59375 524.664062 C 439.960938 525.640625 440.492188 526.519531 441.191406 527.292969 C 441.890625 528.066406 442.707031 528.691406 443.640625 529.15625 L 454.414062 534.542969 L 454.414062 540.875 L 443.640625 546.269531 C 442.707031 546.734375 441.890625 547.355469 441.195312 548.128906 C 440.496094 548.898438 439.960938 549.773438 439.59375 550.746094 C 439.285156 551.574219 438.953125 552.402344 438.597656 553.183594 C 438.167969 554.132812 437.925781 555.125 437.871094 556.164062 C 437.820312 557.207031 437.960938 558.21875 438.292969 559.207031 L 442.097656 570.636719 L 437.621094 575.109375 L 426.1875 571.300781 C 425.191406 570.972656 424.167969 570.835938 423.121094 570.890625 C 422.070312 570.949219 421.070312 571.191406 420.113281 571.621094 C 419.347656 571.980469 418.5625 572.292969 417.757812 572.589844 C 416.773438 572.957031 415.894531 573.492188 415.113281 574.195312 C 414.332031 574.894531 413.707031 575.714844 413.238281 576.652344 L 407.851562 587.425781 L 401.515625 587.425781 L 396.128906 576.652344 C 395.660156 575.714844 395.035156 574.894531 394.253906 574.195312 C 393.476562 573.492188 392.59375 572.957031 391.609375 572.589844 C 390.78125 572.292969 390.019531 571.976562 389.257812 571.621094 C 388.300781 571.183594 387.296875 570.9375 386.25 570.882812 C 385.199219 570.828125 384.175781 570.964844 383.179688 571.300781 L 371.75 575.109375 L 367.273438 570.628906 L 371.078125 559.207031 C 371.410156 558.207031 371.550781 557.179688 371.492188 556.125 C 371.4375 555.074219 371.1875 554.066406 370.746094 553.109375 C 370.386719 552.34375 370.074219 551.550781 369.773438 550.753906 C 369.40625 549.777344 368.875 548.902344 368.175781 548.125 C 367.476562 547.351562 366.664062 546.730469 365.730469 546.261719 L 354.953125 540.875 Z M 354.953125 534.542969 " fill-opacity="1" fill-rule="nonzero"/></g><path fill="#000000" d="M 222.3125 653.734375 C 223.128906 653.734375 223.941406 653.695312 224.75 653.613281 C 225.5625 653.535156 226.367188 653.414062 227.164062 653.257812 C 227.964844 653.097656 228.753906 652.902344 229.53125 652.664062 C 230.3125 652.429688 231.078125 652.152344 231.832031 651.84375 C 232.582031 651.53125 233.316406 651.183594 234.035156 650.800781 C 234.753906 650.414062 235.453125 649.996094 236.128906 649.542969 C 236.808594 649.09375 237.460938 648.609375 238.089844 648.089844 C 238.71875 647.574219 239.324219 647.027344 239.898438 646.453125 C 240.476562 645.875 241.019531 645.273438 241.539062 644.644531 C 242.054688 644.015625 242.539062 643.363281 242.992188 642.683594 C 243.445312 642.007812 243.863281 641.308594 244.246094 640.59375 C 244.628906 639.875 244.976562 639.140625 245.289062 638.386719 C 245.601562 637.632812 245.875 636.867188 246.113281 636.089844 C 246.347656 635.308594 246.546875 634.519531 246.703125 633.722656 C 246.863281 632.925781 246.984375 632.121094 247.0625 631.308594 C 247.144531 630.5 247.183594 629.6875 247.183594 628.871094 C 247.183594 628.058594 247.144531 627.246094 247.0625 626.433594 C 246.984375 625.625 246.863281 624.820312 246.703125 624.023438 C 246.546875 623.222656 246.347656 622.433594 246.113281 621.65625 C 245.875 620.875 245.601562 620.109375 245.289062 619.359375 C 244.976562 618.605469 244.628906 617.871094 244.246094 617.152344 C 243.863281 616.433594 243.445312 615.738281 242.992188 615.058594 C 242.539062 614.382812 242.054688 613.730469 241.539062 613.097656 C 241.019531 612.46875 240.476562 611.867188 239.898438 611.292969 C 239.324219 610.714844 238.71875 610.167969 238.089844 609.652344 C 237.460938 609.136719 236.808594 608.652344 236.128906 608.199219 C 235.453125 607.746094 234.753906 607.328125 234.035156 606.945312 C 233.316406 606.5625 232.582031 606.214844 231.832031 605.902344 C 231.078125 605.589844 230.3125 605.316406 229.53125 605.082031 C 228.753906 604.84375 227.964844 604.644531 227.164062 604.488281 C 226.367188 604.328125 225.5625 604.210938 224.75 604.128906 C 223.941406 604.050781 223.128906 604.007812 222.3125 604.007812 C 221.5 604.007812 220.6875 604.050781 219.875 604.128906 C 219.066406 604.210938 218.261719 604.328125 217.460938 604.488281 C 216.664062 604.644531 215.875 604.84375 215.09375 605.082031 C 214.3125 605.316406 213.546875 605.589844 212.796875 605.902344 C 212.042969 606.214844 211.308594 606.5625 210.589844 606.945312 C 209.871094 607.328125 209.171875 607.746094 208.496094 608.199219 C 207.820312 608.652344 207.164062 609.136719 206.535156 609.652344 C 205.90625 610.167969 205.304688 610.714844 204.726562 611.292969 C 204.152344 611.867188 203.605469 612.46875 203.089844 613.097656 C 202.570312 613.730469 202.085938 614.382812 201.632812 615.058594 C 201.183594 615.738281 200.761719 616.433594 200.378906 617.152344 C 199.996094 617.871094 199.648438 618.605469 199.335938 619.359375 C 199.023438 620.109375 198.75 620.875 198.515625 621.65625 C 198.277344 622.433594 198.078125 623.222656 197.921875 624.023438 C 197.761719 624.820312 197.644531 625.625 197.5625 626.433594 C 197.484375 627.246094 197.441406 628.058594 197.441406 628.871094 C 197.441406 629.6875 197.484375 630.5 197.5625 631.308594 C 197.644531 632.121094 197.761719 632.925781 197.921875 633.722656 C 198.078125 634.519531 198.277344 635.308594 198.515625 636.089844 C 198.75 636.867188 199.023438 637.632812 199.335938 638.386719 C 199.648438 639.140625 199.996094 639.875 200.378906 640.59375 C 200.761719 641.308594 201.183594 642.007812 201.632812 642.683594 C 202.085938 643.363281 202.570312 644.015625 203.089844 644.644531 C 203.605469 645.273438 204.152344 645.875 204.726562 646.453125 C 205.304688 647.027344 205.90625 647.574219 206.535156 648.089844 C 207.164062 648.609375 207.820312 649.09375 208.496094 649.542969 C 209.171875 649.996094 209.871094 650.414062 210.589844 650.800781 C 211.308594 651.183594 212.042969 651.53125 212.796875 651.84375 C 213.546875 652.152344 214.3125 652.429688 215.09375 652.664062 C 215.875 652.902344 216.664062 653.097656 217.460938 653.257812 C 218.261719 653.414062 219.066406 653.535156 219.875 653.613281 C 220.6875 653.695312 221.5 653.734375 222.3125 653.734375 Z M 222.3125 620.585938 C 222.855469 620.585938 223.394531 620.636719 223.929688 620.742188 C 224.464844 620.851562 224.984375 621.007812 225.484375 621.214844 C 225.988281 621.421875 226.464844 621.679688 226.917969 621.980469 C 227.371094 622.285156 227.789062 622.628906 228.175781 623.011719 C 228.558594 623.398438 228.902344 623.816406 229.207031 624.269531 C 229.507812 624.71875 229.761719 625.199219 229.972656 625.699219 C 230.179688 626.203125 230.335938 626.722656 230.445312 627.253906 C 230.550781 627.789062 230.601562 628.328125 230.601562 628.871094 C 230.601562 629.417969 230.550781 629.957031 230.445312 630.488281 C 230.335938 631.023438 230.179688 631.539062 229.972656 632.042969 C 229.761719 632.546875 229.507812 633.023438 229.207031 633.476562 C 228.902344 633.929688 228.558594 634.347656 228.175781 634.730469 C 227.789062 635.117188 227.371094 635.460938 226.917969 635.761719 C 226.464844 636.066406 225.988281 636.320312 225.484375 636.527344 C 224.984375 636.738281 224.464844 636.894531 223.929688 637 C 223.394531 637.105469 222.855469 637.160156 222.3125 637.160156 C 221.769531 637.160156 221.230469 637.105469 220.695312 637 C 220.160156 636.894531 219.644531 636.738281 219.140625 636.527344 C 218.636719 636.320312 218.160156 636.066406 217.707031 635.761719 C 217.253906 635.460938 216.835938 635.117188 216.449219 634.730469 C 216.066406 634.347656 215.722656 633.929688 215.421875 633.476562 C 215.117188 633.023438 214.863281 632.546875 214.652344 632.042969 C 214.445312 631.539062 214.289062 631.023438 214.183594 630.488281 C 214.074219 629.957031 214.023438 629.417969 214.023438 628.871094 C 214.023438 628.328125 214.074219 627.789062 214.183594 627.253906 C 214.289062 626.722656 214.445312 626.203125 214.652344 625.699219 C 214.863281 625.199219 215.117188 624.71875 215.421875 624.269531 C 215.722656 623.816406 216.066406 623.398438 216.449219 623.011719 C 216.835938 622.628906 217.253906 622.285156 217.707031 621.980469 C 218.160156 621.679688 218.636719 621.421875 219.140625 621.214844 C 219.644531 621.007812 220.160156 620.851562 220.695312 620.742188 C 221.230469 620.636719 221.769531 620.585938 222.3125 620.585938 Z M 222.3125 620.585938 " fill-opacity="1" fill-rule="nonzero"/><path fill="#000000" d="M 160.578125 644.617188 L 171.355469 650.003906 L 167.597656 661.410156 C 167.355469 662.140625 167.214844 662.890625 167.179688 663.65625 C 167.144531 664.425781 167.214844 665.1875 167.390625 665.9375 C 167.566406 666.683594 167.84375 667.398438 168.21875 668.070312 C 168.59375 668.742188 169.050781 669.351562 169.597656 669.894531 L 181.328125 681.613281 C 181.871094 682.15625 182.480469 682.617188 183.152344 682.992188 C 183.824219 683.363281 184.535156 683.640625 185.285156 683.816406 C 186.03125 683.992188 186.792969 684.0625 187.558594 684.027344 C 188.328125 683.992188 189.078125 683.855469 189.808594 683.609375 L 201.257812 679.808594 L 206.644531 690.582031 C 206.988281 691.265625 207.417969 691.894531 207.933594 692.460938 C 208.449219 693.027344 209.03125 693.515625 209.683594 693.921875 C 210.335938 694.324219 211.03125 694.636719 211.765625 694.847656 C 212.503906 695.058594 213.253906 695.167969 214.023438 695.171875 L 230.601562 695.171875 C 231.375 695.171875 232.128906 695.066406 232.871094 694.855469 C 233.609375 694.648438 234.308594 694.339844 234.964844 693.933594 C 235.621094 693.53125 236.207031 693.042969 236.726562 692.476562 C 237.246094 691.90625 237.679688 691.277344 238.023438 690.589844 L 243.410156 679.816406 L 254.859375 683.621094 C 255.589844 683.863281 256.339844 684 257.105469 684.035156 C 257.875 684.070312 258.632812 684 259.382812 683.824219 C 260.132812 683.648438 260.84375 683.371094 261.515625 683 C 262.1875 682.625 262.796875 682.164062 263.339844 681.621094 L 275.070312 669.902344 C 275.613281 669.359375 276.074219 668.75 276.449219 668.078125 C 276.824219 667.40625 277.097656 666.695312 277.277344 665.945312 C 277.453125 665.195312 277.523438 664.433594 277.488281 663.667969 C 277.453125 662.898438 277.3125 662.148438 277.066406 661.417969 L 273.261719 649.980469 L 284.039062 644.585938 C 284.730469 644.242188 285.359375 643.808594 285.929688 643.289062 C 286.5 642.769531 286.988281 642.183594 287.394531 641.527344 C 287.800781 640.871094 288.109375 640.171875 288.316406 639.429688 C 288.527344 638.6875 288.632812 637.929688 288.632812 637.160156 L 288.632812 620.585938 C 288.632812 619.816406 288.527344 619.058594 288.316406 618.320312 C 288.109375 617.578125 287.800781 616.878906 287.394531 616.226562 C 286.992188 615.570312 286.503906 614.980469 285.933594 614.460938 C 285.367188 613.945312 284.738281 613.511719 284.046875 613.167969 L 273.269531 607.78125 L 277.078125 596.335938 C 277.320312 595.605469 277.460938 594.855469 277.496094 594.085938 C 277.53125 593.316406 277.460938 592.558594 277.285156 591.808594 C 277.109375 591.058594 276.832031 590.347656 276.457031 589.675781 C 276.082031 589.003906 275.625 588.394531 275.078125 587.847656 L 263.347656 576.128906 C 262.804688 575.585938 262.195312 575.128906 261.523438 574.753906 C 260.851562 574.378906 260.140625 574.105469 259.390625 573.929688 C 258.644531 573.75 257.882812 573.679688 257.117188 573.714844 C 256.347656 573.75 255.597656 573.890625 254.867188 574.132812 L 243.417969 577.9375 L 238.03125 567.164062 C 237.6875 566.472656 237.253906 565.84375 236.734375 565.273438 C 236.214844 564.703125 235.625 564.214844 234.96875 563.8125 C 234.316406 563.40625 233.617188 563.097656 232.875 562.886719 C 232.132812 562.675781 231.375 562.570312 230.601562 562.570312 L 214.023438 562.570312 C 213.253906 562.570312 212.496094 562.675781 211.757812 562.886719 C 211.015625 563.097656 210.316406 563.40625 209.660156 563.808594 C 209.007812 564.214844 208.417969 564.699219 207.898438 565.269531 C 207.378906 565.835938 206.949219 566.464844 206.601562 567.15625 L 201.214844 577.929688 L 189.765625 574.175781 C 189.035156 573.929688 188.289062 573.792969 187.519531 573.757812 C 186.75 573.722656 185.992188 573.792969 185.242188 573.96875 C 184.492188 574.144531 183.78125 574.421875 183.109375 574.796875 C 182.4375 575.167969 181.832031 575.628906 181.285156 576.171875 L 169.554688 587.847656 C 169.015625 588.394531 168.558594 589.007812 168.1875 589.679688 C 167.816406 590.355469 167.546875 591.066406 167.371094 591.816406 C 167.199219 592.5625 167.132812 593.324219 167.171875 594.089844 C 167.210938 594.859375 167.351562 595.605469 167.597656 596.335938 L 171.402344 607.78125 L 160.628906 613.167969 C 159.933594 613.507812 159.300781 613.9375 158.726562 614.457031 C 158.152344 614.972656 157.660156 615.558594 157.25 616.214844 C 156.84375 616.871094 156.53125 617.570312 156.316406 618.3125 C 156.101562 619.054688 155.996094 619.8125 155.992188 620.585938 L 155.992188 637.160156 C 155.988281 637.933594 156.089844 638.691406 156.300781 639.4375 C 156.507812 640.183594 156.816406 640.882812 157.21875 641.542969 C 157.625 642.203125 158.113281 642.792969 158.683594 643.316406 C 159.253906 643.839844 159.886719 644.273438 160.578125 644.617188 Z M 172.574219 625.707031 L 183.351562 620.320312 C 184.28125 619.851562 185.097656 619.230469 185.796875 618.457031 C 186.496094 617.679688 187.027344 616.804688 187.394531 615.828125 C 187.703125 615 188.035156 614.171875 188.390625 613.398438 C 188.820312 612.449219 189.0625 611.457031 189.117188 610.417969 C 189.167969 609.375 189.03125 608.363281 188.695312 607.375 L 184.890625 595.945312 L 189.367188 591.472656 L 200.800781 595.28125 C 201.796875 595.617188 202.820312 595.753906 203.871094 595.699219 C 204.917969 595.644531 205.921875 595.398438 206.878906 594.960938 C 207.640625 594.601562 208.425781 594.289062 209.230469 593.988281 C 210.214844 593.625 211.097656 593.089844 211.875 592.386719 C 212.65625 591.6875 213.28125 590.867188 213.75 589.929688 L 219.136719 579.15625 L 225.472656 579.15625 L 230.859375 589.929688 C 231.328125 590.867188 231.953125 591.6875 232.734375 592.386719 C 233.511719 593.089844 234.394531 593.625 235.378906 593.988281 C 236.207031 594.289062 236.96875 594.601562 237.730469 594.960938 C 238.6875 595.390625 239.691406 595.632812 240.742188 595.691406 C 241.789062 595.746094 242.8125 595.609375 243.808594 595.28125 L 255.242188 591.472656 L 259.71875 595.945312 L 255.914062 607.375 C 255.582031 608.371094 255.441406 609.390625 255.496094 610.4375 C 255.554688 611.484375 255.800781 612.488281 256.234375 613.441406 C 256.59375 614.226562 256.90625 615.023438 257.214844 615.828125 C 257.582031 616.804688 258.113281 617.679688 258.8125 618.457031 C 259.511719 619.230469 260.328125 619.851562 261.257812 620.320312 L 272.035156 625.707031 L 272.035156 632.039062 L 261.257812 637.433594 C 260.328125 637.898438 259.511719 638.515625 258.816406 639.289062 C 258.117188 640.0625 257.582031 640.933594 257.214844 641.910156 C 256.90625 642.738281 256.574219 643.566406 256.21875 644.34375 C 255.789062 645.292969 255.546875 646.289062 255.492188 647.328125 C 255.441406 648.367188 255.578125 649.382812 255.914062 650.371094 L 259.71875 661.796875 L 255.242188 666.273438 L 243.808594 662.460938 C 242.8125 662.132812 241.789062 662 240.742188 662.054688 C 239.691406 662.109375 238.6875 662.351562 237.730469 662.785156 C 236.96875 663.140625 236.183594 663.457031 235.378906 663.753906 C 234.394531 664.121094 233.511719 664.65625 232.734375 665.355469 C 231.953125 666.058594 231.328125 666.878906 230.859375 667.816406 L 225.472656 678.589844 L 219.144531 678.589844 L 213.757812 667.816406 C 213.289062 666.878906 212.664062 666.058594 211.882812 665.355469 C 211.105469 664.65625 210.222656 664.121094 209.238281 663.753906 C 208.410156 663.457031 207.648438 663.140625 206.886719 662.785156 C 205.929688 662.347656 204.925781 662.101562 203.878906 662.046875 C 202.828125 661.988281 201.804688 662.128906 200.808594 662.460938 L 189.375 666.273438 L 184.898438 661.789062 L 188.707031 650.371094 C 189.039062 649.371094 189.179688 648.34375 189.121094 647.289062 C 189.066406 646.234375 188.816406 645.230469 188.375 644.269531 C 188.015625 643.507812 187.703125 642.710938 187.402344 641.917969 C 187.035156 640.941406 186.503906 640.0625 185.804688 639.289062 C 185.105469 638.511719 184.292969 637.890625 183.359375 637.425781 L 172.574219 632.039062 Z M 172.574219 625.707031 " fill-opacity="1" fill-rule="nonzero"/><path fill="#000000" d="M 562.203125 628.871094 C 562.203125 629.6875 562.242188 630.5 562.320312 631.308594 C 562.402344 632.121094 562.519531 632.925781 562.679688 633.722656 C 562.839844 634.519531 563.035156 635.308594 563.273438 636.089844 C 563.507812 636.867188 563.785156 637.632812 564.09375 638.386719 C 564.40625 639.140625 564.753906 639.875 565.136719 640.59375 C 565.523438 641.308594 565.941406 642.007812 566.394531 642.683594 C 566.847656 643.363281 567.332031 644.015625 567.847656 644.644531 C 568.363281 645.273438 568.910156 645.875 569.484375 646.453125 C 570.0625 647.027344 570.664062 647.574219 571.292969 648.089844 C 571.925781 648.609375 572.578125 649.09375 573.253906 649.542969 C 573.933594 649.996094 574.628906 650.414062 575.347656 650.800781 C 576.066406 651.183594 576.800781 651.53125 577.554688 651.84375 C 578.308594 652.152344 579.074219 652.429688 579.851562 652.664062 C 580.632812 652.902344 581.421875 653.097656 582.21875 653.257812 C 583.019531 653.414062 583.824219 653.535156 584.632812 653.613281 C 585.445312 653.695312 586.257812 653.734375 587.070312 653.734375 C 587.886719 653.734375 588.699219 653.695312 589.507812 653.613281 C 590.320312 653.535156 591.125 653.414062 591.921875 653.257812 C 592.722656 653.097656 593.511719 652.902344 594.292969 652.664062 C 595.070312 652.429688 595.835938 652.152344 596.589844 651.84375 C 597.339844 651.53125 598.078125 651.183594 598.796875 650.800781 C 599.515625 650.414062 600.210938 649.996094 600.890625 649.542969 C 601.566406 649.09375 602.21875 648.609375 602.847656 648.089844 C 603.480469 647.574219 604.082031 647.027344 604.65625 646.453125 C 605.234375 645.875 605.78125 645.273438 606.296875 644.644531 C 606.8125 644.015625 607.296875 643.363281 607.75 642.683594 C 608.203125 642.007812 608.621094 641.308594 609.003906 640.59375 C 609.390625 639.875 609.738281 639.140625 610.046875 638.386719 C 610.359375 637.632812 610.632812 636.867188 610.871094 636.089844 C 611.105469 635.308594 611.304688 634.519531 611.464844 633.722656 C 611.621094 632.925781 611.742188 632.121094 611.820312 631.308594 C 611.902344 630.5 611.941406 629.6875 611.941406 628.871094 C 611.941406 628.058594 611.902344 627.246094 611.820312 626.433594 C 611.742188 625.625 611.621094 624.820312 611.464844 624.023438 C 611.304688 623.222656 611.105469 622.433594 610.871094 621.65625 C 610.632812 620.875 610.359375 620.109375 610.046875 619.359375 C 609.738281 618.605469 609.390625 617.871094 609.003906 617.152344 C 608.621094 616.433594 608.203125 615.738281 607.75 615.058594 C 607.296875 614.382812 606.8125 613.730469 606.296875 613.097656 C 605.78125 612.46875 605.234375 611.867188 604.65625 611.292969 C 604.082031 610.714844 603.480469 610.167969 602.847656 609.652344 C 602.21875 609.136719 601.566406 608.652344 600.890625 608.199219 C 600.210938 607.746094 599.515625 607.328125 598.796875 606.945312 C 598.078125 606.5625 597.339844 606.214844 596.589844 605.902344 C 595.835938 605.589844 595.070312 605.316406 594.292969 605.082031 C 593.511719 604.84375 592.722656 604.644531 591.921875 604.488281 C 591.125 604.328125 590.320312 604.210938 589.507812 604.128906 C 588.699219 604.050781 587.886719 604.007812 587.070312 604.007812 C 586.257812 604.007812 585.445312 604.050781 584.632812 604.128906 C 583.824219 604.210938 583.019531 604.328125 582.21875 604.488281 C 581.421875 604.644531 580.632812 604.84375 579.851562 605.082031 C 579.074219 605.316406 578.308594 605.589844 577.554688 605.902344 C 576.800781 606.214844 576.066406 606.5625 575.347656 606.945312 C 574.628906 607.328125 573.933594 607.746094 573.253906 608.199219 C 572.578125 608.652344 571.925781 609.136719 571.292969 609.652344 C 570.664062 610.167969 570.0625 610.714844 569.484375 611.292969 C 568.910156 611.867188 568.363281 612.46875 567.847656 613.101562 C 567.332031 613.730469 566.847656 614.382812 566.394531 615.058594 C 565.941406 615.738281 565.523438 616.433594 565.136719 617.152344 C 564.753906 617.871094 564.40625 618.605469 564.09375 619.359375 C 563.785156 620.109375 563.507812 620.875 563.273438 621.65625 C 563.035156 622.433594 562.839844 623.222656 562.679688 624.023438 C 562.519531 624.820312 562.402344 625.625 562.320312 626.433594 C 562.242188 627.246094 562.203125 628.058594 562.203125 628.871094 Z M 595.363281 628.871094 C 595.363281 629.417969 595.308594 629.957031 595.203125 630.488281 C 595.097656 631.023438 594.9375 631.539062 594.730469 632.042969 C 594.523438 632.546875 594.265625 633.023438 593.964844 633.476562 C 593.664062 633.929688 593.320312 634.347656 592.933594 634.730469 C 592.546875 635.117188 592.128906 635.460938 591.675781 635.761719 C 591.226562 636.066406 590.746094 636.320312 590.246094 636.527344 C 589.742188 636.738281 589.222656 636.894531 588.6875 637 C 588.15625 637.105469 587.617188 637.160156 587.070312 637.160156 C 586.527344 637.160156 585.988281 637.105469 585.453125 637 C 584.921875 636.894531 584.402344 636.738281 583.898438 636.527344 C 583.394531 636.320312 582.917969 636.066406 582.464844 635.761719 C 582.011719 635.460938 581.59375 635.117188 581.210938 634.730469 C 580.824219 634.347656 580.480469 633.929688 580.179688 633.476562 C 579.875 633.023438 579.621094 632.546875 579.414062 632.042969 C 579.203125 631.539062 579.046875 631.023438 578.941406 630.488281 C 578.835938 629.957031 578.78125 629.417969 578.78125 628.871094 C 578.78125 628.328125 578.835938 627.789062 578.941406 627.253906 C 579.046875 626.722656 579.203125 626.203125 579.414062 625.699219 C 579.621094 625.199219 579.875 624.71875 580.179688 624.269531 C 580.480469 623.816406 580.824219 623.398438 581.210938 623.011719 C 581.59375 622.628906 582.011719 622.285156 582.464844 621.980469 C 582.917969 621.679688 583.394531 621.421875 583.898438 621.214844 C 584.402344 621.007812 584.921875 620.851562 585.453125 620.742188 C 585.988281 620.636719 586.527344 620.585938 587.070312 620.585938 C 587.617188 620.585938 588.15625 620.636719 588.6875 620.742188 C 589.222656 620.851562 589.742188 621.007812 590.242188 621.214844 C 590.746094 621.421875 591.226562 621.679688 591.675781 621.980469 C 592.128906 622.285156 592.546875 622.628906 592.933594 623.011719 C 593.320312 623.398438 593.664062 623.816406 593.964844 624.269531 C 594.265625 624.71875 594.523438 625.199219 594.730469 625.699219 C 594.9375 626.203125 595.097656 626.722656 595.203125 627.253906 C 595.308594 627.789062 595.363281 628.328125 595.363281 628.871094 Z M 595.363281 628.871094 " fill-opacity="1" fill-rule="nonzero"/><path fill="#000000" d="M 578.78125 562.570312 C 578.007812 562.566406 577.25 562.671875 576.503906 562.878906 C 575.757812 563.085938 575.054688 563.394531 574.398438 563.796875 C 573.738281 564.203125 573.144531 564.691406 572.625 565.261719 C 572.101562 565.832031 571.667969 566.464844 571.320312 567.15625 L 565.933594 577.929688 L 554.523438 574.175781 C 553.796875 573.929688 553.046875 573.792969 552.277344 573.757812 C 551.507812 573.722656 550.75 573.792969 550 573.96875 C 549.253906 574.144531 548.542969 574.421875 547.871094 574.796875 C 547.199219 575.167969 546.589844 575.628906 546.042969 576.171875 L 534.3125 587.847656 C 533.769531 588.394531 533.308594 589.003906 532.9375 589.675781 C 532.5625 590.347656 532.285156 591.058594 532.109375 591.808594 C 531.933594 592.558594 531.863281 593.316406 531.898438 594.085938 C 531.933594 594.855469 532.070312 595.605469 532.316406 596.335938 L 536.121094 607.78125 L 525.34375 613.167969 C 524.65625 613.511719 524.023438 613.941406 523.457031 614.460938 C 522.886719 614.980469 522.398438 615.566406 521.992188 616.222656 C 521.585938 616.878906 521.277344 617.578125 521.070312 618.316406 C 520.859375 619.058594 520.753906 619.8125 520.753906 620.585938 L 520.753906 637.160156 C 520.75 637.929688 520.855469 638.683594 521.066406 639.425781 C 521.277344 640.167969 521.585938 640.863281 521.988281 641.519531 C 522.394531 642.175781 522.882812 642.761719 523.449219 643.28125 C 524.019531 643.800781 524.648438 644.234375 525.335938 644.578125 L 536.113281 649.972656 L 532.308594 661.410156 C 532.0625 662.140625 531.925781 662.890625 531.890625 663.65625 C 531.855469 664.425781 531.925781 665.1875 532.101562 665.9375 C 532.277344 666.683594 532.554688 667.398438 532.925781 668.070312 C 533.300781 668.742188 533.761719 669.351562 534.304688 669.894531 L 546.035156 681.613281 C 546.582031 682.15625 547.1875 682.617188 547.863281 682.992188 C 548.535156 683.363281 549.246094 683.640625 549.992188 683.816406 C 550.742188 683.992188 551.5 684.0625 552.269531 684.027344 C 553.039062 683.992188 553.789062 683.855469 554.515625 683.609375 L 565.964844 679.808594 L 571.355469 690.582031 C 571.699219 691.269531 572.128906 691.902344 572.648438 692.472656 C 573.171875 693.039062 573.757812 693.527344 574.414062 693.933594 C 575.070312 694.339844 575.769531 694.648438 576.511719 694.859375 C 577.253906 695.066406 578.011719 695.171875 578.78125 695.171875 L 595.363281 695.171875 C 596.136719 695.175781 596.894531 695.074219 597.640625 694.867188 C 598.386719 694.65625 599.085938 694.351562 599.746094 693.945312 C 600.40625 693.539062 600.996094 693.054688 601.519531 692.484375 C 602.042969 691.914062 602.476562 691.28125 602.824219 690.589844 L 608.210938 679.816406 L 619.660156 683.621094 C 620.390625 683.863281 621.140625 684 621.90625 684.035156 C 622.675781 684.070312 623.433594 684 624.183594 683.824219 C 624.933594 683.648438 625.644531 683.371094 626.316406 683 C 626.988281 682.625 627.597656 682.164062 628.140625 681.621094 L 639.871094 669.902344 C 640.414062 669.359375 640.875 668.75 641.25 668.078125 C 641.625 667.40625 641.898438 666.695312 642.074219 665.945312 C 642.253906 665.195312 642.324219 664.433594 642.289062 663.667969 C 642.253906 662.898438 642.113281 662.148438 641.867188 661.417969 L 638.0625 649.980469 L 648.839844 644.585938 C 649.527344 644.238281 650.152344 643.804688 650.71875 643.285156 C 651.285156 642.761719 651.769531 642.175781 652.171875 641.519531 C 652.570312 640.863281 652.875 640.164062 653.085938 639.425781 C 653.292969 638.683594 653.394531 637.929688 653.390625 637.160156 L 653.390625 620.585938 C 653.390625 619.816406 653.285156 619.058594 653.078125 618.320312 C 652.867188 617.578125 652.558594 616.878906 652.152344 616.226562 C 651.75 615.570312 651.261719 614.980469 650.695312 614.460938 C 650.125 613.945312 649.496094 613.511719 648.808594 613.167969 L 638.03125 607.78125 L 641.835938 596.335938 C 642.078125 595.605469 642.21875 594.855469 642.253906 594.085938 C 642.289062 593.316406 642.21875 592.558594 642.042969 591.808594 C 641.867188 591.058594 641.589844 590.347656 641.214844 589.675781 C 640.839844 589.003906 640.382812 588.394531 639.835938 587.847656 L 628.105469 576.128906 C 627.5625 575.585938 626.953125 575.128906 626.28125 574.753906 C 625.609375 574.378906 624.898438 574.105469 624.152344 573.929688 C 623.402344 573.75 622.644531 573.679688 621.875 573.714844 C 621.105469 573.75 620.355469 573.890625 619.625 574.132812 L 608.179688 577.9375 L 602.789062 567.164062 C 602.445312 566.472656 602.011719 565.84375 601.492188 565.273438 C 600.972656 564.703125 600.386719 564.214844 599.730469 563.8125 C 599.074219 563.40625 598.375 563.097656 597.632812 562.886719 C 596.890625 562.675781 596.132812 562.570312 595.363281 562.570312 Z M 600.144531 593.988281 C 600.972656 594.289062 601.738281 594.601562 602.5 594.960938 C 603.457031 595.390625 604.460938 595.632812 605.507812 595.691406 C 606.554688 595.746094 607.578125 595.609375 608.574219 595.28125 L 620.007812 591.472656 L 624.484375 595.945312 L 620.679688 607.375 C 620.347656 608.371094 620.210938 609.390625 620.265625 610.4375 C 620.320312 611.484375 620.566406 612.488281 621.003906 613.441406 C 621.359375 614.226562 621.675781 615.023438 621.980469 615.828125 C 622.347656 616.804688 622.882812 617.679688 623.578125 618.457031 C 624.277344 619.230469 625.09375 619.851562 626.027344 620.320312 L 636.804688 625.707031 L 636.804688 632.039062 L 626.027344 637.433594 C 625.09375 637.898438 624.28125 638.515625 623.582031 639.289062 C 622.882812 640.0625 622.351562 640.933594 621.980469 641.910156 C 621.683594 642.738281 621.367188 643.507812 621.011719 644.285156 C 620.566406 645.242188 620.316406 646.246094 620.261719 647.296875 C 620.203125 648.347656 620.34375 649.371094 620.679688 650.371094 L 624.484375 661.796875 L 620.007812 666.273438 L 608.574219 662.460938 C 607.578125 662.132812 606.554688 662 605.507812 662.054688 C 604.460938 662.109375 603.457031 662.351562 602.5 662.785156 C 601.738281 663.140625 600.949219 663.457031 600.144531 663.753906 C 599.164062 664.121094 598.28125 664.65625 597.5 665.355469 C 596.71875 666.058594 596.097656 666.878906 595.628906 667.816406 L 590.238281 678.589844 L 583.90625 678.589844 L 578.515625 667.816406 C 578.046875 666.878906 577.421875 666.058594 576.644531 665.355469 C 575.863281 664.65625 574.980469 664.121094 574 663.753906 C 573.167969 663.457031 572.40625 663.140625 571.644531 662.785156 C 570.6875 662.347656 569.6875 662.101562 568.636719 662.046875 C 567.585938 661.988281 566.5625 662.128906 565.566406 662.460938 L 554.136719 666.273438 L 549.660156 661.796875 L 553.464844 650.371094 C 553.796875 649.382812 553.9375 648.367188 553.882812 647.328125 C 553.828125 646.289062 553.589844 645.292969 553.15625 644.34375 C 552.800781 643.515625 552.46875 642.6875 552.164062 641.910156 C 551.792969 640.933594 551.261719 640.0625 550.5625 639.289062 C 549.863281 638.515625 549.046875 637.898438 548.117188 637.433594 L 537.332031 632.039062 L 537.332031 625.707031 L 548.109375 620.320312 C 549.042969 619.851562 549.859375 619.230469 550.554688 618.457031 C 551.253906 617.679688 551.785156 616.804688 552.15625 615.828125 C 552.46875 615 552.800781 614.171875 553.15625 613.390625 C 553.582031 612.441406 553.820312 611.449219 553.871094 610.410156 C 553.925781 609.371094 553.785156 608.359375 553.457031 607.375 L 549.652344 595.945312 L 554.128906 591.472656 L 565.558594 595.28125 C 566.554688 595.617188 567.578125 595.753906 568.628906 595.699219 C 569.679688 595.644531 570.679688 595.398438 571.636719 594.960938 C 572.398438 594.601562 573.1875 594.289062 573.988281 593.988281 C 574.972656 593.625 575.855469 593.089844 576.636719 592.386719 C 577.414062 591.6875 578.039062 590.867188 578.507812 589.929688 L 583.898438 579.15625 L 590.230469 579.15625 L 595.617188 589.929688 C 596.089844 590.867188 596.714844 591.6875 597.496094 592.390625 C 598.277344 593.089844 599.160156 593.625 600.144531 593.988281 Z M 600.144531 593.988281 " fill-opacity="1" fill-rule="nonzero"/><g clip-path="url(#655016551c)"><path fill="#000000" d="M 543.722656 785.714844 L 469.628906 811.195312 L 339.757812 811.195312 L 266.160156 785.902344 C 265.515625 785.636719 264.859375 785.402344 264.191406 785.199219 C 263.523438 784.992188 262.847656 784.820312 262.164062 784.683594 C 261.484375 784.542969 260.792969 784.4375 260.101562 784.363281 C 259.40625 784.289062 258.710938 784.25 258.015625 784.242188 C 257.316406 784.238281 256.621094 784.265625 255.925781 784.324219 C 255.230469 784.382812 254.539062 784.476562 253.855469 784.601562 C 253.167969 784.730469 252.488281 784.886719 251.820312 785.078125 C 251.148438 785.269531 250.488281 785.492188 249.839844 785.75 C 249.1875 786.003906 248.554688 786.289062 247.929688 786.601562 C 247.308594 786.917969 246.703125 787.261719 246.113281 787.636719 C 245.527344 788.011719 244.957031 788.410156 244.40625 788.839844 C 243.855469 789.265625 243.324219 789.71875 242.820312 790.199219 C 242.3125 790.679688 241.828125 791.179688 241.371094 791.703125 C 240.910156 792.230469 240.476562 792.777344 240.070312 793.34375 C 239.664062 793.910156 239.285156 794.492188 238.933594 795.097656 C 238.585938 795.699219 238.265625 796.316406 237.972656 796.949219 C 236.777344 799.617188 236.167969 802.410156 236.148438 805.328125 C 236.15625 806.371094 236.242188 807.402344 236.402344 808.429688 C 236.5625 809.457031 236.800781 810.46875 237.109375 811.460938 C 237.417969 812.453125 237.800781 813.417969 238.25 814.355469 C 238.703125 815.292969 239.222656 816.191406 239.804688 817.050781 C 240.390625 817.910156 241.035156 818.722656 241.738281 819.488281 C 242.441406 820.253906 243.199219 820.964844 244.007812 821.617188 C 244.816406 822.273438 245.667969 822.863281 246.566406 823.390625 C 247.460938 823.921875 248.390625 824.378906 249.355469 824.773438 L 327.785156 857.21875 L 330.125 860.53125 L 330.125 960.371094 C 330.125 960.917969 330.175781 961.457031 330.285156 961.988281 C 330.390625 962.523438 330.546875 963.039062 330.753906 963.542969 C 330.964844 964.046875 331.21875 964.523438 331.519531 964.976562 C 331.824219 965.429688 332.167969 965.847656 332.550781 966.230469 C 332.9375 966.617188 333.355469 966.960938 333.808594 967.261719 C 334.261719 967.566406 334.738281 967.820312 335.242188 968.027344 C 335.746094 968.238281 336.261719 968.394531 336.796875 968.5 C 337.332031 968.605469 337.871094 968.660156 338.414062 968.660156 L 471.011719 968.660156 C 471.554688 968.660156 472.09375 968.605469 472.628906 968.5 C 473.164062 968.394531 473.683594 968.238281 474.183594 968.027344 C 474.6875 967.820312 475.164062 967.566406 475.617188 967.261719 C 476.070312 966.960938 476.488281 966.617188 476.875 966.230469 C 477.257812 965.847656 477.601562 965.429688 477.90625 964.976562 C 478.207031 964.523438 478.460938 964.046875 478.671875 963.542969 C 478.878906 963.039062 479.035156 962.523438 479.144531 961.988281 C 479.25 961.457031 479.300781 960.917969 479.300781 960.371094 L 479.300781 860.53125 L 481.640625 857.21875 L 560.089844 824.765625 C 561.410156 824.226562 562.664062 823.558594 563.847656 822.769531 C 565.035156 821.976562 566.128906 821.074219 567.132812 820.0625 C 568.136719 819.050781 569.03125 817.949219 569.8125 816.753906 C 570.59375 815.5625 571.25 814.304688 571.777344 812.980469 C 572.289062 811.695312 572.671875 810.371094 572.917969 809.011719 C 573.164062 807.652344 573.273438 806.277344 573.242188 804.894531 C 573.214844 803.511719 573.046875 802.148438 572.742188 800.800781 C 572.433594 799.449219 571.996094 798.144531 571.429688 796.882812 C 571.144531 796.257812 570.832031 795.648438 570.488281 795.054688 C 570.144531 794.457031 569.773438 793.878906 569.375 793.320312 C 568.980469 792.761719 568.554688 792.21875 568.105469 791.699219 C 567.65625 791.179688 567.183594 790.683594 566.6875 790.207031 C 566.191406 789.734375 565.675781 789.28125 565.132812 788.855469 C 564.59375 788.429688 564.039062 788.03125 563.460938 787.660156 C 562.882812 787.285156 562.289062 786.941406 561.679688 786.625 C 561.070312 786.308594 560.445312 786.023438 559.808594 785.765625 C 559.171875 785.507812 558.523438 785.285156 557.863281 785.089844 C 557.207031 784.894531 556.539062 784.730469 555.863281 784.597656 C 555.191406 784.464844 554.511719 784.367188 553.828125 784.296875 C 553.144531 784.230469 552.457031 784.195312 551.769531 784.191406 C 551.082031 784.191406 550.398438 784.222656 549.714844 784.285156 C 549.03125 784.347656 548.351562 784.441406 547.675781 784.570312 C 547 784.699219 546.332031 784.855469 545.671875 785.046875 C 545.011719 785.238281 544.363281 785.460938 543.722656 785.714844 Z M 556.398438 806.863281 C 556.148438 807.457031 555.796875 807.976562 555.339844 808.425781 C 554.878906 808.875 554.351562 809.21875 553.753906 809.457031 L 473.101562 842.824219 C 471.621094 843.4375 470.421875 844.398438 469.496094 845.707031 L 464.265625 853.164062 C 463.25 854.59375 462.746094 856.1875 462.746094 857.9375 L 462.746094 952.085938 L 346.664062 952.085938 L 346.664062 857.90625 C 346.664062 856.152344 346.160156 854.5625 345.144531 853.132812 L 339.914062 845.671875 C 338.988281 844.367188 337.785156 843.40625 336.308594 842.789062 L 255.6875 809.441406 C 255.261719 809.285156 254.863281 809.070312 254.5 808.792969 C 254.136719 808.519531 253.820312 808.195312 253.554688 807.828125 C 253.285156 807.457031 253.078125 807.058594 252.929688 806.628906 C 252.78125 806.195312 252.703125 805.753906 252.6875 805.296875 C 252.710938 804.714844 252.847656 804.164062 253.09375 803.640625 C 253.253906 803.328125 253.445312 803.035156 253.660156 802.761719 C 253.878906 802.488281 254.125 802.242188 254.390625 802.015625 C 254.65625 801.789062 254.945312 801.59375 255.25 801.425781 C 255.558594 801.253906 255.878906 801.117188 256.210938 801.011719 C 256.546875 800.90625 256.886719 800.835938 257.234375 800.796875 C 257.582031 800.757812 257.929688 800.753906 258.277344 800.785156 C 258.625 800.816406 258.96875 800.878906 259.304688 800.980469 C 259.640625 801.078125 259.960938 801.207031 260.273438 801.367188 L 335.710938 827.308594 C 336.574219 827.605469 337.460938 827.761719 338.371094 827.773438 L 471.011719 827.773438 C 471.933594 827.769531 472.832031 827.621094 473.707031 827.324219 L 549.601562 801.195312 C 549.902344 801.0625 550.214844 800.960938 550.539062 800.890625 C 550.859375 800.820312 551.183594 800.78125 551.515625 800.773438 C 551.84375 800.761719 552.171875 800.785156 552.496094 800.839844 C 552.820312 800.894531 553.136719 800.976562 553.445312 801.09375 C 553.753906 801.207031 554.050781 801.351562 554.332031 801.523438 C 554.613281 801.695312 554.875 801.890625 555.117188 802.113281 C 555.363281 802.332031 555.582031 802.574219 555.78125 802.839844 C 555.976562 803.105469 556.148438 803.382812 556.292969 803.679688 C 556.777344 804.726562 556.8125 805.785156 556.398438 806.863281 Z M 556.398438 806.863281 " fill-opacity="1" fill-rule="nonzero"/></g><path fill="#000000" d="M 437.851562 927.222656 L 454.433594 927.222656 L 454.433594 943.796875 L 437.851562 943.796875 Z M 437.851562 927.222656 " fill-opacity="1" fill-rule="nonzero"/><path fill="#000000" d="M 412.980469 927.222656 L 429.5625 927.222656 L 429.5625 943.796875 L 412.980469 943.796875 Z M 412.980469 927.222656 " fill-opacity="1" fill-rule="nonzero"/><path fill="#000000" d="M 437.851562 902.359375 L 454.433594 902.359375 L 454.433594 918.933594 L 437.851562 918.933594 Z M 437.851562 902.359375 " fill-opacity="1" fill-rule="nonzero"/><path fill="#000000" d="M 230.238281 778.046875 C 228.015625 778.082031 225.808594 777.949219 223.605469 777.648438 C 221.40625 777.351562 219.238281 776.886719 217.109375 776.261719 C 214.976562 775.632812 212.90625 774.847656 210.894531 773.910156 C 208.882812 772.96875 206.953125 771.882812 205.105469 770.648438 C 203.257812 769.414062 201.515625 768.050781 199.875 766.554688 C 198.234375 765.058594 196.714844 763.445312 195.316406 761.71875 C 193.921875 759.992188 192.664062 758.171875 191.542969 756.253906 C 190.421875 754.339844 189.449219 752.347656 188.628906 750.285156 C 187.757812 747.785156 187.121094 745.226562 186.726562 742.605469 C 186.332031 739.988281 186.183594 737.355469 186.285156 734.710938 C 186.382812 732.0625 186.726562 729.449219 187.316406 726.867188 C 187.90625 724.285156 188.730469 721.78125 189.792969 719.355469 L 198.835938 732.921875 L 212.628906 723.722656 L 196.050781 698.859375 C 195.3125 697.75 194.363281 696.871094 193.199219 696.222656 C 192.039062 695.570312 190.789062 695.222656 189.460938 695.171875 C 188.683594 695.226562 187.929688 695.386719 187.195312 695.644531 L 187.148438 695.421875 L 153.988281 703.707031 L 158 719.785156 L 173.402344 715.941406 C 172.1875 719.144531 171.269531 722.429688 170.640625 725.796875 C 170.011719 729.164062 169.683594 732.558594 169.660156 735.984375 C 169.636719 739.40625 169.914062 742.808594 170.492188 746.183594 C 171.074219 749.558594 171.945312 752.855469 173.113281 756.078125 C 173.667969 757.5 174.277344 758.898438 174.941406 760.277344 C 175.601562 761.652344 176.316406 763 177.078125 764.324219 C 177.84375 765.644531 178.65625 766.9375 179.519531 768.199219 C 180.382812 769.460938 181.289062 770.6875 182.242188 771.878906 C 183.199219 773.070312 184.195312 774.226562 185.238281 775.34375 C 186.28125 776.460938 187.363281 777.539062 188.488281 778.574219 C 189.609375 779.609375 190.769531 780.597656 191.96875 781.546875 C 193.167969 782.496094 194.398438 783.394531 195.667969 784.25 C 196.933594 785.105469 198.230469 785.910156 199.554688 786.667969 C 200.882812 787.421875 202.238281 788.128906 203.617188 788.78125 C 205 789.4375 206.402344 790.039062 207.828125 790.585938 C 209.253906 791.132812 210.699219 791.628906 212.164062 792.066406 C 213.625 792.503906 215.105469 792.890625 216.597656 793.214844 C 218.089844 793.542969 219.589844 793.816406 221.105469 794.027344 C 222.617188 794.242188 224.136719 794.398438 225.660156 794.496094 C 227.183594 794.597656 228.710938 794.636719 230.238281 794.621094 L 230.660156 794.621094 L 230.546875 778.046875 Z M 230.238281 778.046875 " fill-opacity="1" fill-rule="nonzero"/><path fill="#000000" d="M 655.398438 703.707031 L 622.238281 695.421875 L 622.179688 695.644531 C 621.449219 695.386719 620.699219 695.226562 619.925781 695.171875 C 618.585938 695.214844 617.332031 695.5625 616.160156 696.214844 C 614.992188 696.863281 614.035156 697.746094 613.292969 698.859375 L 596.714844 723.722656 L 610.507812 732.921875 L 619.550781 719.355469 C 620.613281 721.78125 621.4375 724.289062 622.027344 726.871094 C 622.617188 729.453125 622.960938 732.066406 623.058594 734.714844 C 623.160156 737.359375 623.011719 739.992188 622.617188 742.613281 C 622.222656 745.230469 621.585938 747.792969 620.710938 750.292969 C 619.894531 752.355469 618.921875 754.34375 617.804688 756.257812 C 616.683594 758.171875 615.425781 759.992188 614.03125 761.71875 C 612.636719 763.441406 611.117188 765.050781 609.480469 766.546875 C 607.839844 768.042969 606.097656 769.40625 604.253906 770.640625 C 602.40625 771.871094 600.480469 772.957031 598.46875 773.898438 C 596.460938 774.839844 594.390625 775.625 592.261719 776.253906 C 590.132812 776.878906 587.972656 777.34375 585.773438 777.644531 C 583.574219 777.945312 581.367188 778.082031 579.148438 778.046875 L 578.839844 778.046875 L 578.722656 794.621094 L 579.148438 794.621094 C 580.675781 794.640625 582.199219 794.597656 583.726562 794.5 C 585.25 794.402344 586.769531 794.246094 588.28125 794.03125 C 589.796875 793.816406 591.296875 793.546875 592.792969 793.21875 C 594.285156 792.894531 595.761719 792.511719 597.226562 792.070312 C 598.691406 791.632812 600.132812 791.140625 601.5625 790.59375 C 602.988281 790.042969 604.390625 789.441406 605.773438 788.789062 C 607.152344 788.136719 608.507812 787.429688 609.835938 786.675781 C 611.164062 785.917969 612.460938 785.113281 613.726562 784.257812 C 614.992188 783.402344 616.226562 782.503906 617.425781 781.554688 C 618.625 780.609375 619.785156 779.617188 620.910156 778.582031 C 622.03125 777.546875 623.113281 776.46875 624.15625 775.351562 C 625.199219 774.234375 626.199219 773.082031 627.152344 771.890625 C 628.109375 770.695312 629.015625 769.46875 629.878906 768.207031 C 630.742188 766.949219 631.554688 765.65625 632.320312 764.332031 C 633.085938 763.011719 633.796875 761.660156 634.460938 760.285156 C 635.121094 758.90625 635.734375 757.507812 636.289062 756.085938 C 637.457031 752.863281 638.328125 749.566406 638.910156 746.1875 C 639.488281 742.8125 639.765625 739.414062 639.742188 735.988281 C 639.714844 732.5625 639.390625 729.164062 638.761719 725.796875 C 638.132812 722.429688 637.210938 719.144531 636 715.941406 L 651.386719 719.785156 Z M 655.398438 703.707031 " fill-opacity="1" fill-rule="nonzero"/><path fill="#000000" d="M 230.601562 545.996094 L 330.082031 545.996094 L 330.082031 529.421875 L 222.3125 529.421875 C 221.769531 529.421875 221.230469 529.476562 220.695312 529.582031 C 220.160156 529.6875 219.644531 529.84375 219.140625 530.054688 C 218.636719 530.261719 218.160156 530.515625 217.707031 530.820312 C 217.253906 531.121094 216.835938 531.464844 216.449219 531.847656 C 216.066406 532.234375 215.722656 532.652344 215.421875 533.105469 C 215.117188 533.558594 214.863281 534.035156 214.652344 534.539062 C 214.445312 535.039062 214.289062 535.558594 214.183594 536.09375 C 214.074219 536.625 214.023438 537.164062 214.023438 537.710938 L 214.023438 554.285156 L 230.601562 554.285156 Z M 230.601562 545.996094 " fill-opacity="1" fill-rule="nonzero"/><path fill="#000000" d="M 578.78125 554.285156 L 595.363281 554.285156 L 595.363281 537.710938 C 595.363281 537.164062 595.308594 536.625 595.203125 536.09375 C 595.097656 535.558594 594.9375 535.039062 594.730469 534.539062 C 594.523438 534.035156 594.265625 533.558594 593.964844 533.105469 C 593.664062 532.652344 593.320312 532.234375 592.933594 531.847656 C 592.546875 531.464844 592.128906 531.121094 591.675781 530.820312 C 591.226562 530.515625 590.746094 530.261719 590.246094 530.054688 C 589.742188 529.84375 589.222656 529.6875 588.6875 529.582031 C 588.15625 529.476562 587.617188 529.421875 587.070312 529.421875 L 479.300781 529.421875 L 479.300781 545.996094 L 578.78125 545.996094 Z M 578.78125 554.285156 " fill-opacity="1" fill-rule="nonzero"/></svg>