<svg xmlns="http://www.w3.org/2000/svg" xmlns:xlink="http://www.w3.org/1999/xlink" width="1080" zoomAndPan="magnify" viewBox="0 0 810 809.999993" height="1080" preserveAspectRatio="xMidYMid meet" version="1.0"><defs><clipPath id="061bef4711"><path d="M 33.445312 545 L 776.695312 545 L 776.695312 696.75 L 33.445312 696.75 Z M 33.445312 545 " clip-rule="nonzero"/></clipPath></defs><g clip-path="url(#061bef4711)"><path fill="#000000" d="M 765.082031 545.597656 L 45.058594 545.597656 C 38.671875 545.597656 33.445312 550.824219 33.445312 557.207031 C 33.445312 563.59375 38.671875 568.816406 45.058594 568.816406 L 103.125 568.816406 L 103.125 684.90625 C 103.125 691.292969 108.351562 696.515625 114.738281 696.515625 C 121.125 696.515625 126.351562 691.292969 126.351562 684.90625 L 126.351562 568.234375 L 683.789062 568.234375 L 683.789062 684.90625 C 683.789062 691.292969 689.015625 696.515625 695.402344 696.515625 C 701.789062 696.515625 707.015625 691.292969 707.015625 684.90625 L 707.015625 568.234375 L 765.082031 568.234375 C 771.46875 568.234375 776.695312 563.011719 776.695312 556.628906 C 776.695312 550.824219 771.46875 545.597656 765.082031 545.597656 Z M 765.082031 545.597656 " fill-opacity="1" fill-rule="nonzero"/></g><path fill="#000000" d="M 254.097656 116.058594 C 215.773438 116.058594 184.417969 147.40625 184.417969 185.714844 C 184.417969 224.023438 215.773438 255.371094 254.097656 255.371094 C 292.421875 255.371094 323.777344 224.023438 323.777344 185.714844 C 323.777344 147.40625 292.421875 116.058594 254.097656 116.058594 Z M 254.097656 116.058594 " fill-opacity="1" fill-rule="nonzero"/><path fill="#000000" d="M 556.042969 116.058594 C 517.71875 116.058594 486.363281 147.40625 486.363281 185.714844 C 486.363281 224.023438 517.71875 255.371094 556.042969 255.371094 C 594.367188 255.371094 625.722656 224.023438 625.722656 185.714844 C 625.722656 147.40625 594.367188 116.058594 556.042969 116.058594 Z M 556.042969 116.058594 " fill-opacity="1" fill-rule="nonzero"/><path fill="#000000" d="M 306.359375 394.679688 C 306.359375 380.75 297.066406 368.558594 283.710938 363.914062 L 225.066406 345.339844 L 225.066406 327.925781 C 225.066406 321.542969 219.839844 316.316406 213.453125 316.316406 C 207.066406 316.316406 201.839844 321.542969 201.839844 327.925781 L 201.839844 353.46875 C 201.839844 358.691406 205.324219 362.753906 209.96875 364.496094 C 209.96875 364.496094 276.746094 385.972656 276.746094 385.972656 C 283.710938 388.292969 284.875 397 279.066406 401.644531 C 276.746094 403.386719 273.839844 403.96875 270.9375 402.804688 L 229.128906 389.457031 C 223.324219 387.714844 216.355469 391.195312 214.613281 397 C 212.871094 402.804688 216.355469 409.773438 222.160156 411.511719 C 222.160156 411.511719 263.96875 424.863281 263.96875 424.863281 C 284.292969 431.25 306.359375 415.574219 306.359375 394.679688 Z M 306.359375 394.679688 " fill-opacity="1" fill-rule="nonzero"/><path fill="#000000" d="M 595.527344 397.582031 C 593.785156 391.195312 586.820312 388.292969 581.011719 390.035156 C 581.011719 390.035156 539.203125 403.386719 539.203125 403.386719 C 533.398438 404.546875 527.011719 400.484375 527.011719 394.679688 C 527.011719 390.617188 529.332031 387.714844 533.398438 385.972656 L 600.175781 364.496094 C 604.820312 362.753906 608.304688 358.691406 608.304688 353.46875 L 608.304688 327.925781 C 608.304688 321.542969 603.078125 316.316406 596.691406 316.316406 C 590.304688 316.316406 585.078125 321.542969 585.078125 327.925781 L 585.078125 345.339844 L 526.429688 363.914062 C 513.074219 367.980469 503.785156 380.75 503.785156 394.679688 C 503.785156 405.128906 508.429688 414.414062 517.140625 420.21875 C 525.269531 426.023438 536.300781 427.765625 546.171875 424.863281 L 587.980469 411.511719 C 594.367188 409.773438 597.851562 403.386719 595.527344 397.582031 Z M 595.527344 397.582031 " fill-opacity="1" fill-rule="nonzero"/><path fill="#000000" d="M 447.460938 112.578125 L 425.394531 109.09375 L 415.523438 88.199219 C 413.78125 84.136719 409.714844 81.234375 405.070312 81.234375 C 400.425781 81.234375 396.359375 83.554688 394.617188 88.199219 L 384.746094 109.09375 L 362.683594 112.578125 C 358.617188 113.15625 354.554688 116.058594 353.390625 120.125 C 352.230469 124.1875 352.8125 128.832031 356.296875 131.734375 L 372.554688 148.566406 L 368.488281 172.363281 C 367.910156 177.007812 369.652344 181.070312 373.132812 183.972656 C 376.617188 186.296875 381.265625 186.875 385.328125 184.554688 L 405.070312 173.527344 C 405.070312 173.527344 424.8125 184.554688 424.8125 184.554688 C 428.878906 186.875 433.523438 186.296875 437.007812 183.972656 C 440.492188 181.652344 442.234375 177.007812 441.652344 172.363281 L 437.589844 148.566406 L 453.847656 131.734375 C 456.75 128.832031 457.910156 124.1875 456.75 120.125 C 455.589844 116.058594 451.523438 113.15625 447.460938 112.578125 Z M 447.460938 112.578125 " fill-opacity="1" fill-rule="nonzero"/><path fill="#000000" d="M 290.097656 268.140625 L 295.324219 269.882812 L 300.550781 269.882812 C 314.488281 269.882812 327.84375 275.105469 337.714844 283.230469 L 374.875 294.839844 C 365.003906 272.203125 344.101562 254.789062 319.132812 248.984375 C 311.003906 257.113281 301.132812 263.496094 290.097656 268.140625 Z M 290.097656 268.140625 " fill-opacity="1" fill-rule="nonzero"/><path fill="#000000" d="M 435.265625 294.839844 L 472.429688 283.230469 C 482.300781 275.105469 495.65625 269.882812 509.589844 269.882812 L 514.816406 269.882812 L 520.042969 268.140625 C 509.011719 263.496094 499.136719 257.113281 491.007812 248.984375 C 466.039062 254.789062 445.136719 272.203125 435.265625 294.839844 Z M 435.265625 294.839844 " fill-opacity="1" fill-rule="nonzero"/><path fill="#000000" d="M 207.644531 269.882812 L 222.160156 269.882812 C 209.386719 265.238281 198.355469 258.273438 189.0625 248.984375 C 153.0625 257.113281 126.351562 289.035156 126.351562 326.765625 L 126.351562 464.335938 L 68.285156 464.335938 C 61.898438 464.335938 56.671875 469.558594 56.671875 475.945312 C 56.671875 482.328125 61.898438 487.550781 68.285156 487.550781 L 252.9375 487.550781 C 244.808594 482.328125 239 474.203125 237.257812 464.335938 L 149.578125 464.335938 L 149.578125 326.765625 C 149.578125 295.421875 175.707031 269.882812 207.644531 269.882812 Z M 207.644531 269.882812 " fill-opacity="1" fill-rule="nonzero"/><path fill="#000000" d="M 621.078125 248.984375 C 611.789062 258.273438 600.175781 265.238281 587.980469 269.882812 L 602.496094 269.882812 C 634.433594 269.882812 660.5625 295.421875 660.5625 326.765625 L 660.5625 464.335938 L 572.882812 464.335938 C 571.140625 474.203125 565.335938 482.328125 557.203125 487.550781 L 741.855469 487.550781 C 748.242188 487.550781 753.46875 482.328125 753.46875 475.945312 C 753.46875 469.558594 748.242188 464.335938 741.855469 464.335938 L 683.789062 464.335938 L 683.789062 326.765625 C 683.789062 289.035156 657.078125 257.113281 621.078125 248.984375 Z M 621.078125 248.984375 " fill-opacity="1" fill-rule="nonzero"/><path fill="#000000" d="M 267.453125 468.976562 C 267.453125 468.976562 401.007812 518.898438 401.007812 518.898438 C 403.328125 520.058594 406.8125 520.058594 409.136719 518.898438 L 542.6875 468.976562 C 547.332031 467.238281 550.238281 463.171875 550.238281 457.949219 L 550.238281 447.5 C 545.589844 448.660156 540.945312 449.242188 536.300781 449.242188 C 524.105469 449.242188 512.492188 445.179688 503.203125 438.792969 C 489.265625 428.347656 480.558594 412.09375 480.558594 394.679688 C 480.558594 370.300781 496.234375 349.402344 519.460938 341.859375 L 550.238281 331.992188 C 550.238281 331.992188 550.238281 298.90625 550.238281 298.90625 C 550.238281 291.359375 542.6875 285.554688 535.140625 287.875 L 405.070312 328.507812 C 405.070312 328.507812 275.003906 287.875 275.003906 287.875 C 267.453125 285.554688 259.90625 291.359375 259.90625 298.90625 L 259.90625 331.992188 L 290.679688 341.859375 C 313.90625 349.402344 329.585938 370.300781 329.585938 394.679688 C 329.585938 424.863281 304.035156 449.824219 273.839844 449.824219 C 269.195312 449.824219 264.550781 449.242188 259.90625 448.082031 L 259.90625 458.53125 C 259.90625 463.171875 262.808594 467.238281 267.453125 468.976562 Z M 267.453125 468.976562 " fill-opacity="1" fill-rule="nonzero"/></svg>