<svg xmlns="http://www.w3.org/2000/svg" xmlns:xlink="http://www.w3.org/1999/xlink" width="1080" zoomAndPan="magnify" viewBox="0 0 810 809.999993" height="1080" preserveAspectRatio="xMidYMid meet" version="1.0"><path fill="#000000" d="M 758.191406 187.941406 L 721.914062 187.941406 L 721.914062 160.6875 C 721.945312 159.800781 721.828125 158.933594 721.566406 158.085938 C 721.300781 157.238281 720.90625 156.460938 720.378906 155.746094 C 719.851562 155.035156 719.222656 154.425781 718.488281 153.929688 C 717.753906 153.429688 716.960938 153.0625 716.105469 152.832031 C 542.335938 105.707031 429.03125 170.347656 404.847656 186.292969 C 380.660156 170.585938 267.355469 105.394531 93.589844 153.226562 C 92.738281 153.464844 91.953125 153.832031 91.226562 154.335938 C 90.503906 154.839844 89.882812 155.445312 89.363281 156.160156 C 88.839844 156.871094 88.453125 157.648438 88.195312 158.492188 C 87.9375 159.335938 87.824219 160.199219 87.855469 161.082031 L 87.855469 188.257812 L 51.5 188.257812 C 50.984375 188.257812 50.476562 188.308594 49.96875 188.40625 C 49.464844 188.507812 48.972656 188.65625 48.496094 188.855469 C 48.019531 189.050781 47.566406 189.292969 47.140625 189.582031 C 46.710938 189.867188 46.3125 190.191406 45.949219 190.558594 C 45.585938 190.921875 45.257812 191.320312 44.972656 191.746094 C 44.6875 192.175781 44.445312 192.628906 44.246094 193.105469 C 44.050781 193.582031 43.902344 194.074219 43.800781 194.578125 C 43.699219 195.085938 43.648438 195.59375 43.648438 196.109375 L 43.648438 573.117188 C 43.648438 573.632812 43.699219 574.144531 43.800781 574.652344 C 43.902344 575.15625 44.050781 575.648438 44.246094 576.125 C 44.445312 576.601562 44.6875 577.054688 44.972656 577.480469 C 45.257812 577.910156 45.585938 578.308594 45.949219 578.671875 C 46.3125 579.039062 46.710938 579.363281 47.140625 579.648438 C 47.566406 579.9375 48.019531 580.179688 48.496094 580.375 C 48.972656 580.574219 49.464844 580.722656 49.96875 580.820312 C 50.476562 580.921875 50.984375 580.972656 51.5 580.972656 L 390.632812 580.972656 L 400.683594 645.691406 C 400.789062 646.375 400.984375 647.035156 401.265625 647.664062 C 401.542969 648.296875 401.902344 648.882812 402.335938 649.421875 C 402.769531 649.957031 403.265625 650.429688 403.824219 650.835938 C 404.382812 651.246094 404.984375 651.570312 405.632812 651.820312 C 406.28125 652.074219 406.957031 652.238281 407.652344 652.3125 C 408.34375 652.386719 409.039062 652.367188 409.726562 652.257812 C 410.417969 652.148438 411.082031 651.949219 411.71875 651.660156 C 412.355469 651.375 412.945312 651.007812 413.484375 650.5625 L 453.292969 618.046875 L 520.980469 701.066406 C 521.304688 701.464844 521.667969 701.832031 522.066406 702.160156 C 522.464844 702.488281 522.894531 702.777344 523.347656 703.019531 C 523.804688 703.265625 524.277344 703.460938 524.773438 703.613281 C 525.269531 703.761719 525.773438 703.863281 526.285156 703.914062 C 526.800781 703.964844 527.316406 703.96875 527.828125 703.917969 C 528.34375 703.867188 528.847656 703.765625 529.34375 703.617188 C 529.835938 703.464844 530.3125 703.269531 530.769531 703.023438 C 531.222656 702.78125 531.652344 702.492188 532.050781 702.164062 L 596.832031 649.304688 C 597.652344 648.648438 598.316406 647.855469 598.820312 646.929688 C 599.324219 646 599.628906 645.015625 599.734375 643.964844 C 599.8125 642.933594 599.703125 641.925781 599.40625 640.9375 C 599.105469 639.949219 598.640625 639.046875 598.007812 638.230469 L 550.894531 580.972656 L 758.191406 580.972656 C 758.707031 580.972656 759.21875 580.921875 759.722656 580.820312 C 760.230469 580.722656 760.71875 580.574219 761.195312 580.375 C 761.671875 580.175781 762.125 579.9375 762.554688 579.648438 C 762.980469 579.363281 763.378906 579.035156 763.742188 578.671875 C 764.109375 578.308594 764.433594 577.910156 764.71875 577.480469 C 765.007812 577.054688 765.25 576.601562 765.445312 576.125 C 765.644531 575.648438 765.792969 575.15625 765.890625 574.652344 C 765.992188 574.144531 766.042969 573.632812 766.042969 573.117188 L 766.042969 196.109375 C 766.0625 195.582031 766.03125 195.054688 765.949219 194.535156 C 765.863281 194.011719 765.726562 193.503906 765.539062 193.007812 C 765.351562 192.515625 765.113281 192.042969 764.832031 191.59375 C 764.550781 191.148438 764.222656 190.734375 763.859375 190.351562 C 763.492188 189.972656 763.089844 189.628906 762.652344 189.328125 C 762.21875 189.03125 761.757812 188.777344 761.269531 188.570312 C 760.785156 188.363281 760.28125 188.207031 759.761719 188.101562 C 759.242188 187.996094 758.71875 187.941406 758.191406 187.941406 Z M 412.699219 203.652344 L 412.699219 199.960938 C 432.328125 187.234375 541.394531 123.617188 706.210938 166.8125 L 706.210938 496.695312 C 690.710938 492.550781 675.03125 489.289062 659.167969 486.90625 C 643.300781 484.519531 627.355469 483.03125 611.324219 482.4375 C 595.292969 481.839844 579.277344 482.144531 563.28125 483.347656 C 547.28125 484.550781 531.402344 486.644531 515.640625 489.628906 L 484.230469 478.082031 C 490.394531 473.988281 496.214844 469.457031 501.691406 464.480469 C 507.167969 459.503906 512.234375 454.140625 516.894531 448.394531 C 521.554688 442.648438 525.753906 436.582031 529.492188 430.195312 C 533.230469 423.808594 536.464844 417.175781 539.195312 410.296875 C 549 407.566406 558.945312 405.511719 569.027344 404.132812 C 579.113281 402.753906 589.242188 402.0625 599.421875 402.0625 C 609.597656 402.0625 619.730469 402.753906 629.8125 404.132812 C 639.898438 405.511719 649.84375 407.566406 659.648438 410.296875 C 660.132812 410.472656 660.632812 410.597656 661.144531 410.671875 C 661.65625 410.75 662.171875 410.773438 662.6875 410.746094 C 663.203125 410.71875 663.714844 410.644531 664.214844 410.515625 C 664.71875 410.390625 665.203125 410.214844 665.667969 409.992188 C 666.136719 409.769531 666.574219 409.503906 666.992188 409.195312 C 667.40625 408.882812 667.785156 408.539062 668.128906 408.152344 C 668.476562 407.765625 668.78125 407.351562 669.042969 406.90625 C 669.308594 406.460938 669.527344 405.996094 669.699219 405.507812 C 669.867188 405.023438 669.988281 404.53125 670.058594 404.023438 C 670.132812 403.519531 670.15625 403.011719 670.128906 402.5 C 670.101562 401.988281 670.027344 401.484375 669.902344 400.988281 C 669.777344 400.496094 669.605469 400.015625 669.386719 399.554688 C 669.167969 399.089844 668.910156 398.652344 668.605469 398.242188 C 668.300781 397.832031 667.960938 397.453125 667.582031 397.109375 C 667.207031 396.765625 666.800781 396.457031 666.363281 396.195312 C 665.925781 395.929688 665.464844 395.707031 664.988281 395.53125 C 655.273438 392.617188 645.414062 390.347656 635.402344 388.730469 C 625.394531 387.113281 615.320312 386.15625 605.1875 385.867188 C 595.050781 385.574219 584.9375 385.949219 574.851562 386.988281 C 564.765625 388.027344 554.792969 389.722656 544.929688 392.078125 C 548.101562 380.613281 549.832031 368.9375 550.109375 357.046875 C 550.070312 343.703125 548.238281 330.613281 544.613281 317.773438 C 554.074219 315.378906 563.648438 313.609375 573.339844 312.46875 C 583.027344 311.328125 592.753906 310.824219 602.507812 310.953125 C 612.265625 311.085938 621.972656 311.855469 631.628906 313.261719 C 641.285156 314.664062 650.804688 316.691406 660.195312 319.34375 C 660.683594 319.519531 661.183594 319.644531 661.695312 319.722656 C 662.207031 319.796875 662.722656 319.824219 663.238281 319.800781 C 663.753906 319.773438 664.265625 319.699219 664.765625 319.574219 C 665.269531 319.449219 665.753906 319.277344 666.222656 319.054688 C 666.691406 318.835938 667.132812 318.570312 667.546875 318.261719 C 667.964844 317.953125 668.347656 317.609375 668.695312 317.226562 C 669.042969 316.84375 669.347656 316.429688 669.617188 315.988281 C 669.882812 315.542969 670.105469 315.078125 670.277344 314.589844 C 670.453125 314.105469 670.582031 313.605469 670.65625 313.09375 C 670.734375 312.582031 670.761719 312.066406 670.734375 311.550781 C 670.710938 311.03125 670.636719 310.523438 670.511719 310.019531 C 670.386719 309.519531 670.214844 309.03125 669.996094 308.5625 C 669.773438 308.09375 669.511719 307.652344 669.203125 307.238281 C 668.898438 306.820312 668.550781 306.4375 668.167969 306.089844 C 667.785156 305.742188 667.375 305.433594 666.929688 305.164062 C 666.488281 304.898438 666.023438 304.675781 665.535156 304.5 C 655.359375 301.472656 645.019531 299.15625 634.523438 297.542969 C 624.027344 295.933594 613.472656 295.042969 602.855469 294.878906 C 592.238281 294.710938 581.65625 295.269531 571.117188 296.550781 C 560.574219 297.835938 550.171875 299.828125 539.902344 302.539062 C 537.589844 296.832031 534.929688 291.296875 531.914062 285.929688 C 528.898438 280.5625 525.558594 275.40625 521.886719 270.464844 C 518.21875 265.523438 514.25 260.832031 509.988281 256.394531 C 505.722656 251.957031 501.195312 247.804688 496.402344 243.945312 C 502.703125 240.820312 509.132812 237.988281 515.691406 235.453125 C 522.25 232.917969 528.910156 230.683594 535.671875 228.753906 C 542.4375 226.828125 549.273438 225.210938 556.183594 223.90625 C 563.09375 222.601562 570.046875 221.613281 577.046875 220.945312 C 584.046875 220.273438 591.0625 219.925781 598.097656 219.894531 C 605.128906 219.867188 612.144531 220.15625 619.152344 220.769531 C 626.15625 221.378906 633.121094 222.308594 640.039062 223.554688 C 646.960938 224.804688 653.8125 226.363281 660.589844 228.234375 C 661.070312 228.394531 661.5625 228.503906 662.0625 228.570312 C 662.566406 228.632812 663.070312 228.648438 663.574219 228.613281 C 664.082031 228.578125 664.578125 228.496094 665.066406 228.367188 C 665.554688 228.238281 666.027344 228.0625 666.484375 227.839844 C 666.9375 227.617188 667.367188 227.355469 667.773438 227.050781 C 668.175781 226.746094 668.550781 226.40625 668.886719 226.03125 C 669.226562 225.652344 669.527344 225.25 669.785156 224.8125 C 670.046875 224.378906 670.261719 223.925781 670.433594 223.449219 C 670.605469 222.972656 670.730469 222.484375 670.808594 221.984375 C 670.886719 221.484375 670.917969 220.980469 670.898438 220.472656 C 670.878906 219.96875 670.808594 219.46875 670.691406 218.976562 C 670.578125 218.484375 670.414062 218.003906 670.207031 217.542969 C 670 217.082031 669.746094 216.644531 669.453125 216.230469 C 669.160156 215.820312 668.832031 215.4375 668.464844 215.089844 C 668.097656 214.738281 667.703125 214.429688 667.277344 214.15625 C 666.847656 213.882812 666.398438 213.65625 665.929688 213.46875 C 658.316406 211.257812 650.609375 209.421875 642.816406 207.96875 C 635.023438 206.515625 627.175781 205.445312 619.273438 204.765625 C 611.375 204.085938 603.460938 203.792969 595.53125 203.894531 C 587.605469 203.992188 579.699219 204.480469 571.820312 205.355469 C 563.941406 206.234375 556.121094 207.496094 548.367188 209.144531 C 540.609375 210.792969 532.953125 212.816406 525.398438 215.21875 C 517.839844 217.621094 510.417969 220.386719 503.136719 223.519531 C 495.851562 226.652344 488.738281 230.136719 481.796875 233.96875 C 476.628906 230.691406 471.273438 227.757812 465.726562 225.164062 C 460.183594 222.574219 454.496094 220.347656 448.667969 218.484375 C 442.839844 216.625 436.914062 215.140625 430.894531 214.039062 C 424.875 212.9375 418.808594 212.222656 412.699219 211.898438 Z M 534.40625 357.046875 C 534.402344 359.964844 534.300781 362.875 534.101562 365.785156 C 533.902344 368.695312 533.605469 371.597656 533.210938 374.488281 C 532.816406 377.378906 532.324219 380.25 531.734375 383.105469 C 531.144531 385.964844 530.460938 388.796875 529.679688 391.609375 C 528.902344 394.417969 528.027344 397.199219 527.058594 399.953125 C 526.09375 402.703125 525.03125 405.417969 523.882812 408.101562 C 522.730469 410.78125 521.492188 413.417969 520.164062 416.015625 C 518.835938 418.613281 517.421875 421.160156 515.921875 423.664062 C 514.421875 426.164062 512.835938 428.613281 511.171875 431.007812 C 509.507812 433.402344 507.761719 435.734375 505.941406 438.011719 C 504.117188 440.289062 502.21875 442.503906 500.246094 444.652344 C 498.277344 446.800781 496.234375 448.878906 494.121094 450.890625 C 492.007812 452.902344 489.832031 454.839844 487.589844 456.703125 C 485.34375 458.566406 483.042969 460.355469 480.679688 462.0625 C 478.316406 463.773438 475.898438 465.398438 473.425781 466.945312 C 470.949219 468.492188 468.429688 469.953125 465.855469 471.328125 L 380.503906 439.28125 C 380.183594 439.160156 379.859375 439.0625 379.527344 438.984375 C 379.195312 438.90625 378.859375 438.851562 378.519531 438.816406 C 378.175781 438.785156 377.835938 438.773438 377.496094 438.78125 C 377.152344 438.792969 376.816406 438.824219 376.476562 438.882812 C 376.140625 438.9375 375.808594 439.011719 375.480469 439.109375 C 375.15625 439.210938 374.835938 439.328125 374.523438 439.46875 C 374.210938 439.609375 373.910156 439.769531 373.621094 439.949219 C 373.328125 440.125 373.050781 440.324219 372.785156 440.539062 C 372.523438 440.753906 372.273438 440.988281 372.035156 441.234375 C 371.800781 441.484375 371.585938 441.746094 371.382812 442.023438 C 371.183594 442.300781 371.003906 442.589844 370.839844 442.886719 C 370.675781 443.1875 370.535156 443.5 370.410156 443.816406 C 370.289062 444.136719 370.1875 444.460938 370.109375 444.792969 C 370.027344 445.125 369.96875 445.460938 369.933594 445.800781 C 369.898438 446.140625 369.882812 446.480469 369.890625 446.824219 C 369.898438 447.164062 369.929688 447.503906 369.984375 447.84375 L 375.402344 482.714844 C 373.4375 482.253906 371.484375 481.75 369.542969 481.199219 C 367.605469 480.648438 365.679688 480.050781 363.765625 479.410156 C 361.851562 478.769531 359.957031 478.082031 358.074219 477.351562 C 356.195312 476.621094 354.332031 475.847656 352.488281 475.03125 C 350.644531 474.214844 348.820312 473.355469 347.015625 472.453125 C 345.210938 471.550781 343.429688 470.605469 341.671875 469.621094 C 339.910156 468.632812 338.175781 467.609375 336.460938 466.542969 C 334.75 465.472656 333.0625 464.367188 331.402344 463.222656 C 329.742188 462.078125 328.109375 460.894531 326.503906 459.671875 C 324.898438 458.449219 323.324219 457.191406 321.777344 455.894531 C 320.230469 454.597656 318.71875 453.269531 317.234375 451.902344 C 315.75 450.535156 314.296875 449.132812 312.878906 447.699219 C 311.460938 446.265625 310.074219 444.800781 308.726562 443.300781 C 307.375 441.800781 306.0625 440.269531 304.78125 438.710938 C 303.503906 437.148438 302.261719 435.5625 301.058594 433.941406 C 299.855469 432.324219 298.6875 430.679688 297.558594 429.003906 C 296.433594 427.332031 295.34375 425.632812 294.296875 423.910156 C 293.25 422.1875 292.242188 420.4375 291.273438 418.667969 C 290.308594 416.894531 289.382812 415.105469 288.5 413.289062 C 287.617188 411.476562 286.777344 409.640625 285.980469 407.789062 C 285.183594 405.933594 284.429688 404.0625 283.722656 402.175781 C 283.011719 400.285156 282.347656 398.382812 281.726562 396.460938 C 281.105469 394.542969 280.53125 392.609375 280 390.664062 C 279.46875 388.714844 278.984375 386.757812 278.546875 384.789062 C 278.105469 382.820312 277.714844 380.839844 277.367188 378.851562 C 277.023438 376.867188 276.722656 374.871094 276.46875 372.867188 C 276.214844 370.867188 276.007812 368.859375 275.851562 366.847656 C 275.691406 364.839844 275.578125 362.824219 275.511719 360.808594 C 275.445312 358.789062 275.429688 356.773438 275.457031 354.757812 C 275.488281 352.738281 275.5625 350.722656 275.683594 348.710938 C 275.808594 346.695312 275.976562 344.683594 276.195312 342.679688 C 276.414062 340.671875 276.675781 338.671875 276.988281 336.679688 C 277.296875 334.6875 277.652344 332.703125 278.058594 330.722656 C 278.460938 328.746094 278.910156 326.78125 279.402344 324.824219 C 279.898438 322.867188 280.4375 320.925781 281.023438 318.996094 C 281.609375 317.0625 282.242188 315.148438 282.917969 313.246094 C 283.59375 311.347656 284.3125 309.460938 285.074219 307.59375 C 285.839844 305.726562 286.644531 303.878906 287.496094 302.046875 C 288.34375 300.21875 289.234375 298.410156 290.171875 296.621094 C 291.105469 294.832031 292.082031 293.066406 293.097656 291.324219 C 294.113281 289.582031 295.171875 287.863281 296.265625 286.171875 C 297.363281 284.476562 298.5 282.8125 299.675781 281.171875 C 300.851562 279.53125 302.0625 277.917969 303.3125 276.335938 C 304.5625 274.753906 305.847656 273.199219 307.171875 271.675781 C 308.496094 270.152344 309.851562 268.660156 311.246094 267.199219 C 312.636719 265.742188 314.0625 264.316406 315.523438 262.921875 C 316.980469 261.527344 318.472656 260.171875 319.996094 258.847656 C 321.515625 257.523438 323.070312 256.234375 324.652344 254.984375 C 326.234375 253.734375 327.847656 252.519531 329.484375 251.34375 C 331.125 250.171875 332.789062 249.035156 334.484375 247.9375 C 336.175781 246.839844 337.894531 245.78125 339.636719 244.761719 C 341.375 243.746094 343.140625 242.769531 344.929688 241.835938 C 346.714844 240.898438 348.523438 240.007812 350.355469 239.15625 C 352.183594 238.304688 354.03125 237.5 355.898438 236.734375 C 357.765625 235.972656 359.648438 235.25 361.550781 234.574219 C 363.449219 233.898438 365.363281 233.269531 367.296875 232.683594 C 369.226562 232.09375 371.167969 231.554688 373.125 231.058594 C 375.078125 230.5625 377.042969 230.113281 379.019531 229.710938 C 380.996094 229.304688 382.980469 228.949219 384.972656 228.636719 C 386.96875 228.328125 388.964844 228.0625 390.972656 227.847656 C 392.976562 227.628906 394.988281 227.457031 397 227.335938 C 399.011719 227.210938 401.027344 227.132812 403.046875 227.105469 C 405.0625 227.074219 407.078125 227.09375 409.09375 227.160156 C 411.109375 227.222656 413.125 227.335938 415.136719 227.496094 C 417.144531 227.652344 419.152344 227.859375 421.152344 228.113281 C 423.152344 228.367188 425.148438 228.664062 427.136719 229.011719 C 429.121094 229.355469 431.101562 229.75 433.070312 230.1875 C 435.039062 230.625 436.996094 231.109375 438.941406 231.640625 C 440.886719 232.171875 442.820312 232.746094 444.742188 233.367188 C 446.660156 233.988281 448.5625 234.652344 450.453125 235.363281 C 452.339844 236.070312 454.210938 236.824219 456.0625 237.621094 C 457.917969 238.417969 459.75 239.257812 461.566406 240.140625 C 463.378906 241.023438 465.171875 241.949219 466.941406 242.914062 C 468.710938 243.878906 470.460938 244.886719 472.183594 245.933594 C 473.90625 246.984375 475.605469 248.070312 477.277344 249.199219 C 478.949219 250.324219 480.597656 251.492188 482.214844 252.695312 C 483.832031 253.902344 485.421875 255.140625 486.980469 256.421875 C 488.542969 257.699219 490.070312 259.015625 491.570312 260.363281 C 493.070312 261.714844 494.535156 263.097656 495.972656 264.515625 C 497.40625 265.9375 498.804688 267.386719 500.171875 268.871094 C 501.539062 270.355469 502.867188 271.871094 504.164062 273.417969 C 505.460938 274.964844 506.71875 276.539062 507.941406 278.144531 C 509.164062 279.75 510.347656 281.382812 511.492188 283.042969 C 512.636719 284.703125 513.746094 286.390625 514.8125 288.101562 C 515.878906 289.816406 516.90625 291.550781 517.890625 293.3125 C 518.875 295.074219 519.820312 296.855469 520.722656 298.660156 C 521.625 300.464844 522.484375 302.289062 523.300781 304.132812 C 524.121094 305.976562 524.894531 307.839844 525.625 309.722656 C 526.355469 311.601562 527.039062 313.5 527.683594 315.410156 C 528.324219 317.324219 528.921875 319.25 529.472656 321.191406 C 530.023438 323.132812 530.527344 325.085938 530.988281 327.050781 C 531.449219 329.015625 531.863281 330.988281 532.230469 332.972656 C 532.601562 334.957031 532.921875 336.945312 533.195312 338.945312 C 533.472656 340.945312 533.699219 342.949219 533.882812 344.957031 C 534.0625 346.96875 534.199219 348.980469 534.285156 350.996094 C 534.371094 353.011719 534.414062 355.027344 534.40625 357.046875 Z M 103.5625 166.8125 C 268.457031 123.617188 377.363281 187.234375 396.996094 199.960938 L 396.996094 211.898438 C 390.925781 212.210938 384.902344 212.90625 378.921875 213.984375 C 372.941406 215.0625 367.050781 216.515625 361.257812 218.34375 C 355.460938 220.175781 349.804688 222.363281 344.289062 224.910156 C 338.769531 227.460938 333.4375 230.347656 328.289062 233.574219 C 321.347656 229.742188 314.234375 226.257812 306.949219 223.125 C 299.664062 219.992188 292.246094 217.226562 284.6875 214.824219 C 277.132812 212.421875 269.476562 210.398438 261.71875 208.75 C 253.964844 207.105469 246.144531 205.839844 238.265625 204.964844 C 230.386719 204.085938 222.480469 203.597656 214.550781 203.5 C 206.625 203.402344 198.710938 203.691406 190.8125 204.375 C 182.910156 205.054688 175.0625 206.121094 167.269531 207.574219 C 159.476562 209.03125 151.769531 210.863281 144.15625 213.078125 C 143.65625 213.242188 143.179688 213.453125 142.726562 213.714844 C 142.269531 213.972656 141.84375 214.277344 141.449219 214.621094 C 141.054688 214.96875 140.695312 215.347656 140.378906 215.765625 C 140.058594 216.183594 139.785156 216.628906 139.554688 217.101562 C 139.324219 217.574219 139.144531 218.0625 139.015625 218.570312 C 138.882812 219.082031 138.804688 219.597656 138.777344 220.121094 C 138.75 220.644531 138.773438 221.167969 138.851562 221.6875 C 138.925781 222.207031 139.054688 222.710938 139.234375 223.207031 C 139.410156 223.699219 139.636719 224.171875 139.910156 224.621094 C 140.183594 225.070312 140.5 225.484375 140.855469 225.871094 C 141.210938 226.257812 141.601562 226.601562 142.027344 226.910156 C 142.453125 227.214844 142.90625 227.476562 143.386719 227.691406 C 143.863281 227.910156 144.359375 228.074219 144.871094 228.191406 C 145.382812 228.308594 145.902344 228.375 146.425781 228.386719 C 146.949219 228.398438 147.472656 228.359375 147.988281 228.269531 C 148.503906 228.175781 149.007812 228.035156 149.496094 227.84375 C 156.273438 225.96875 163.125 224.410156 170.042969 223.164062 C 176.964844 221.917969 183.929688 220.988281 190.933594 220.375 C 197.9375 219.765625 204.957031 219.472656 211.988281 219.503906 C 219.023438 219.53125 226.039062 219.882812 233.039062 220.550781 C 240.039062 221.21875 246.992188 222.207031 253.902344 223.511719 C 260.8125 224.816406 267.648438 226.433594 274.410156 228.363281 C 281.175781 230.292969 287.835938 232.523438 294.394531 235.058594 C 300.953125 237.597656 307.382812 240.425781 313.683594 243.550781 C 308.890625 247.414062 304.363281 251.5625 300.097656 256.003906 C 295.832031 260.441406 291.867188 265.128906 288.199219 270.074219 C 284.527344 275.015625 281.1875 280.167969 278.171875 285.535156 C 275.15625 290.902344 272.496094 296.4375 270.183594 302.144531 C 259.914062 299.4375 249.511719 297.441406 238.96875 296.160156 C 228.425781 294.878906 217.847656 294.320312 207.230469 294.484375 C 196.613281 294.652344 186.054688 295.539062 175.5625 297.152344 C 165.066406 298.761719 154.726562 301.082031 144.550781 304.109375 C 144.0625 304.285156 143.597656 304.503906 143.152344 304.773438 C 142.710938 305.039062 142.296875 305.347656 141.914062 305.695312 C 141.53125 306.042969 141.1875 306.425781 140.878906 306.84375 C 140.570312 307.261719 140.308594 307.703125 140.085938 308.171875 C 139.867188 308.640625 139.695312 309.125 139.570312 309.628906 C 139.445312 310.128906 139.371094 310.640625 139.347656 311.15625 C 139.320312 311.675781 139.347656 312.1875 139.425781 312.699219 C 139.5 313.210938 139.628906 313.710938 139.804688 314.199219 C 139.976562 314.6875 140.199219 315.152344 140.464844 315.59375 C 140.734375 316.039062 141.039062 316.453125 141.386719 316.835938 C 141.738281 317.21875 142.117188 317.5625 142.535156 317.871094 C 142.953125 318.179688 143.394531 318.445312 143.863281 318.664062 C 144.328125 318.886719 144.816406 319.058594 145.316406 319.183594 C 145.820312 319.308594 146.328125 319.382812 146.847656 319.40625 C 147.363281 319.433594 147.878906 319.40625 148.390625 319.328125 C 148.902344 319.253906 149.402344 319.128906 149.886719 318.953125 C 159.257812 316.351562 168.753906 314.367188 178.382812 313.003906 C 188.007812 311.640625 197.683594 310.910156 207.40625 310.8125 C 217.128906 310.710938 226.816406 311.246094 236.46875 312.410156 C 246.121094 313.574219 255.660156 315.363281 265.078125 317.773438 C 261.453125 330.613281 259.621094 343.703125 259.582031 357.046875 C 259.636719 369.101562 261.179688 380.960938 264.214844 392.625 C 254.351562 390.273438 244.378906 388.578125 234.289062 387.539062 C 224.203125 386.496094 214.09375 386.125 203.957031 386.414062 C 193.820312 386.707031 183.75 387.664062 173.738281 389.28125 C 163.730469 390.898438 153.867188 393.164062 144.15625 396.082031 C 143.675781 396.257812 143.21875 396.476562 142.78125 396.742188 C 142.34375 397.007812 141.9375 397.3125 141.558594 397.660156 C 141.183594 398.003906 140.839844 398.382812 140.539062 398.792969 C 140.234375 399.203125 139.972656 399.640625 139.753906 400.101562 C 139.535156 400.566406 139.367188 401.042969 139.242188 401.539062 C 139.117188 402.035156 139.039062 402.539062 139.011719 403.050781 C 138.988281 403.558594 139.007812 404.070312 139.082031 404.574219 C 139.15625 405.082031 139.277344 405.574219 139.445312 406.058594 C 139.617188 406.546875 139.835938 407.011719 140.097656 407.457031 C 140.363281 407.902344 140.667969 408.316406 141.011719 408.703125 C 141.359375 409.085938 141.738281 409.433594 142.152344 409.742188 C 142.566406 410.054688 143.007812 410.320312 143.476562 410.542969 C 143.941406 410.765625 144.425781 410.941406 144.925781 411.066406 C 145.429688 411.195312 145.9375 411.269531 146.453125 411.296875 C 146.972656 411.324219 147.484375 411.296875 147.996094 411.222656 C 148.507812 411.148438 149.007812 411.023438 149.496094 410.847656 C 159.300781 408.117188 169.246094 406.0625 179.328125 404.683594 C 189.414062 403.304688 199.542969 402.613281 209.722656 402.613281 C 219.898438 402.613281 230.03125 403.304688 240.113281 404.683594 C 250.199219 406.0625 260.144531 408.117188 269.945312 410.847656 C 271.082031 413.667969 272.304688 416.445312 273.617188 419.1875 C 274.925781 421.929688 276.320312 424.628906 277.800781 427.28125 C 279.277344 429.9375 280.839844 432.542969 282.480469 435.097656 C 284.121094 437.65625 285.839844 440.15625 287.640625 442.605469 C 289.4375 445.054688 291.3125 447.445312 293.257812 449.777344 C 295.207031 452.109375 297.226562 454.378906 299.316406 456.585938 C 301.40625 458.789062 303.5625 460.925781 305.785156 463 C 308.007812 465.070312 310.292969 467.066406 312.644531 468.996094 C 314.992188 470.921875 317.398438 472.773438 319.863281 474.550781 C 322.324219 476.328125 324.84375 478.027344 327.414062 479.644531 C 329.984375 481.265625 332.601562 482.800781 335.269531 484.257812 C 337.9375 485.714844 340.644531 487.082031 343.398438 488.371094 C 346.152344 489.65625 348.941406 490.855469 351.769531 491.964844 C 354.59375 493.074219 357.453125 494.097656 360.347656 495.03125 C 363.238281 495.960938 366.15625 496.804688 369.097656 497.554688 C 372.042969 498.300781 375.007812 498.960938 377.992188 499.523438 L 381.289062 518.84375 C 368.488281 512.648438 355.375 507.210938 341.945312 502.53125 C 328.515625 497.855469 314.859375 493.96875 300.980469 490.875 C 287.101562 487.78125 273.085938 485.496094 258.941406 484.027344 C 244.796875 482.558594 230.617188 481.910156 216.394531 482.085938 C 178.09375 482.226562 140.40625 487.09375 103.324219 496.695312 Z M 59.355469 564.949219 L 59.355469 203.652344 L 87.855469 203.652344 L 87.855469 506.90625 C 87.859375 508.121094 88.128906 509.273438 88.667969 510.363281 C 89.207031 511.453125 89.957031 512.371094 90.917969 513.113281 C 91.890625 513.855469 92.976562 514.34375 94.179688 514.578125 C 95.378906 514.8125 96.570312 514.769531 97.75 514.445312 C 243.171875 474.46875 346.113281 517.746094 384.117188 538.480469 L 388.199219 564.949219 Z M 580.734375 641.765625 L 528.125 684.730469 L 460.4375 601.789062 C 460.117188 601.378906 459.761719 601.011719 459.367188 600.675781 C 458.972656 600.339844 458.546875 600.046875 458.09375 599.792969 C 457.640625 599.542969 457.167969 599.335938 456.675781 599.179688 C 456.183594 599.019531 455.679688 598.914062 455.164062 598.855469 C 454.652344 598.796875 454.136719 598.789062 453.621094 598.832031 C 453.101562 598.875 452.597656 598.96875 452.097656 599.113281 C 451.601562 599.257812 451.121094 599.449219 450.664062 599.6875 C 450.203125 599.925781 449.773438 600.207031 449.367188 600.53125 L 414.113281 629.277344 L 387.570312 458.679688 L 549.402344 518.925781 L 514.226562 547.75 C 513.828125 548.074219 513.464844 548.433594 513.140625 548.828125 C 512.8125 549.222656 512.527344 549.644531 512.28125 550.09375 C 512.035156 550.546875 511.835938 551.015625 511.683594 551.503906 C 511.53125 551.996094 511.429688 552.496094 511.375 553.003906 C 511.320312 553.515625 511.316406 554.023438 511.359375 554.535156 C 511.40625 555.046875 511.5 555.546875 511.644531 556.039062 C 511.789062 556.53125 511.976562 557.007812 512.214844 557.460938 C 512.449219 557.917969 512.726562 558.34375 513.046875 558.746094 Z M 750.339844 564.949219 L 538.332031 564.949219 L 530.480469 554.898438 L 569.742188 522.457031 C 570.28125 522.023438 570.757812 521.523438 571.164062 520.964844 C 571.574219 520.402344 571.902344 519.796875 572.152344 519.148438 C 572.398438 518.5 572.558594 517.832031 572.628906 517.140625 C 572.699219 516.449219 572.679688 515.761719 572.566406 515.074219 C 572.453125 514.394531 572.25 513.742188 571.960938 513.113281 C 571.671875 512.488281 571.308594 511.90625 570.867188 511.378906 C 570.425781 510.847656 569.921875 510.382812 569.359375 509.984375 C 568.796875 509.585938 568.191406 509.265625 567.542969 509.027344 L 546.183594 501.171875 C 560.042969 499.511719 573.949219 498.535156 587.902344 498.246094 C 601.855469 497.957031 615.789062 498.359375 629.703125 499.445312 C 643.617188 500.535156 657.445312 502.304688 671.1875 504.757812 C 684.925781 507.210938 698.511719 510.335938 711.941406 514.132812 C 713.121094 514.453125 714.3125 514.5 715.515625 514.265625 C 716.714844 514.027344 717.800781 513.539062 718.773438 512.796875 C 719.75 512.0625 720.515625 511.152344 721.066406 510.0625 C 721.621094 508.972656 721.902344 507.816406 721.914062 506.59375 L 721.914062 203.652344 L 750.339844 203.652344 Z M 750.339844 564.949219 " fill-opacity="1" fill-rule="nonzero"/><path fill="#000000" d="M 348.074219 433.3125 C 350.75 434.972656 353.605469 436.238281 356.632812 437.105469 C 359.660156 437.972656 362.75 438.410156 365.898438 438.417969 C 371.324219 438.464844 376.453125 437.257812 381.289062 434.804688 L 476.613281 387.128906 C 478.019531 386.429688 479.367188 385.640625 480.660156 384.753906 C 481.953125 383.871094 483.179688 382.898438 484.339844 381.84375 C 485.5 380.789062 486.578125 379.65625 487.582031 378.453125 C 488.585938 377.246094 489.496094 375.976562 490.324219 374.644531 C 491.148438 373.3125 491.878906 371.929688 492.511719 370.496094 C 493.144531 369.0625 493.679688 367.589844 494.105469 366.082031 C 494.535156 364.574219 494.859375 363.042969 495.078125 361.492188 C 495.292969 359.9375 495.402344 358.378906 495.402344 356.8125 C 495.402344 355.242188 495.292969 353.683594 495.078125 352.128906 C 494.859375 350.578125 494.535156 349.046875 494.105469 347.539062 C 493.679688 346.03125 493.144531 344.558594 492.511719 343.125 C 491.878906 341.691406 491.148438 340.308594 490.324219 338.976562 C 489.496094 337.644531 488.585938 336.375 487.582031 335.167969 C 486.578125 333.964844 485.5 332.832031 484.339844 331.777344 C 483.179688 330.722656 481.953125 329.75 480.660156 328.867188 C 479.367188 327.980469 478.019531 327.191406 476.613281 326.492188 L 381.289062 278.503906 C 380.648438 278.179688 379.996094 277.878906 379.335938 277.601562 C 378.671875 277.320312 378.003906 277.0625 377.328125 276.824219 C 376.648438 276.585938 375.964844 276.371094 375.273438 276.175781 C 374.582031 275.980469 373.882812 275.808594 373.179688 275.660156 C 372.480469 275.511719 371.773438 275.382812 371.0625 275.28125 C 370.351562 275.175781 369.636719 275.09375 368.921875 275.035156 C 368.207031 274.976562 367.488281 274.9375 366.773438 274.925781 C 366.054688 274.910156 365.335938 274.921875 364.617188 274.953125 C 363.902344 274.984375 363.183594 275.039062 362.472656 275.117188 C 361.757812 275.195312 361.046875 275.296875 360.339844 275.417969 C 359.632812 275.542969 358.929688 275.6875 358.230469 275.855469 C 357.53125 276.023438 356.839844 276.214844 356.152344 276.425781 C 355.46875 276.636719 354.789062 276.871094 354.117188 277.125 C 353.445312 277.378906 352.78125 277.65625 352.128906 277.953125 C 351.476562 278.25 350.832031 278.570312 350.199219 278.90625 C 349.566406 279.246094 348.941406 279.605469 348.332031 279.980469 C 347.722656 280.359375 347.121094 280.757812 346.539062 281.171875 C 345.953125 281.589844 345.378906 282.023438 344.824219 282.476562 C 344.265625 282.929688 343.722656 283.398438 343.195312 283.886719 C 342.664062 284.371094 342.152344 284.875 341.65625 285.394531 C 341.160156 285.914062 340.683594 286.449219 340.222656 287 C 339.757812 287.550781 339.316406 288.113281 338.890625 288.691406 C 338.464844 289.269531 338.054688 289.863281 337.667969 290.464844 C 337.277344 291.070312 336.910156 291.6875 336.5625 292.3125 C 336.210938 292.941406 335.882812 293.578125 335.574219 294.230469 C 335.265625 294.878906 334.980469 295.535156 334.710938 296.203125 C 334.445312 296.871094 334.199219 297.542969 333.976562 298.226562 C 333.753906 298.910156 333.550781 299.597656 333.371094 300.292969 C 333.191406 300.988281 333.035156 301.691406 332.898438 302.394531 C 332.761719 303.101562 332.652344 303.808594 332.558594 304.523438 C 332.46875 305.234375 332.402344 305.949219 332.359375 306.667969 C 332.3125 307.382812 332.292969 308.101562 332.292969 308.820312 L 332.292969 404.171875 C 332.265625 405.617188 332.335938 407.058594 332.496094 408.496094 C 332.65625 409.933594 332.90625 411.351562 333.25 412.757812 C 333.589844 414.160156 334.023438 415.539062 334.542969 416.886719 C 335.0625 418.234375 335.667969 419.546875 336.355469 420.816406 C 337.042969 422.089844 337.8125 423.308594 338.65625 424.480469 C 339.503906 425.65625 340.417969 426.769531 341.40625 427.820312 C 342.398438 428.875 343.449219 429.863281 344.566406 430.78125 C 345.679688 431.699219 346.851562 432.542969 348.074219 433.3125 Z M 348.074219 309.132812 C 348.078125 308.554688 348.105469 307.972656 348.164062 307.394531 C 348.222656 306.816406 348.304688 306.242188 348.417969 305.667969 C 348.53125 305.097656 348.667969 304.535156 348.835938 303.976562 C 349 303.417969 349.191406 302.871094 349.410156 302.332031 C 349.628906 301.792969 349.871094 301.265625 350.140625 300.75 C 350.410156 300.234375 350.703125 299.730469 351.019531 299.242188 C 351.335938 298.753906 351.671875 298.28125 352.035156 297.828125 C 352.394531 297.371094 352.777344 296.933594 353.179688 296.515625 C 353.582031 296.09375 354.003906 295.695312 354.445312 295.316406 C 354.886719 294.9375 355.347656 294.582031 355.820312 294.246094 C 356.296875 293.910156 356.785156 293.597656 357.289062 293.308594 C 357.796875 293.019531 358.3125 292.757812 358.84375 292.515625 C 359.375 292.277344 359.914062 292.0625 360.464844 291.875 C 361.015625 291.6875 361.570312 291.527344 362.136719 291.390625 C 362.703125 291.257812 363.273438 291.152344 363.851562 291.070312 C 364.425781 290.988281 365.003906 290.9375 365.585938 290.914062 C 368.355469 290.949219 370.972656 291.605469 373.4375 292.875 L 468.761719 340.472656 C 470.273438 341.230469 471.65625 342.179688 472.90625 343.320312 C 474.152344 344.460938 475.222656 345.753906 476.109375 347.191406 C 477 348.632812 477.675781 350.164062 478.136719 351.792969 C 478.601562 353.417969 478.832031 355.078125 478.832031 356.769531 C 478.832031 358.464844 478.601562 360.121094 478.136719 361.75 C 477.675781 363.378906 477 364.910156 476.109375 366.351562 C 475.222656 367.789062 474.152344 369.082031 472.90625 370.222656 C 471.65625 371.363281 470.273438 372.3125 468.761719 373.070312 L 374.066406 420.746094 C 373.71875 420.921875 373.367188 421.085938 373.007812 421.238281 C 372.648438 421.390625 372.289062 421.53125 371.921875 421.660156 C 371.554688 421.789062 371.183594 421.90625 370.808594 422.011719 C 370.433594 422.117188 370.054688 422.210938 369.675781 422.292969 C 369.296875 422.371094 368.914062 422.441406 368.527344 422.496094 C 368.140625 422.554688 367.757812 422.597656 367.367188 422.628906 C 366.980469 422.660156 366.59375 422.679688 366.203125 422.6875 C 365.8125 422.695312 365.425781 422.6875 365.035156 422.667969 C 364.648438 422.652344 364.261719 422.621094 363.875 422.578125 C 363.488281 422.53125 363.101562 422.476562 362.71875 422.410156 C 362.335938 422.339844 361.957031 422.261719 361.578125 422.167969 C 361.199219 422.074219 360.824219 421.96875 360.453125 421.855469 C 360.082031 421.738281 359.714844 421.609375 359.351562 421.46875 C 358.988281 421.328125 358.632812 421.175781 358.277344 421.011719 C 357.925781 420.847656 357.578125 420.675781 357.234375 420.488281 C 356.894531 420.300781 356.558594 420.105469 356.230469 419.898438 C 355.898438 419.691406 355.578125 419.472656 355.261719 419.246094 C 354.949219 419.015625 354.640625 418.777344 354.339844 418.53125 C 354.039062 418.28125 353.75 418.023438 353.464844 417.757812 C 353.179688 417.492188 352.90625 417.214844 352.640625 416.933594 C 352.375 416.648438 352.121094 416.355469 351.871094 416.054688 C 351.625 415.753906 351.390625 415.445312 351.164062 415.128906 C 350.933594 414.8125 350.71875 414.488281 350.511719 414.160156 C 350.304688 413.828125 350.109375 413.492188 349.925781 413.148438 C 349.742188 412.808594 349.570312 412.457031 349.40625 412.105469 C 349.246094 411.75 349.09375 411.390625 348.953125 411.027344 C 348.816406 410.664062 348.6875 410.296875 348.574219 409.925781 C 348.457031 409.554688 348.355469 409.179688 348.261719 408.800781 C 348.171875 408.421875 348.09375 408.042969 348.027344 407.660156 C 347.960938 407.273438 347.90625 406.890625 347.863281 406.503906 C 347.820312 406.117188 347.792969 405.726562 347.773438 405.339844 C 347.757812 404.949219 347.753906 404.5625 347.761719 404.171875 Z M 348.074219 309.132812 " fill-opacity="1" fill-rule="nonzero"/></svg>