<svg xmlns="http://www.w3.org/2000/svg" xmlns:xlink="http://www.w3.org/1999/xlink" width="1080" zoomAndPan="magnify" viewBox="0 0 810 809.999993" height="1080" preserveAspectRatio="xMidYMid meet" version="1.0"><defs><clipPath id="64878b2f60"><path d="M 128.011719 128.011719 L 682 128.011719 L 682 682 L 128.011719 682 Z M 128.011719 128.011719 " clip-rule="nonzero"/></clipPath></defs><g clip-path="url(#64878b2f60)"><path fill="#3897f0" d="M 410.8125 161.441406 L 442.015625 130.65625 C 442.242188 130.433594 442.476562 130.226562 442.726562 130.03125 C 442.976562 129.839844 443.234375 129.660156 443.503906 129.496094 C 443.773438 129.332031 444.054688 129.183594 444.339844 129.054688 C 444.628906 128.921875 444.921875 128.808594 445.222656 128.710938 C 445.523438 128.617188 445.828125 128.535156 446.140625 128.476562 C 446.449219 128.414062 446.761719 128.371094 447.074219 128.347656 C 447.390625 128.324219 447.707031 128.320312 448.019531 128.332031 C 448.335938 128.34375 448.648438 128.375 448.960938 128.425781 C 449.273438 128.472656 449.582031 128.542969 449.886719 128.625 C 450.191406 128.710938 450.488281 128.816406 450.78125 128.933594 C 451.070312 129.054688 451.355469 129.191406 451.632812 129.347656 C 451.90625 129.5 452.171875 129.667969 452.429688 129.855469 C 452.683594 130.039062 452.929688 130.238281 453.164062 130.449219 C 453.394531 130.664062 453.613281 130.890625 453.820312 131.128906 C 454.027344 131.367188 454.21875 131.617188 454.394531 131.878906 C 454.574219 132.140625 454.734375 132.414062 454.878906 132.695312 L 475.039062 171.613281 C 475.28125 172.082031 475.566406 172.523438 475.894531 172.933594 C 476.222656 173.34375 476.585938 173.722656 476.988281 174.0625 C 477.390625 174.402344 477.820312 174.703125 478.28125 174.957031 C 478.738281 175.214844 479.21875 175.425781 479.71875 175.585938 C 480.222656 175.75 480.734375 175.863281 481.257812 175.925781 C 481.777344 175.988281 482.300781 176 482.828125 175.960938 C 483.351562 175.921875 483.867188 175.828125 484.375 175.691406 C 484.882812 175.550781 485.375 175.359375 485.84375 175.125 L 525.027344 155.488281 C 525.3125 155.347656 525.601562 155.222656 525.898438 155.113281 C 526.195312 155.007812 526.496094 154.917969 526.804688 154.84375 C 527.109375 154.773438 527.421875 154.71875 527.734375 154.683594 C 528.046875 154.648438 528.363281 154.628906 528.679688 154.628906 C 528.996094 154.632812 529.308594 154.652344 529.621094 154.6875 C 529.9375 154.726562 530.246094 154.78125 530.554688 154.855469 C 530.859375 154.929688 531.160156 155.023438 531.457031 155.132812 C 531.753906 155.242188 532.042969 155.367188 532.324219 155.511719 C 532.605469 155.65625 532.878906 155.816406 533.140625 155.988281 C 533.402344 156.164062 533.65625 156.355469 533.894531 156.558594 C 534.136719 156.765625 534.363281 156.980469 534.578125 157.214844 C 534.792969 157.445312 534.992188 157.6875 535.179688 157.941406 C 535.367188 158.199219 535.539062 158.460938 535.691406 158.738281 C 535.847656 159.011719 535.988281 159.292969 536.109375 159.585938 C 536.230469 159.875 536.335938 160.175781 536.425781 160.476562 C 536.511719 160.78125 536.582031 161.089844 536.632812 161.398438 L 543.777344 204.648438 C 543.863281 205.167969 544 205.671875 544.183594 206.167969 C 544.371094 206.660156 544.601562 207.128906 544.878906 207.578125 C 545.152344 208.027344 545.472656 208.441406 545.828125 208.828125 C 546.1875 209.214844 546.582031 209.5625 547.007812 209.871094 C 547.433594 210.183594 547.882812 210.449219 548.363281 210.667969 C 548.839844 210.890625 549.335938 211.0625 549.847656 211.1875 C 550.359375 211.3125 550.878906 211.386719 551.402344 211.410156 C 551.929688 211.433594 552.453125 211.402344 552.972656 211.324219 L 596.3125 204.757812 C 596.621094 204.710938 596.9375 204.679688 597.253906 204.671875 C 597.566406 204.660156 597.882812 204.667969 598.199219 204.695312 C 598.511719 204.71875 598.824219 204.765625 599.132812 204.828125 C 599.445312 204.890625 599.75 204.972656 600.046875 205.070312 C 600.347656 205.167969 600.640625 205.285156 600.929688 205.417969 C 601.214844 205.550781 601.492188 205.699219 601.761719 205.863281 C 602.03125 206.03125 602.289062 206.210938 602.535156 206.40625 C 602.785156 206.601562 603.019531 206.8125 603.242188 207.035156 C 603.464844 207.257812 603.675781 207.492188 603.871094 207.742188 C 604.066406 207.988281 604.246094 208.246094 604.414062 208.515625 C 604.578125 208.785156 604.726562 209.0625 604.859375 209.347656 C 604.992188 209.636719 605.109375 209.929688 605.207031 210.230469 C 605.304688 210.527344 605.386719 210.832031 605.449219 211.144531 C 605.511719 211.453125 605.558594 211.765625 605.585938 212.078125 C 605.609375 212.394531 605.617188 212.707031 605.609375 213.023438 C 605.597656 213.339844 605.566406 213.652344 605.519531 213.964844 L 598.953125 257.304688 C 598.875 257.824219 598.847656 258.347656 598.867188 258.875 C 598.890625 259.398438 598.964844 259.917969 599.089844 260.429688 C 599.214844 260.941406 599.386719 261.4375 599.609375 261.914062 C 599.832031 262.390625 600.097656 262.84375 600.40625 263.269531 C 600.714844 263.695312 601.0625 264.085938 601.449219 264.445312 C 601.835938 264.804688 602.25 265.121094 602.699219 265.398438 C 603.148438 265.671875 603.617188 265.902344 604.109375 266.089844 C 604.605469 266.273438 605.109375 266.410156 605.628906 266.496094 L 648.878906 273.640625 C 649.1875 273.695312 649.496094 273.761719 649.800781 273.851562 C 650.101562 273.9375 650.398438 274.042969 650.691406 274.164062 C 650.980469 274.289062 651.265625 274.425781 651.539062 274.582031 C 651.8125 274.738281 652.078125 274.90625 652.332031 275.09375 C 652.585938 275.28125 652.832031 275.480469 653.0625 275.695312 C 653.292969 275.910156 653.511719 276.136719 653.714844 276.378906 C 653.921875 276.617188 654.109375 276.871094 654.285156 277.132812 C 654.460938 277.394531 654.621094 277.667969 654.761719 277.949219 C 654.90625 278.230469 655.03125 278.519531 655.140625 278.8125 C 655.25 279.109375 655.34375 279.410156 655.417969 279.71875 C 655.492188 280.023438 655.546875 280.335938 655.585938 280.648438 C 655.625 280.960938 655.644531 281.277344 655.644531 281.59375 C 655.644531 281.90625 655.628906 282.222656 655.59375 282.535156 C 655.558594 282.847656 655.503906 283.160156 655.429688 283.46875 C 655.359375 283.773438 655.269531 284.074219 655.160156 284.371094 C 655.054688 284.667969 654.929688 284.960938 654.789062 285.242188 L 635.152344 324.425781 C 634.914062 324.898438 634.726562 325.386719 634.585938 325.894531 C 634.445312 326.402344 634.355469 326.917969 634.316406 327.441406 C 634.277344 327.96875 634.289062 328.492188 634.351562 329.015625 C 634.414062 329.535156 634.527344 330.046875 634.691406 330.550781 C 634.851562 331.050781 635.0625 331.53125 635.320312 331.988281 C 635.574219 332.449219 635.875 332.878906 636.214844 333.28125 C 636.554688 333.683594 636.929688 334.046875 637.34375 334.375 C 637.753906 334.703125 638.195312 334.988281 638.664062 335.230469 L 677.582031 355.390625 C 677.863281 355.535156 678.136719 355.695312 678.394531 355.875 C 678.65625 356.050781 678.910156 356.242188 679.148438 356.449219 C 679.386719 356.65625 679.613281 356.875 679.824219 357.105469 C 680.039062 357.339844 680.238281 357.585938 680.421875 357.839844 C 680.609375 358.097656 680.777344 358.363281 680.929688 358.636719 C 681.085938 358.914062 681.222656 359.199219 681.339844 359.488281 C 681.460938 359.78125 681.566406 360.078125 681.648438 360.382812 C 681.734375 360.6875 681.804688 360.996094 681.851562 361.308594 C 681.902344 361.621094 681.933594 361.933594 681.945312 362.25 C 681.957031 362.5625 681.953125 362.878906 681.929688 363.195312 C 681.902344 363.507812 681.863281 363.820312 681.800781 364.132812 C 681.738281 364.441406 681.660156 364.746094 681.566406 365.046875 C 681.46875 365.347656 681.355469 365.640625 681.222656 365.929688 C 681.09375 366.214844 680.945312 366.496094 680.78125 366.765625 C 680.617188 367.035156 680.4375 367.292969 680.246094 367.542969 C 680.050781 367.792969 679.84375 368.03125 679.621094 368.253906 L 648.835938 399.457031 C 648.464844 399.832031 648.132812 400.238281 647.84375 400.675781 C 647.554688 401.117188 647.308594 401.578125 647.109375 402.066406 C 646.910156 402.554688 646.757812 403.054688 646.65625 403.570312 C 646.554688 404.089844 646.503906 404.609375 646.503906 405.136719 C 646.503906 405.664062 646.554688 406.183594 646.65625 406.703125 C 646.757812 407.21875 646.910156 407.71875 647.109375 408.207031 C 647.308594 408.695312 647.554688 409.15625 647.84375 409.597656 C 648.132812 410.035156 648.464844 410.441406 648.835938 410.816406 L 679.621094 442.015625 C 679.84375 442.242188 680.050781 442.480469 680.246094 442.726562 C 680.4375 442.976562 680.617188 443.238281 680.78125 443.507812 C 680.945312 443.777344 681.09375 444.054688 681.222656 444.34375 C 681.355469 444.628906 681.46875 444.925781 681.566406 445.226562 C 681.660156 445.527344 681.738281 445.832031 681.800781 446.140625 C 681.863281 446.449219 681.902344 446.761719 681.929688 447.078125 C 681.953125 447.390625 681.957031 447.707031 681.945312 448.023438 C 681.933594 448.339844 681.902344 448.652344 681.851562 448.964844 C 681.804688 449.277344 681.734375 449.582031 681.648438 449.886719 C 681.566406 450.191406 681.460938 450.488281 681.339844 450.78125 C 681.222656 451.074219 681.085938 451.355469 680.929688 451.632812 C 680.777344 451.910156 680.609375 452.175781 680.421875 452.429688 C 680.238281 452.6875 680.039062 452.929688 679.824219 453.164062 C 679.613281 453.398438 679.386719 453.617188 679.148438 453.824219 C 678.90625 454.027344 678.65625 454.21875 678.394531 454.398438 C 678.136719 454.574219 677.863281 454.734375 677.582031 454.878906 L 638.664062 475.042969 C 638.195312 475.285156 637.753906 475.570312 637.34375 475.894531 C 636.929688 476.222656 636.554688 476.589844 636.214844 476.992188 C 635.875 477.390625 635.574219 477.824219 635.320312 478.28125 C 635.0625 478.742188 634.851562 479.222656 634.691406 479.722656 C 634.527344 480.222656 634.414062 480.734375 634.351562 481.257812 C 634.289062 481.78125 634.277344 482.304688 634.316406 482.828125 C 634.355469 483.355469 634.445312 483.871094 634.585938 484.378906 C 634.726562 484.886719 634.914062 485.375 635.152344 485.84375 L 654.789062 525.03125 C 654.929688 525.3125 655.054688 525.601562 655.164062 525.898438 C 655.269531 526.195312 655.359375 526.496094 655.433594 526.804688 C 655.503906 527.113281 655.558594 527.421875 655.59375 527.738281 C 655.628906 528.050781 655.648438 528.367188 655.644531 528.679688 C 655.644531 528.996094 655.625 529.3125 655.585938 529.625 C 655.550781 529.9375 655.492188 530.25 655.417969 530.554688 C 655.34375 530.863281 655.253906 531.164062 655.144531 531.460938 C 655.035156 531.757812 654.90625 532.042969 654.765625 532.324219 C 654.621094 532.605469 654.460938 532.878906 654.285156 533.140625 C 654.113281 533.40625 653.921875 533.65625 653.71875 533.898438 C 653.511719 534.136719 653.292969 534.363281 653.0625 534.578125 C 652.832031 534.792969 652.589844 534.996094 652.335938 535.183594 C 652.078125 535.367188 651.816406 535.539062 651.539062 535.695312 C 651.265625 535.851562 650.980469 535.988281 650.691406 536.109375 C 650.398438 536.234375 650.101562 536.339844 649.800781 536.425781 C 649.496094 536.511719 649.1875 536.582031 648.878906 536.632812 L 605.628906 543.78125 C 605.109375 543.867188 604.605469 544 604.109375 544.1875 C 603.617188 544.371094 603.148438 544.601562 602.699219 544.878906 C 602.25 545.15625 601.835938 545.472656 601.449219 545.828125 C 601.0625 546.1875 600.714844 546.578125 600.40625 547.007812 C 600.097656 547.433594 599.832031 547.882812 599.609375 548.359375 C 599.386719 548.839844 599.214844 549.332031 599.089844 549.84375 C 598.964844 550.355469 598.890625 550.875 598.867188 551.402344 C 598.847656 551.925781 598.875 552.449219 598.953125 552.972656 L 605.519531 596.3125 C 605.566406 596.625 605.597656 596.9375 605.609375 597.253906 C 605.617188 597.566406 605.609375 597.882812 605.582031 598.199219 C 605.558594 598.511719 605.511719 598.824219 605.449219 599.132812 C 605.386719 599.441406 605.304688 599.746094 605.207031 600.046875 C 605.109375 600.347656 604.992188 600.640625 604.859375 600.925781 C 604.726562 601.214844 604.578125 601.492188 604.414062 601.761719 C 604.246094 602.027344 604.066406 602.289062 603.871094 602.535156 C 603.675781 602.78125 603.464844 603.019531 603.242188 603.242188 C 603.019531 603.464844 602.78125 603.675781 602.535156 603.871094 C 602.289062 604.066406 602.027344 604.246094 601.761719 604.410156 C 601.492188 604.578125 601.214844 604.726562 600.925781 604.859375 C 600.640625 604.992188 600.347656 605.105469 600.046875 605.207031 C 599.746094 605.304688 599.441406 605.382812 599.132812 605.449219 C 598.824219 605.511719 598.511719 605.554688 598.199219 605.582031 C 597.882812 605.605469 597.566406 605.613281 597.253906 605.605469 C 596.9375 605.59375 596.621094 605.566406 596.3125 605.515625 L 552.972656 598.949219 C 552.453125 598.871094 551.929688 598.84375 551.40625 598.867188 C 550.878906 598.890625 550.359375 598.964844 549.847656 599.089844 C 549.335938 599.214844 548.839844 599.386719 548.363281 599.609375 C 547.886719 599.828125 547.433594 600.09375 547.007812 600.40625 C 546.582031 600.714844 546.191406 601.0625 545.832031 601.449219 C 545.472656 601.835938 545.15625 602.25 544.878906 602.699219 C 544.601562 603.148438 544.371094 603.617188 544.1875 604.109375 C 544.003906 604.605469 543.867188 605.109375 543.78125 605.628906 L 536.636719 648.875 C 536.585938 649.1875 536.515625 649.496094 536.425781 649.796875 C 536.339844 650.101562 536.234375 650.398438 536.113281 650.6875 C 535.992188 650.980469 535.851562 651.261719 535.695312 651.539062 C 535.539062 651.8125 535.371094 652.078125 535.183594 652.332031 C 534.996094 652.585938 534.796875 652.832031 534.582031 653.0625 C 534.367188 653.292969 534.140625 653.511719 533.898438 653.714844 C 533.65625 653.921875 533.40625 654.109375 533.144531 654.285156 C 532.882812 654.460938 532.609375 654.621094 532.328125 654.761719 C 532.046875 654.90625 531.757812 655.03125 531.460938 655.144531 C 531.164062 655.253906 530.863281 655.34375 530.558594 655.417969 C 530.25 655.492188 529.941406 655.546875 529.625 655.585938 C 529.3125 655.625 529 655.644531 528.683594 655.644531 C 528.367188 655.644531 528.050781 655.628906 527.738281 655.59375 C 527.425781 655.558594 527.113281 655.503906 526.808594 655.429688 C 526.5 655.359375 526.199219 655.269531 525.902344 655.160156 C 525.605469 655.054688 525.3125 654.929688 525.03125 654.789062 L 485.847656 635.148438 C 485.375 634.914062 484.886719 634.726562 484.378906 634.585938 C 483.871094 634.445312 483.355469 634.355469 482.832031 634.316406 C 482.304688 634.277344 481.78125 634.289062 481.257812 634.351562 C 480.738281 634.414062 480.226562 634.527344 479.722656 634.6875 C 479.222656 634.851562 478.742188 635.0625 478.28125 635.316406 C 477.824219 635.574219 477.390625 635.871094 476.992188 636.210938 C 476.589844 636.554688 476.226562 636.929688 475.898438 637.339844 C 475.570312 637.753906 475.285156 638.191406 475.042969 638.660156 L 454.882812 677.582031 C 454.738281 677.863281 454.578125 678.132812 454.398438 678.394531 C 454.222656 678.65625 454.03125 678.90625 453.824219 679.144531 C 453.617188 679.382812 453.398438 679.609375 453.167969 679.824219 C 452.933594 680.039062 452.6875 680.238281 452.433594 680.421875 C 452.175781 680.605469 451.910156 680.773438 451.636719 680.929688 C 451.359375 681.082031 451.074219 681.21875 450.785156 681.339844 C 450.492188 681.460938 450.195312 681.5625 449.890625 681.648438 C 449.585938 681.734375 449.277344 681.800781 448.964844 681.851562 C 448.652344 681.898438 448.339844 681.929688 448.023438 681.945312 C 447.710938 681.957031 447.394531 681.949219 447.078125 681.925781 C 446.765625 681.902344 446.453125 681.859375 446.140625 681.800781 C 445.832031 681.738281 445.527344 681.660156 445.226562 681.5625 C 444.925781 681.464844 444.632812 681.351562 444.34375 681.222656 C 444.058594 681.089844 443.777344 680.941406 443.507812 680.78125 C 443.238281 680.617188 442.980469 680.4375 442.730469 680.242188 C 442.480469 680.050781 442.242188 679.839844 442.019531 679.621094 L 410.816406 648.832031 C 410.441406 648.460938 410.035156 648.132812 409.597656 647.84375 C 409.15625 647.550781 408.695312 647.308594 408.207031 647.105469 C 407.71875 646.90625 407.21875 646.757812 406.703125 646.65625 C 406.183594 646.554688 405.664062 646.5 405.136719 646.5 C 404.609375 646.5 404.089844 646.554688 403.574219 646.65625 C 403.054688 646.757812 402.554688 646.90625 402.066406 647.105469 C 401.582031 647.308594 401.117188 647.550781 400.679688 647.84375 C 400.238281 648.132812 399.832031 648.460938 399.457031 648.832031 L 368.253906 679.621094 C 368.03125 679.839844 367.792969 680.050781 367.546875 680.242188 C 367.296875 680.4375 367.035156 680.617188 366.765625 680.78125 C 366.496094 680.941406 366.21875 681.089844 365.929688 681.222656 C 365.644531 681.351562 365.347656 681.464844 365.046875 681.5625 C 364.746094 681.660156 364.441406 681.738281 364.132812 681.800781 C 363.824219 681.859375 363.511719 681.902344 363.195312 681.925781 C 362.882812 681.949219 362.566406 681.957031 362.25 681.945312 C 361.933594 681.929688 361.621094 681.898438 361.308594 681.851562 C 360.996094 681.800781 360.691406 681.734375 360.386719 681.648438 C 360.082031 681.5625 359.785156 681.460938 359.492188 681.339844 C 359.199219 681.21875 358.914062 681.082031 358.640625 680.929688 C 358.363281 680.773438 358.097656 680.605469 357.84375 680.421875 C 357.585938 680.238281 357.339844 680.039062 357.109375 679.824219 C 356.875 679.609375 356.65625 679.382812 356.449219 679.144531 C 356.246094 678.90625 356.050781 678.65625 355.875 678.394531 C 355.699219 678.132812 355.539062 677.863281 355.390625 677.582031 L 335.226562 638.671875 C 334.988281 638.203125 334.703125 637.761719 334.375 637.351562 C 334.046875 636.9375 333.679688 636.5625 333.277344 636.222656 C 332.875 635.878906 332.445312 635.582031 331.984375 635.324219 C 331.527344 635.066406 331.042969 634.859375 330.542969 634.695312 C 330.042969 634.53125 329.53125 634.421875 329.007812 634.359375 C 328.484375 634.296875 327.960938 634.285156 327.433594 634.324219 C 326.910156 634.363281 326.390625 634.453125 325.886719 634.59375 C 325.378906 634.734375 324.886719 634.925781 324.417969 635.160156 L 285.230469 654.800781 C 284.949219 654.941406 284.660156 655.066406 284.363281 655.171875 C 284.066406 655.28125 283.765625 655.371094 283.457031 655.441406 C 283.148438 655.515625 282.839844 655.566406 282.527344 655.605469 C 282.210938 655.640625 281.898438 655.65625 281.582031 655.65625 C 281.265625 655.65625 280.949219 655.636719 280.636719 655.597656 C 280.324219 655.558594 280.015625 655.503906 279.707031 655.429688 C 279.398438 655.355469 279.097656 655.261719 278.800781 655.152344 C 278.507812 655.042969 278.21875 654.917969 277.9375 654.773438 C 277.65625 654.628906 277.382812 654.472656 277.121094 654.296875 C 276.859375 654.121094 276.605469 653.929688 276.367188 653.726562 C 276.125 653.523438 275.898438 653.304688 275.683594 653.074219 C 275.46875 652.839844 275.265625 652.597656 275.082031 652.34375 C 274.894531 652.089844 274.722656 651.824219 274.566406 651.550781 C 274.414062 651.273438 274.273438 650.992188 274.152344 650.699219 C 274.027344 650.410156 273.925781 650.113281 273.835938 649.808594 C 273.75 649.503906 273.679688 649.199219 273.628906 648.886719 L 266.484375 605.640625 C 266.398438 605.121094 266.261719 604.613281 266.078125 604.121094 C 265.890625 603.628906 265.660156 603.15625 265.386719 602.710938 C 265.109375 602.261719 264.792969 601.84375 264.433594 601.457031 C 264.074219 601.074219 263.683594 600.726562 263.257812 600.414062 C 262.832031 600.105469 262.378906 599.839844 261.902344 599.617188 C 261.425781 599.398438 260.929688 599.226562 260.417969 599.101562 C 259.90625 598.976562 259.386719 598.902344 258.863281 598.878906 C 258.335938 598.855469 257.8125 598.882812 257.292969 598.960938 L 213.953125 605.527344 C 213.640625 605.574219 213.328125 605.605469 213.011719 605.613281 C 212.695312 605.625 212.382812 605.617188 212.066406 605.589844 C 211.753906 605.566406 211.441406 605.519531 211.132812 605.457031 C 210.820312 605.394531 210.515625 605.3125 210.21875 605.214844 C 209.917969 605.117188 209.625 605 209.335938 604.867188 C 209.050781 604.734375 208.773438 604.585938 208.503906 604.421875 C 208.234375 604.257812 207.976562 604.074219 207.730469 603.878906 C 207.480469 603.683594 207.246094 603.476562 207.023438 603.25 C 206.800781 603.027344 206.589844 602.792969 206.394531 602.546875 C 206.199219 602.296875 206.019531 602.039062 205.851562 601.769531 C 205.6875 601.5 205.539062 601.222656 205.40625 600.9375 C 205.273438 600.652344 205.15625 600.359375 205.058594 600.058594 C 204.960938 599.757812 204.878906 599.453125 204.816406 599.144531 C 204.753906 598.835938 204.707031 598.523438 204.683594 598.207031 C 204.65625 597.894531 204.648438 597.578125 204.660156 597.261719 C 204.667969 596.949219 204.699219 596.632812 204.746094 596.320312 L 211.316406 552.980469 C 211.394531 552.460938 211.421875 551.9375 211.398438 551.410156 C 211.375 550.886719 211.300781 550.367188 211.175781 549.855469 C 211.050781 549.34375 210.878906 548.847656 210.660156 548.371094 C 210.4375 547.894531 210.171875 547.441406 209.863281 547.015625 C 209.550781 546.589844 209.203125 546.199219 208.820312 545.839844 C 208.433594 545.480469 208.015625 545.164062 207.566406 544.886719 C 207.121094 544.613281 206.648438 544.378906 206.15625 544.195312 C 205.664062 544.011719 205.15625 543.875 204.636719 543.789062 L 161.390625 536.644531 C 161.078125 536.59375 160.773438 536.523438 160.46875 536.4375 C 160.164062 536.347656 159.867188 536.246094 159.578125 536.121094 C 159.285156 536 159.003906 535.859375 158.726562 535.707031 C 158.453125 535.550781 158.1875 535.378906 157.933594 535.191406 C 157.679688 535.007812 157.4375 534.804688 157.203125 534.589844 C 156.972656 534.375 156.753906 534.148438 156.550781 533.90625 C 156.347656 533.667969 156.15625 533.414062 155.980469 533.152344 C 155.804688 532.890625 155.644531 532.617188 155.503906 532.335938 C 155.359375 532.054688 155.234375 531.765625 155.125 531.46875 C 155.015625 531.175781 154.921875 530.871094 154.847656 530.566406 C 154.773438 530.257812 154.71875 529.949219 154.679688 529.636719 C 154.640625 529.320312 154.621094 529.007812 154.621094 528.691406 C 154.621094 528.375 154.636719 528.0625 154.675781 527.746094 C 154.710938 527.433594 154.765625 527.125 154.835938 526.816406 C 154.910156 526.507812 155 526.207031 155.105469 525.910156 C 155.214844 525.613281 155.335938 525.324219 155.480469 525.039062 L 175.117188 485.855469 C 175.351562 485.386719 175.539062 484.898438 175.679688 484.390625 C 175.820312 483.882812 175.910156 483.367188 175.949219 482.839844 C 175.988281 482.316406 175.980469 481.792969 175.914062 481.269531 C 175.851562 480.746094 175.742188 480.234375 175.578125 479.734375 C 175.414062 479.234375 175.207031 478.753906 174.949219 478.292969 C 174.691406 477.832031 174.394531 477.402344 174.054688 477 C 173.710938 476.601562 173.335938 476.234375 172.925781 475.90625 C 172.511719 475.578125 172.074219 475.292969 171.605469 475.050781 L 132.683594 454.886719 C 132.402344 454.742188 132.132812 454.582031 131.871094 454.40625 C 131.609375 454.226562 131.359375 454.035156 131.121094 453.828125 C 130.882812 453.625 130.65625 453.402344 130.441406 453.171875 C 130.230469 452.9375 130.03125 452.695312 129.84375 452.4375 C 129.660156 452.183594 129.492188 451.917969 129.335938 451.640625 C 129.183594 451.363281 129.046875 451.082031 128.925781 450.789062 C 128.804688 450.496094 128.703125 450.199219 128.617188 449.894531 C 128.53125 449.589844 128.464844 449.28125 128.414062 448.972656 C 128.367188 448.660156 128.335938 448.34375 128.320312 448.03125 C 128.308594 447.714844 128.316406 447.398438 128.339844 447.085938 C 128.363281 446.769531 128.40625 446.457031 128.46875 446.148438 C 128.527344 445.835938 128.605469 445.53125 128.703125 445.230469 C 128.800781 444.929688 128.914062 444.636719 129.042969 444.351562 C 129.175781 444.0625 129.324219 443.785156 129.488281 443.515625 C 129.648438 443.242188 129.828125 442.984375 130.023438 442.734375 C 130.21875 442.484375 130.425781 442.25 130.648438 442.023438 L 161.433594 410.824219 C 161.804688 410.449219 162.132812 410.042969 162.421875 409.605469 C 162.714844 409.164062 162.960938 408.703125 163.160156 408.214844 C 163.359375 407.726562 163.511719 407.226562 163.613281 406.707031 C 163.714844 406.191406 163.765625 405.671875 163.765625 405.144531 C 163.765625 404.617188 163.714844 404.09375 163.613281 403.578125 C 163.511719 403.0625 163.359375 402.5625 163.160156 402.074219 C 162.960938 401.585938 162.714844 401.125 162.421875 400.683594 C 162.132812 400.246094 161.804688 399.835938 161.433594 399.460938 L 130.648438 368.261719 C 130.425781 368.035156 130.21875 367.800781 130.023438 367.550781 C 129.828125 367.300781 129.648438 367.042969 129.488281 366.773438 C 129.324219 366.5 129.175781 366.222656 129.042969 365.9375 C 128.914062 365.648438 128.800781 365.355469 128.703125 365.054688 C 128.605469 364.753906 128.527344 364.449219 128.46875 364.136719 C 128.40625 363.828125 128.363281 363.515625 128.339844 363.203125 C 128.316406 362.886719 128.308594 362.570312 128.320312 362.253906 C 128.335938 361.941406 128.367188 361.625 128.414062 361.316406 C 128.464844 361.003906 128.53125 360.695312 128.617188 360.390625 C 128.703125 360.085938 128.804688 359.789062 128.925781 359.496094 C 129.046875 359.207031 129.183594 358.921875 129.335938 358.644531 C 129.492188 358.371094 129.660156 358.105469 129.84375 357.847656 C 130.03125 357.589844 130.230469 357.347656 130.441406 357.113281 C 130.65625 356.882812 130.882812 356.664062 131.121094 356.457031 C 131.359375 356.25 131.609375 356.058594 131.871094 355.882812 C 132.132812 355.703125 132.402344 355.542969 132.683594 355.398438 L 171.605469 335.238281 C 172.074219 334.996094 172.515625 334.710938 172.925781 334.382812 C 173.339844 334.054688 173.714844 333.691406 174.054688 333.289062 C 174.398438 332.886719 174.695312 332.457031 174.953125 331.996094 C 175.207031 331.535156 175.417969 331.054688 175.582031 330.554688 C 175.742188 330.050781 175.855469 329.539062 175.917969 329.015625 C 175.980469 328.492188 175.992188 327.96875 175.953125 327.445312 C 175.914062 326.917969 175.824219 326.402344 175.683594 325.894531 C 175.542969 325.386719 175.351562 324.898438 175.117188 324.425781 L 155.480469 285.242188 C 155.335938 284.960938 155.214844 284.667969 155.105469 284.371094 C 155 284.074219 154.910156 283.773438 154.835938 283.464844 C 154.765625 283.160156 154.710938 282.847656 154.675781 282.535156 C 154.636719 282.222656 154.621094 281.90625 154.621094 281.589844 C 154.621094 281.273438 154.640625 280.960938 154.679688 280.648438 C 154.71875 280.332031 154.773438 280.023438 154.847656 279.714844 C 154.921875 279.410156 155.015625 279.109375 155.125 278.8125 C 155.234375 278.515625 155.359375 278.226562 155.503906 277.945312 C 155.644531 277.664062 155.804688 277.394531 155.980469 277.128906 C 156.15625 276.867188 156.347656 276.617188 156.550781 276.375 C 156.753906 276.136719 156.972656 275.90625 157.203125 275.691406 C 157.4375 275.476562 157.679688 275.277344 157.933594 275.089844 C 158.1875 274.90625 158.453125 274.734375 158.726562 274.578125 C 159.003906 274.421875 159.285156 274.285156 159.578125 274.160156 C 159.867188 274.039062 160.164062 273.933594 160.46875 273.847656 C 160.773438 273.761719 161.078125 273.691406 161.390625 273.640625 L 204.636719 266.492188 C 205.15625 266.40625 205.664062 266.269531 206.15625 266.085938 C 206.648438 265.902344 207.121094 265.671875 207.566406 265.394531 C 208.015625 265.117188 208.433594 264.800781 208.820312 264.441406 C 209.203125 264.085938 209.550781 263.691406 209.863281 263.265625 C 210.171875 262.839844 210.4375 262.390625 210.660156 261.910156 C 210.878906 261.433594 211.050781 260.9375 211.175781 260.425781 C 211.300781 259.914062 211.375 259.398438 211.398438 258.871094 C 211.421875 258.34375 211.394531 257.820312 211.316406 257.300781 L 204.75 213.964844 C 204.703125 213.652344 204.671875 213.339844 204.660156 213.023438 C 204.652344 212.707031 204.660156 212.394531 204.683594 212.078125 C 204.710938 211.765625 204.757812 211.453125 204.820312 211.144531 C 204.882812 210.832031 204.960938 210.527344 205.0625 210.230469 C 205.160156 209.929688 205.273438 209.636719 205.40625 209.347656 C 205.539062 209.0625 205.691406 208.785156 205.855469 208.515625 C 206.019531 208.246094 206.203125 207.988281 206.398438 207.742188 C 206.59375 207.492188 206.800781 207.257812 207.027344 207.035156 C 207.25 206.8125 207.484375 206.601562 207.730469 206.40625 C 207.980469 206.210938 208.238281 206.03125 208.507812 205.863281 C 208.777344 205.699219 209.054688 205.550781 209.339844 205.417969 C 209.625 205.285156 209.921875 205.167969 210.21875 205.070312 C 210.519531 204.972656 210.824219 204.890625 211.132812 204.828125 C 211.445312 204.765625 211.753906 204.71875 212.070312 204.695312 C 212.386719 204.667969 212.699219 204.660156 213.015625 204.671875 C 213.332031 204.679688 213.644531 204.710938 213.957031 204.757812 L 257.296875 211.324219 C 257.816406 211.402344 258.339844 211.429688 258.863281 211.40625 C 259.390625 211.382812 259.910156 211.308594 260.421875 211.1875 C 260.933594 211.0625 261.425781 210.886719 261.90625 210.667969 C 262.382812 210.445312 262.835938 210.179688 263.261719 209.871094 C 263.6875 209.5625 264.078125 209.214844 264.4375 208.828125 C 264.792969 208.441406 265.113281 208.023438 265.386719 207.578125 C 265.664062 207.128906 265.894531 206.660156 266.082031 206.164062 C 266.265625 205.671875 266.398438 205.167969 266.484375 204.648438 L 273.632812 161.398438 C 273.683594 161.089844 273.753906 160.78125 273.839844 160.476562 C 273.929688 160.175781 274.03125 159.878906 274.15625 159.585938 C 274.277344 159.296875 274.417969 159.011719 274.570312 158.738281 C 274.726562 158.464844 274.898438 158.199219 275.085938 157.945312 C 275.269531 157.6875 275.472656 157.445312 275.6875 157.214844 C 275.902344 156.984375 276.128906 156.765625 276.367188 156.5625 C 276.609375 156.355469 276.859375 156.167969 277.125 155.992188 C 277.386719 155.816406 277.65625 155.65625 277.9375 155.515625 C 278.21875 155.371094 278.507812 155.246094 278.804688 155.136719 C 279.101562 155.027344 279.402344 154.933594 279.710938 154.859375 C 280.015625 154.785156 280.324219 154.730469 280.640625 154.691406 C 280.953125 154.652344 281.265625 154.632812 281.582031 154.632812 C 281.898438 154.632812 282.210938 154.648438 282.527344 154.683594 C 282.839844 154.71875 283.152344 154.773438 283.457031 154.847656 C 283.765625 154.917969 284.066406 155.007812 284.363281 155.113281 C 284.660156 155.222656 284.949219 155.347656 285.230469 155.488281 L 324.417969 175.125 C 324.886719 175.359375 325.375 175.550781 325.882812 175.691406 C 326.390625 175.828125 326.90625 175.921875 327.433594 175.960938 C 327.957031 176 328.480469 175.988281 329.003906 175.925781 C 329.527344 175.863281 330.039062 175.75 330.539062 175.585938 C 331.039062 175.425781 331.519531 175.214844 331.980469 174.957031 C 332.441406 174.703125 332.871094 174.402344 333.273438 174.0625 C 333.671875 173.722656 334.039062 173.34375 334.367188 172.933594 C 334.695312 172.523438 334.980469 172.082031 335.222656 171.613281 L 355.390625 132.695312 C 355.535156 132.414062 355.695312 132.140625 355.871094 131.878906 C 356.050781 131.617188 356.242188 131.367188 356.445312 131.128906 C 356.652344 130.890625 356.871094 130.664062 357.105469 130.449219 C 357.339844 130.238281 357.582031 130.039062 357.839844 129.855469 C 358.09375 129.667969 358.359375 129.5 358.636719 129.347656 C 358.914062 129.191406 359.195312 129.054688 359.488281 128.933594 C 359.78125 128.816406 360.078125 128.710938 360.382812 128.625 C 360.6875 128.542969 360.992188 128.472656 361.304688 128.425781 C 361.617188 128.375 361.929688 128.34375 362.246094 128.332031 C 362.5625 128.320312 362.878906 128.324219 363.191406 128.347656 C 363.507812 128.371094 363.820312 128.414062 364.128906 128.476562 C 364.4375 128.535156 364.746094 128.617188 365.046875 128.710938 C 365.34375 128.808594 365.640625 128.921875 365.925781 129.054688 C 366.214844 129.183594 366.492188 129.332031 366.761719 129.496094 C 367.03125 129.660156 367.292969 129.839844 367.542969 130.03125 C 367.789062 130.226562 368.027344 130.433594 368.253906 130.65625 L 399.453125 161.441406 C 399.828125 161.8125 400.234375 162.140625 400.675781 162.433594 C 401.113281 162.722656 401.578125 162.96875 402.0625 163.167969 C 402.550781 163.367188 403.054688 163.519531 403.570312 163.621094 C 404.085938 163.722656 404.609375 163.773438 405.132812 163.773438 C 405.660156 163.773438 406.183594 163.722656 406.699219 163.621094 C 407.214844 163.519531 407.714844 163.367188 408.203125 163.167969 C 408.691406 162.96875 409.152344 162.722656 409.59375 162.433594 C 410.03125 162.140625 410.4375 161.8125 410.8125 161.441406 Z M 410.8125 161.441406 " fill-opacity="1" fill-rule="nonzero"/></g><path fill="#ffffff" d="M 508.472656 317.207031 C 498.644531 308.507812 483.484375 309.425781 474.78125 319.25 L 367.914062 439.90625 L 333.832031 405.824219 C 325.4375 397.429688 311.699219 397.429688 303.300781 405.824219 L 300.078125 409.046875 C 291.683594 417.441406 291.683594 431.179688 300.078125 439.574219 L 353.3125 492.808594 C 361.277344 500.773438 374 501.089844 382.457031 493.9375 C 384.289062 492.777344 386.035156 491.445312 387.542969 489.742188 L 510.511719 350.902344 C 519.214844 341.074219 518.296875 325.910156 508.472656 317.207031 Z M 508.472656 317.207031 " fill-opacity="1" fill-rule="nonzero"/></svg>